999
DXF created from GearGenerator
0
SECTION
2
HEADER
9
$ACADVER
1
AC1006
9
$INSBASE
10
0.0
20
0.0
30
0.0
0
ENDSEC
0
SECTION
2
BLOCKS
0
ENDSEC
0
SECTION
2
TABLES
0
TABLE
2
LTYPE
0
LTYPE
72
65
2
CONTINOUS
3
______
73
0
40
0
0
LTYPE
72
65
2
DASHED
3
_ _ _ 
73
2
40
1
49
0.5
49
-0.5
0
LTYPE
72
65
2
DOTTED
3
. . . 
73
2
40
0.5
49
0
49
-0.5
0
ENDTAB
0
TABLE
2
LAYER
0
LAYER
2
gear
62
7
6
CONTINOUS
0
LAYER
2
gear_texts
62
7
6
CONTINOUS
0
LAYER
2
gear_guides
62
5
6
DOTTED
0
ENDTAB
0
ENDSEC
0
SECTION
2
ENTITIES
0
LWPOLYLINE
90
2820
70
1
43
0
10
1385
20
0
10
1409.7536
20
0.0025
10
1410.1352
20
0.0116
10
1410.7073
20
0.0317
10
1411.4698
20
0.0674
10
1412.4223
20
0.1231
10
1413.5645
20
0.2031
10
1414.8958
20
0.312
10
1416.4159
20
0.4541
10
1418.1239
20
0.6338
10
1420.0193
20
0.8555
10
1422.1012
20
1.1236
10
1424.3689
20
1.4425
10
1426.8213
20
1.8165
10
1429.4575
20
2.25
10
1432.2765
20
2.7472
10
1435.2769
20
3.3126
10
1438.4578
20
3.9503
10
1441.8176
20
4.6646
10
1445.3551
20
5.4598
10
1449.0688
20
6.3402
10
1452.9571
20
7.3099
10
1457.0185
20
8.373
10
1461.2513
20
9.5338
10
1465.6538
20
10.7964
10
1470.2241
20
12.1648
10
1474.9603
20
13.6432
10
1479.8605
20
15.2356
10
1484.9226
20
16.9459
10
1490.1445
20
18.7782
10
1495.5241
20
20.7364
10
1501.0591
20
22.8245
10
1506.7472
20
25.0462
10
1512.5859
20
27.4054
10
1518.5729
20
29.9059
10
1524.7057
20
32.5515
10
1530.9816
20
35.3459
10
1537.3979
20
38.2928
10
1543.952
20
41.3958
10
1550.6411
20
44.6585
10
1557.4623
20
48.0844
10
1564.4127
20
51.6771
10
1571.4893
20
55.44
10
1578.6891
20
59.3766
10
1586.009
20
63.4901
10
1593.4458
20
67.7839
10
1598.3727
20
72.1429
10
1593.9006
20
139.5739
10
1588.4411
20
143.244
10
1580.5024
20
146.5181
10
1572.7034
20
149.629
10
1565.0468
20
152.5802
10
1557.5352
20
155.3756
10
1550.1713
20
158.019
10
1542.9574
20
160.5141
10
1535.896
20
162.8648
10
1528.9895
20
165.0751
10
1522.2402
20
167.1488
10
1515.6502
20
169.0899
10
1509.2218
20
170.9024
10
1502.957
20
172.5904
10
1496.8578
20
174.1579
10
1490.9262
20
175.6089
10
1485.1639
20
176.9477
10
1479.5728
20
178.1783
10
1474.1547
20
179.3049
10
1468.911
20
180.3318
10
1463.8435
20
181.2631
10
1458.9535
20
182.103
10
1454.2425
20
182.8559
10
1449.7119
20
183.526
10
1445.3629
20
184.1177
10
1441.1966
20
184.6352
10
1437.2143
20
185.0828
10
1433.4169
20
185.465
10
1429.8053
20
185.7861
10
1426.3806
20
186.0505
10
1423.1434
20
186.2626
10
1420.0945
20
186.4267
10
1417.2346
20
186.5473
10
1414.5642
20
186.6288
10
1412.0839
20
186.6757
10
1409.794
20
186.6923
10
1407.6949
20
186.6831
10
1405.7868
20
186.6526
10
1404.07
20
186.6052
10
1402.5445
20
186.5453
10
1401.2105
20
186.4773
10
1400.0677
20
186.4059
10
1399.1162
20
186.3352
10
1398.3557
20
186.2699
10
1397.7859
20
186.2144
10
1397.4065
20
186.173
10
1372.8693
20
182.9064
10
1354.7344
20
287.9577
10
1378.9466
20
293.1067
10
1379.3179
20
293.1949
10
1379.8734
20
293.3336
10
1380.6118
20
293.527
10
1381.5319
20
293.7795
10
1382.6325
20
294.0953
10
1383.9121
20
294.4786
10
1385.3694
20
294.9336
10
1387.0027
20
295.4645
10
1388.8106
20
296.0754
10
1390.7913
20
296.7706
10
1392.9431
20
297.5539
10
1395.2642
20
298.4297
10
1397.7526
20
299.4018
10
1400.4066
20
300.4742
10
1403.224
20
301.651
10
1406.2027
20
302.9361
10
1409.3406
20
304.3334
10
1412.6354
20
305.8468
10
1416.0849
20
307.48
10
1419.6867
20
309.2369
10
1423.4383
20
311.1212
10
1427.3373
20
313.1367
10
1431.381
20
315.287
10
1435.5669
20
317.5758
10
1439.8923
20
320.0066
10
1444.3543
20
322.5829
10
1448.9502
20
325.3084
10
1453.6771
20
328.1863
10
1458.532
20
331.2202
10
1463.5119
20
334.4134
10
1468.6137
20
337.7692
10
1473.8344
20
341.2908
10
1479.1707
20
344.9815
10
1484.6194
20
348.8443
10
1490.1771
20
352.8825
10
1495.8406
20
357.099
10
1501.6063
20
361.4969
10
1507.4709
20
366.079
10
1513.4307
20
370.8483
10
1519.4823
20
375.8075
10
1525.6219
20
380.9595
10
1531.8459
20
386.307
10
1538.1505
20
391.8525
10
1544.5321
20
397.5987
10
1548.4451
20
402.8868
10
1530.051
20
467.9144
10
1523.9478
20
470.3693
10
1515.5018
20
471.9213
10
1507.2265
20
473.3426
10
1499.1236
20
474.6375
10
1491.195
20
475.8101
10
1483.4423
20
476.8646
10
1475.8673
20
477.8053
10
1468.4715
20
478.6365
10
1461.2564
20
479.3626
10
1454.2234
20
479.9877
10
1447.3739
20
480.5163
10
1440.7091
20
480.9526
10
1434.2302
20
481.3012
10
1427.9384
20
481.5663
10
1421.8347
20
481.7524
10
1415.92
20
481.8639
10
1410.1953
20
481.9052
10
1404.6613
20
481.8807
10
1399.3187
20
481.7949
10
1394.1683
20
481.6522
10
1389.2105
20
481.4571
10
1384.446
20
481.2141
10
1379.875
20
480.9276
10
1375.498
20
480.6021
10
1371.3152
20
480.2421
10
1367.3268
20
479.852
10
1363.5329
20
479.4363
10
1359.9335
20
478.9995
10
1356.5287
20
478.5461
10
1353.3181
20
478.0804
10
1350.3018
20
477.6071
10
1347.4793
20
477.1304
10
1344.8503
20
476.655
10
1342.4144
20
476.1851
10
1340.1711
20
475.7253
10
1338.1198
20
475.2799
10
1336.2598
20
474.8533
10
1334.5903
20
474.45
10
1333.1106
20
474.0742
10
1331.8198
20
473.7304
10
1330.7169
20
473.4229
10
1329.8009
20
473.156
10
1329.0705
20
472.934
10
1328.5248
20
472.7612
10
1328.1622
20
472.6418
10
1304.8405
20
464.3451
10
1265.2605
20
563.3303
10
1287.873
20
573.4007
10
1288.2179
20
573.5642
10
1288.7323
20
573.8153
10
1289.4144
20
574.1581
10
1290.2619
20
574.5964
10
1291.2728
20
575.1341
10
1292.4448
20
575.775
10
1293.7756
20
576.5231
10
1295.2629
20
577.382
10
1296.9042
20
578.3554
10
1298.6971
20
579.4472
10
1300.639
20
580.6608
10
1302.7273
20
582
10
1304.9593
20
583.4682
10
1307.3322
20
585.069
10
1309.8434
20
586.8059
10
1312.4898
20
588.6822
10
1315.2687
20
590.7014
10
1318.1769
20
592.8667
10
1321.2114
20
595.1814
10
1324.3692
20
597.6488
10
1327.6471
20
600.272
10
1331.0418
20
603.054
10
1334.5501
20
605.9981
10
1338.1686
20
609.1071
10
1341.8941
20
612.3841
10
1345.7229
20
615.8319
10
1349.6517
20
619.4533
10
1353.677
20
623.2511
10
1357.795
20
627.2281
10
1362.0022
20
631.3869
10
1366.2948
20
635.7301
10
1370.6692
20
640.2602
10
1375.1216
20
644.9797
10
1379.6481
20
649.891
10
1384.2448
20
654.9964
10
1388.9078
20
660.2983
10
1393.6332
20
665.7988
10
1398.4169
20
671.5001
10
1403.2549
20
677.4043
10
1408.1431
20
683.5133
10
1413.0774
20
689.8293
10
1418.0536
20
696.3539
10
1423.0676
20
703.089
10
1428.1149
20
710.0365
10
1430.843
20
716.0226
10
1399.3308
20
775.8049
10
1392.8506
20
776.9371
10
1384.2665
20
776.6992
10
1375.8765
20
776.369
10
1367.6814
20
775.9508
10
1359.6823
20
775.4493
10
1351.8798
20
774.869
10
1344.2747
20
774.2142
10
1336.8677
20
773.4896
10
1329.6593
20
772.6996
10
1322.6501
20
771.8489
10
1315.8403
20
770.9418
10
1309.2305
20
769.9829
10
1302.8207
20
768.9769
10
1296.6113
20
767.928
10
1290.6022
20
766.841
10
1284.7936
20
765.7203
10
1279.1854
20
764.5705
10
1273.7774
20
763.3959
10
1268.5694
20
762.2012
10
1263.5612
20
760.9908
10
1258.7524
20
759.7692
10
1254.1425
20
758.5409
10
1249.731
20
757.3103
10
1245.5173
20
756.0819
10
1241.5007
20
754.8601
10
1237.6806
20
753.6493
10
1234.056
20
752.4539
10
1230.6261
20
751.2783
10
1227.3899
20
750.1268
10
1224.3464
20
749.0039
10
1221.4943
20
747.9137
10
1218.8326
20
746.8607
10
1216.36
20
745.849
10
1214.075
20
744.883
10
1211.9763
20
743.9668
10
1210.0624
20
743.1046
10
1208.3317
20
742.3006
10
1206.7826
20
741.559
10
1205.4134
20
740.8838
10
1204.2223
20
740.2792
10
1203.2074
20
739.7491
10
1202.3669
20
739.2975
10
1201.6987
20
738.9285
10
1201.2007
20
738.646
10
1200.871
20
738.4539
10
1179.7838
20
725.4896
10
1120.4885
20
814.0826
10
1140.5132
20
828.6344
10
1140.8165
20
828.866
10
1141.2675
20
829.2186
10
1141.8634
20
829.6957
10
1142.6013
20
830.3006
10
1143.4783
20
831.0367
10
1144.4914
20
831.9073
10
1145.6376
20
832.9157
10
1146.9138
20
834.0651
10
1148.3169
20
835.3585
10
1149.8436
20
836.7992
10
1151.4907
20
838.39
10
1153.2549
20
840.1341
10
1155.1329
20
842.0343
10
1157.1212
20
844.0935
10
1159.2164
20
846.3145
10
1161.4149
20
848.7001
10
1163.7132
20
851.2529
10
1166.1076
20
853.9755
10
1168.5946
20
856.8706
10
1171.1704
20
859.9406
10
1173.8312
20
863.1879
10
1176.5733
20
866.615
10
1179.3929
20
870.2242
10
1182.2859
20
874.0176
10
1185.2486
20
877.9975
10
1188.277
20
882.166
10
1191.367
20
886.5251
10
1194.5147
20
891.0769
10
1197.7158
20
895.8231
10
1200.9664
20
900.7658
10
1204.2623
20
905.9065
10
1207.5992
20
911.2471
10
1210.9731
20
916.7892
10
1214.3795
20
922.5342
10
1217.8143
20
928.4838
10
1221.2731
20
934.6393
10
1224.7516
20
941.0021
10
1228.2454
20
947.5734
10
1231.7502
20
954.3545
10
1235.2614
20
961.3464
10
1238.7747
20
968.5502
10
1242.2857
20
975.9668
10
1245.7897
20
983.5972
10
1249.2823
20
991.4423
10
1250.7062
20
997.8648
10
1207.4532
20
1049.7889
10
1200.8791
20
1049.5491
10
1192.5321
20
1047.5317
10
1184.3941
20
1045.4643
10
1176.4651
20
1043.3514
10
1168.745
20
1041.1978
10
1161.2337
20
1039.0078
10
1153.9309
20
1036.7862
10
1146.8364
20
1034.5374
10
1139.9498
20
1032.266
10
1133.2706
20
1029.9765
10
1126.7983
20
1027.6734
10
1120.5322
20
1025.3613
10
1114.4717
20
1023.0445
10
1108.616
20
1020.7276
10
1102.9643
20
1018.415
10
1097.5156
20
1016.1111
10
1092.269
20
1013.8204
10
1087.2234
20
1011.5471
10
1082.3776
20
1009.2957
10
1077.7305
20
1007.0705
10
1073.2807
20
1004.8758
10
1069.0269
20
1002.7159
10
1064.9677
20
1000.595
10
1061.1015
20
998.5173
10
1057.4267
20
996.4871
10
1053.9418
20
994.5085
10
1050.645
20
992.5856
10
1047.5345
20
990.7226
10
1044.6084
20
988.9235
10
1041.8648
20
987.1923
10
1039.3018
20
985.533
10
1036.9171
20
983.9495
10
1034.7088
20
982.4459
10
1032.6747
20
981.0259
10
1030.8123
20
979.6934
10
1029.1195
20
978.4521
10
1027.5938
20
977.3059
10
1026.2327
20
976.2584
10
1025.0338
20
975.3133
10
1023.9944
20
974.4742
10
1023.112
20
973.7447
10
1022.3837
20
973.1282
10
1021.8068
20
972.6284
10
1021.3785
20
972.2485
10
1021.0959
20
971.992
10
1003.1649
20
954.9268
10
926.7459
20
1029.2556
10
943.3074
20
1047.6528
10
943.556
20
1047.9424
10
943.9238
20
1048.3811
10
944.4075
20
1048.9716
10
945.0035
20
1049.7167
10
945.7083
20
1050.6191
10
946.5182
20
1051.6813
10
947.4297
20
1052.906
10
948.4391
20
1054.2955
10
949.5426
20
1055.8524
10
950.7364
20
1057.579
10
952.0168
20
1059.4776
10
953.3799
20
1061.5504
10
954.8217
20
1063.7995
10
956.3384
20
1066.2271
10
957.926
20
1068.8352
10
959.5805
20
1071.6257
10
961.2978
20
1074.6005
10
963.0739
20
1077.7615
10
964.9046
20
1081.1104
10
966.7858
20
1084.6488
10
968.7133
20
1088.3784
10
970.683
20
1092.3007
10
972.6905
20
1096.4172
10
974.7317
20
1100.7293
10
976.8022
20
1105.2382
10
978.8977
20
1109.9452
10
981.0139
20
1114.8516
10
983.1464
20
1119.9583
10
985.2908
20
1125.2664
10
987.4427
20
1130.7768
10
989.5977
20
1136.4905
10
991.7514
20
1142.4082
10
993.8992
20
1148.5306
10
996.0368
20
1154.8584
10
998.1595
20
1161.3921
10
1000.2629
20
1168.1322
10
1002.3425
20
1175.0791
10
1004.3937
20
1182.2333
10
1006.412
20
1189.5948
10
1008.3928
20
1197.1639
10
1010.3316
20
1204.9408
10
1012.2238
20
1212.9253
10
1014.0648
20
1221.1175
10
1015.85
20
1229.5173
10
1015.9075
20
1236.0955
10
962.8041
20
1277.8921
10
956.4235
20
1276.2908
10
948.6783
20
1272.582
10
941.148
20
1268.8677
10
933.8315
20
1265.1525
10
926.7279
20
1261.4408
10
919.8361
20
1257.7371
10
913.1548
20
1254.0457
10
906.6829
20
1250.371
10
900.419
20
1246.7174
10
894.3618
20
1243.0893
10
888.5097
20
1239.4908
10
882.8613
20
1235.9264
10
877.4149
20
1232.4002
10
872.1689
20
1228.9165
10
867.1215
20
1225.4794
10
862.2709
20
1222.093
10
857.6152
20
1218.7614
10
853.1525
20
1215.4888
10
848.8807
20
1212.2791
10
844.7978
20
1209.1364
10
840.9015
20
1206.0644
10
837.1898
20
1203.0673
10
833.6602
20
1200.1488
10
830.3104
20
1197.3127
10
827.1381
20
1194.5628
10
824.1407
20
1191.9029
10
821.3157
20
1189.3366
10
818.6605
20
1186.8676
10
816.1724
20
1184.4994
10
813.8487
20
1182.2356
10
811.6867
20
1180.0797
10
809.6834
20
1178.0351
10
807.836
20
1176.1052
10
806.1415
20
1174.2932
10
804.5969
20
1172.6026
10
803.1991
20
1171.0366
10
801.9451
20
1169.5982
10
800.8316
20
1168.2906
10
799.8553
20
1167.1169
10
799.0131
20
1166.08
10
798.3016
20
1165.1829
10
797.7174
20
1164.4286
10
797.257
20
1163.8197
10
796.9171
20
1163.3591
10
796.694
20
1163.0494
10
782.7029
20
1142.629
10
692.5
20
1199.4452
10
704.8746
20
1220.8837
10
705.0576
20
1221.2186
10
705.3262
20
1221.7242
10
705.6765
20
1222.4024
10
706.1045
20
1223.2551
10
706.6063
20
1224.2843
10
707.1777
20
1225.4917
10
707.8147
20
1226.8792
10
708.5131
20
1228.4482
10
709.2687
20
1230.2005
10
710.0775
20
1232.1376
10
710.9352
20
1234.2609
10
711.8375
20
1236.5718
10
712.7802
20
1239.0715
10
713.7591
20
1241.7614
10
714.7697
20
1244.6426
10
715.8078
20
1247.7161
10
716.8691
20
1250.983
10
717.9492
20
1254.4441
10
719.0436
20
1258.1005
10
720.148
20
1261.9527
10
721.258
20
1266.0016
10
722.3691
20
1270.2477
10
723.4769
20
1274.6916
10
724.577
20
1279.3338
10
725.6648
20
1284.1747
10
726.7358
20
1289.2145
10
727.7857
20
1294.4536
10
728.8098
20
1299.8921
10
729.8038
20
1305.5301
10
730.763
20
1311.3675
10
731.683
20
1317.4044
10
732.5592
20
1323.6405
10
733.3872
20
1330.0757
10
734.1624
20
1336.7096
10
734.8803
20
1343.5419
10
735.5364
20
1350.572
10
736.1262
20
1357.7996
10
736.6452
20
1365.2238
10
737.0888
20
1372.8441
10
737.4527
20
1380.6597
10
737.7322
20
1388.6697
10
737.923
20
1396.8732
10
738.0205
20
1405.2691
10
738.0203
20
1413.8565
10
736.7088
20
1420.3029
10
676.0758
20
1450.1454
10
670.1676
20
1447.2524
10
663.3628
20
1442.0143
10
656.7692
20
1436.8156
10
650.3851
20
1431.6604
10
644.2084
20
1426.5529
10
638.2372
20
1421.4972
10
632.4694
20
1416.4973
10
626.9029
20
1411.5574
10
621.5356
20
1406.6813
10
616.365
20
1401.873
10
611.389
20
1397.1365
10
606.6051
20
1392.4756
10
602.0109
20
1387.8941
10
597.6038
20
1383.3958
10
593.3813
20
1378.9844
10
589.3408
20
1374.6635
10
585.4795
20
1370.4368
10
581.7947
20
1366.3078
10
578.2836
20
1362.2801
10
574.9433
20
1358.3572
10
571.7709
20
1354.5423
10
568.7634
20
1350.8389
10
565.9177
20
1347.2503
10
563.2308
20
1343.7798
10
560.6996
20
1340.4305
10
558.3207
20
1337.2055
10
556.091
20
1334.1079
10
554.0072
20
1331.1408
10
552.0658
20
1328.3071
10
550.2636
20
1325.6096
10
548.597
20
1323.0513
10
547.0626
20
1320.6348
10
545.6568
20
1318.363
10
544.3761
20
1316.2384
10
543.2167
20
1314.2636
10
542.1751
20
1312.4411
10
541.2475
20
1310.7734
10
540.4302
20
1309.2629
10
539.7193
20
1307.9118
10
539.1111
20
1306.7225
10
538.6016
20
1305.6971
10
538.187
20
1304.8378
10
537.8633
20
1304.1465
10
537.6266
20
1303.6253
10
537.4727
20
1303.276
10
528.0331
20
1280.3929
10
427.9885
20
1317.2133
10
435.6354
20
1340.7561
10
435.7447
20
1341.1218
10
435.9024
20
1341.6722
10
436.104
20
1342.4084
10
436.3454
20
1343.3315
10
436.6222
20
1344.4425
10
436.9301
20
1345.7423
10
437.2647
20
1347.2319
10
437.6216
20
1348.9118
10
437.9964
20
1350.783
10
438.3848
20
1352.8459
10
438.7823
20
1355.1011
10
439.1844
20
1357.549
10
439.5868
20
1360.1902
10
439.985
20
1363.0248
10
440.3745
20
1366.0531
10
440.751
20
1369.2753
10
441.1098
20
1372.6915
10
441.4467
20
1376.3016
10
441.757
20
1380.1055
10
442.0364
20
1384.1032
10
442.2803
20
1388.2944
10
442.4843
20
1392.6787
10
442.6439
20
1397.2559
10
442.7548
20
1402.0253
10
442.8123
20
1406.9866
10
442.8121
20
1412.139
10
442.7498
20
1417.4819
10
442.6208
20
1423.0144
10
442.4208
20
1428.7358
10
442.1454
20
1434.6452
10
441.7902
20
1440.7414
10
441.3507
20
1447.0234
10
440.8226
20
1453.4901
10
440.2016
20
1460.1402
10
439.4834
20
1466.9725
10
438.6635
20
1473.9854
10
437.7377
20
1481.1776
10
436.7017
20
1488.5475
10
435.5513
20
1496.0936
10
434.2823
20
1503.814
10
432.8903
20
1511.7071
10
431.3713
20
1519.7709
10
429.7211
20
1528.0037
10
427.9355
20
1536.4033
10
425.3123
20
1542.4362
10
359.7997
20
1559.0203
10
354.6221
20
1554.9621
10
349.0551
20
1548.4237
10
343.6865
20
1541.9677
10
338.5137
20
1535.5979
10
333.5339
20
1529.3177
10
328.7443
20
1523.131
10
324.1421
20
1517.0412
10
319.7243
20
1511.0519
10
315.488
20
1505.1664
10
311.4302
20
1499.3882
10
307.5476
20
1493.7207
10
303.8373
20
1488.167
10
300.2961
20
1482.7304
10
296.9205
20
1477.4141
10
293.7075
20
1472.2212
10
290.6536
20
1467.1547
10
287.7555
20
1462.2175
10
285.0097
20
1457.4127
10
282.4128
20
1452.743
10
279.9611
20
1448.2112
10
277.6512
20
1443.8202
10
275.4793
20
1439.5724
10
273.442
20
1435.4706
10
271.5354
20
1431.5173
10
269.7558
20
1427.7148
10
268.0994
20
1424.0657
10
266.5624
20
1420.5723
10
265.141
20
1417.2367
10
263.8313
20
1414.0613
10
262.6293
20
1411.0481
10
261.531
20
1408.1992
10
260.5326
20
1405.5165
10
259.6298
20
1403.002
10
258.8188
20
1400.6575
10
258.0954
20
1398.4849
10
257.4555
20
1396.4856
10
256.8949
20
1394.6615
10
256.4094
20
1393.0141
10
255.995
20
1391.5448
10
255.6474
20
1390.255
10
255.3622
20
1389.1461
10
255.1353
20
1388.2193
10
254.9624
20
1387.4758
10
254.8392
20
1386.9168
10
254.7613
20
1386.5431
10
250.2856
20
1362.1975
10
144.7719
20
1377.4128
10
147.3569
20
1402.0311
10
147.3878
20
1402.4115
10
147.4275
20
1402.9826
10
147.4717
20
1403.7446
10
147.5159
20
1404.6978
10
147.5557
20
1405.8421
10
147.5866
20
1407.1775
10
147.6042
20
1408.704
10
147.604
20
1410.4215
10
147.5816
20
1412.3297
10
147.5326
20
1414.4282
10
147.4525
20
1416.7168
10
147.3369
20
1419.1949
10
147.1813
20
1421.862
10
146.9815
20
1424.7175
10
146.7329
20
1427.7606
10
146.4312
20
1430.9907
10
146.0719
20
1434.4068
10
145.6508
20
1438.008
10
145.1635
20
1441.7934
10
144.6056
20
1445.7618
10
143.9728
20
1449.9121
10
143.2608
20
1454.243
10
142.4653
20
1458.7533
10
141.5821
20
1463.4416
10
140.6068
20
1468.3064
10
139.5354
20
1473.3462
10
138.3636
20
1478.5593
10
137.0872
20
1483.9442
10
135.702
20
1489.499
10
134.204
20
1495.2219
10
132.589
20
1501.1111
10
130.853
20
1507.1645
10
128.992
20
1513.3801
10
127.002
20
1519.7557
10
124.8789
20
1526.2893
10
122.6188
20
1532.9786
10
120.2179
20
1539.8211
10
117.6723
20
1546.8146
10
114.9782
20
1553.9565
10
112.1316
20
1561.2444
10
109.1291
20
1568.6756
10
105.9667
20
1576.2474
10
102.6408
20
1583.9572
10
99.1478
20
1591.802
10
95.3277
20
1597.1577
10
27.7987
20
1599.7585
10
23.578
20
1594.7125
10
19.492
20
1587.1596
10
15.583
20
1579.7285
10
11.8476
20
1572.4223
10
8.2823
20
1565.2441
10
4.8837
20
1558.1967
10
1.6482
20
1551.2832
10
-1.4278
20
1544.5062
10
-4.3478
20
1537.8686
10
-7.1157
20
1531.373
10
-9.735
20
1525.022
10
-12.2096
20
1518.8183
10
-14.5431
20
1512.7643
10
-16.7396
20
1506.8623
10
-18.8027
20
1501.1148
10
-20.7364
20
1495.5241
10
-22.5447
20
1490.0923
10
-24.2316
20
1484.8216
10
-25.8009
20
1479.714
10
-27.2568
20
1474.7715
10
-28.6033
20
1469.9961
10
-29.8445
20
1465.3897
10
-30.9845
20
1460.9539
10
-32.0275
20
1456.6906
10
-32.9776
20
1452.6012
10
-33.8391
20
1448.6875
10
-34.6162
20
1444.9508
10
-35.313
20
1441.3926
10
-35.9339
20
1438.0143
10
-36.4832
20
1434.817
10
-36.9651
20
1431.802
10
-37.384
20
1428.9704
10
-37.7442
20
1426.3231
10
-38.0501
20
1423.8613
10
-38.306
20
1421.5857
10
-38.5163
20
1419.4971
10
-38.6853
20
1417.5963
10
-38.8176
20
1415.8839
10
-38.9175
20
1414.3606
10
-38.9894
20
1413.0267
10
-39.0378
20
1411.8827
10
-39.067
20
1410.929
10
-39.0816
20
1410.1658
10
-39.0859
20
1409.5934
10
-39.0843
20
1409.2117
10
-38.4005
20
1384.4676
10
-144.7719
20
1377.4128
10
-147.3619
20
1402.0306
10
-147.4108
20
1402.4091
10
-147.4906
20
1402.976
10
-147.6058
20
1403.7305
10
-147.7607
20
1404.672
10
-147.9598
20
1405.7996
10
-148.2072
20
1407.1123
10
-148.5074
20
1408.6091
10
-148.8646
20
1410.289
10
-149.2833
20
1412.1508
10
-149.7675
20
1414.1933
10
-150.3217
20
1416.4152
10
-150.95
20
1418.8151
10
-151.6567
20
1421.3916
10
-152.4458
20
1424.1431
10
-153.3217
20
1427.0681
10
-154.2884
20
1430.1648
10
-155.35
20
1433.4316
10
-156.5107
20
1436.8666
10
-157.7744
20
1440.4679
10
-159.1452
20
1444.2336
10
-160.6271
20
1448.1616
10
-162.224
20
1452.2499
10
-163.9398
20
1456.4963
10
-165.7785
20
1460.8985
10
-167.7438
20
1465.4542
10
-169.8397
20
1470.1611
10
-172.0698
20
1475.0167
10
-174.4379
20
1480.0185
10
-176.9477
20
1485.1639
10
-179.6028
20
1490.4503
10
-182.4069
20
1495.875
10
-185.3635
20
1501.4352
10
-188.4762
20
1507.128
10
-191.7483
20
1512.9506
10
-195.1834
20
1518.9
10
-198.7849
20
1524.9732
10
-202.5559
20
1531.1671
10
-206.4999
20
1537.4784
10
-210.6201
20
1543.9042
10
-214.9197
20
1550.441
10
-219.4017
20
1557.0855
10
-224.0692
20
1563.8343
10
-228.9254
20
1570.6841
10
-233.973
20
1577.6313
10
-238.8232
20
1582.0757
10
-305.4173
20
1570.5796
10
-308.4966
20
1564.7664
10
-310.923
20
1556.5289
10
-313.2016
20
1548.4475
10
-315.3363
20
1540.5244
10
-317.3312
20
1532.7617
10
-319.1903
20
1525.1618
10
-320.9177
20
1517.7266
10
-322.5175
20
1510.4582
10
-323.9937
20
1503.3585
10
-325.3505
20
1496.4294
10
-326.5922
20
1489.6726
10
-327.7228
20
1483.09
10
-328.7467
20
1476.6831
10
-329.668
20
1470.4534
10
-330.4911
20
1464.4026
10
-331.2202
20
1458.532
10
-331.8597
20
1452.8429
10
-332.4138
20
1447.3366
10
-332.8869
20
1442.0144
10
-333.2834
20
1436.8772
10
-333.6076
20
1431.9262
10
-333.8639
20
1427.1624
10
-334.0568
20
1422.5865
10
-334.1906
20
1418.1995
10
-334.2698
20
1414.002
10
-334.2987
20
1409.9946
10
-334.2819
20
1406.1781
10
-334.2237
20
1402.5528
10
-334.1287
20
1399.1191
10
-334.0012
20
1395.8775
10
-333.8457
20
1392.8282
10
-333.6667
20
1389.9714
10
-333.4687
20
1387.3071
10
-333.256
20
1384.8354
10
-333.0332
20
1382.5563
10
-332.8046
20
1380.4697
10
-332.5748
20
1378.5753
10
-332.3482
20
1376.8728
10
-332.1292
20
1375.362
10
-331.9222
20
1374.0423
10
-331.7316
20
1372.9133
10
-331.5619
20
1371.9743
10
-331.4175
20
1371.2248
10
-331.3027
20
1370.664
10
-331.2218
20
1370.291
10
-325.4084
20
1346.2297
10
-427.9885
20
1317.2133
10
-435.6402
20
1340.7546
10
-435.7667
20
1341.1147
10
-435.9627
20
1341.6526
10
-436.2323
20
1342.3667
10
-436.5796
20
1343.2554
10
-437.0086
20
1344.3169
10
-437.5236
20
1345.5495
10
-438.1284
20
1346.9512
10
-438.8272
20
1348.5201
10
-439.6237
20
1350.2542
10
-440.5221
20
1352.1514
10
-441.5261
20
1354.2095
10
-442.6397
20
1356.4264
10
-443.8665
20
1358.7996
10
-445.2105
20
1361.3269
10
-446.6754
20
1364.0059
10
-448.2648
20
1366.8339
10
-449.9825
20
1369.8086
10
-451.8319
20
1372.9272
10
-453.8168
20
1376.1871
10
-455.9405
20
1379.5855
10
-458.2067
20
1383.1196
10
-460.6187
20
1386.7865
10
-463.1799
20
1390.5833
10
-465.8937
20
1394.507
10
-468.7633
20
1398.5546
10
-471.7919
20
1402.7229
10
-474.9828
20
1407.0087
10
-478.3391
20
1411.4089
10
-481.8639
20
1415.92
10
-485.5601
20
1420.5389
10
-489.4308
20
1425.262
10
-493.4788
20
1430.086
10
-497.707
20
1435.0073
10
-502.1183
20
1440.0223
10
-506.7153
20
1445.1275
10
-511.5007
20
1450.3192
10
-516.4771
20
1455.5936
10
-521.6472
20
1460.9471
10
-527.0133
20
1466.3758
10
-532.578
20
1471.8758
10
-538.3435
20
1477.4432
10
-544.3122
20
1483.0742
10
-550.4864
20
1488.7647
10
-556.8682
20
1494.5106
10
-562.5363
20
1497.8494
10
-625.285
20
1472.7589
10
-627.0885
20
1466.4324
10
-627.7491
20
1457.8705
10
-628.2977
20
1449.4919
10
-628.7385
20
1441.2981
10
-629.0758
20
1433.2903
10
-629.3142
20
1425.4699
10
-629.458
20
1417.8381
10
-629.5116
20
1410.3959
10
-629.4794
20
1403.1444
10
-629.366
20
1396.0846
10
-629.1757
20
1389.2174
10
-628.913
20
1382.5435
10
-628.5825
20
1376.0637
10
-628.1885
20
1369.7786
10
-627.7355
20
1363.6889
10
-627.2281
20
1357.795
10
-626.6708
20
1352.0973
10
-626.068
20
1346.5961
10
-625.4242
20
1341.2918
10
-624.7439
20
1336.1845
10
-624.0317
20
1331.2743
10
-623.292
20
1326.5612
10
-622.5292
20
1322.0453
10
-621.748
20
1317.7263
10
-620.9527
20
1313.604
10
-620.1479
20
1309.6783
10
-619.3379
20
1305.9486
10
-618.5273
20
1302.4146
10
-617.7204
20
1299.0758
10
-616.9217
20
1295.9315
10
-616.1357
20
1292.9811
10
-615.3666
20
1290.2239
10
-614.6189
20
1287.6591
10
-613.897
20
1285.2856
10
-613.2052
20
1283.1027
10
-612.5478
20
1281.1091
10
-611.9292
20
1279.3039
10
-611.3535
20
1277.6858
10
-610.8252
20
1276.2535
10
-610.3483
20
1275.0057
10
-609.9272
20
1273.9409
10
-609.566
20
1273.0578
10
-609.2689
20
1272.3547
10
-609.04
20
1271.83
10
-608.8834
20
1271.4819
10
-598.1943
20
1249.1551
10
-692.5
20
1199.4452
10
-704.879
20
1220.8812
10
-705.0776
20
1221.2071
10
-705.3811
20
1221.6925
10
-705.7933
20
1222.335
10
-706.3177
20
1223.132
10
-706.9582
20
1224.0812
10
-707.7181
20
1225.1797
10
-708.6012
20
1226.4251
10
-709.6108
20
1227.8144
10
-710.7505
20
1229.345
10
-712.0237
20
1231.014
10
-713.4337
20
1232.8184
10
-714.9838
20
1234.7552
10
-716.6773
20
1236.8215
10
-718.5174
20
1239.0142
10
-720.5072
20
1241.33
10
-722.6499
20
1243.7658
10
-724.9485
20
1246.3184
10
-727.4059
20
1248.9843
10
-730.0252
20
1251.7603
10
-732.8091
20
1254.6428
10
-735.7605
20
1257.6286
10
-738.8822
20
1260.7139
10
-742.1769
20
1263.8952
10
-745.6471
20
1267.169
10
-749.2955
20
1270.5315
10
-753.1246
20
1273.979
10
-757.1369
20
1277.5077
10
-761.3347
20
1281.1139
10
-765.7203
20
1284.7936
10
-770.2961
20
1288.5431
10
-775.0642
20
1292.3582
10
-780.0267
20
1296.2352
10
-785.1857
20
1300.1698
10
-790.5433
20
1304.1581
10
-796.1012
20
1308.196
10
-801.8615
20
1312.2793
10
-807.8258
20
1316.4038
10
-813.9959
20
1320.5654
10
-820.3735
20
1324.7597
10
-826.96
20
1328.9826
10
-833.7571
20
1333.2297
10
-840.7662
20
1337.4966
10
-847.9885
20
1341.779
10
-855.4255
20
1346.0725
10
-861.664
20
1348.1599
10
-917.8248
20
1310.5715
10
-918.2735
20
1304.0083
10
-917.1396
20
1295.4962
10
-915.9342
20
1287.1866
10
-914.6617
20
1279.0802
10
-913.3268
20
1271.1773
10
-911.9341
20
1263.4782
10
-910.4879
20
1255.9832
10
-908.9931
20
1248.6926
10
-907.4539
20
1241.6062
10
-905.8752
20
1234.7243
10
-904.2613
20
1228.0467
10
-902.6167
20
1221.5732
10
-900.9462
20
1215.3038
10
-899.254
20
1209.238
10
-897.5449
20
1203.3755
10
-895.8231
20
1197.7158
10
-894.0933
20
1192.2585
10
-892.3599
20
1187.0029
10
-890.6274
20
1181.9484
10
-888.9001
20
1177.0941
10
-887.1826
20
1172.4393
10
-885.4791
20
1167.983
10
-883.7942
20
1163.7243
10
-882.132
20
1159.6621
10
-880.497
20
1155.7953
10
-878.8936
20
1152.1227
10
-877.3259
20
1148.6429
10
-875.7982
20
1145.3547
10
-874.3148
20
1142.2566
10
-872.8798
20
1139.3471
10
-871.4975
20
1136.6246
10
-870.172
20
1134.0875
10
-868.9074
20
1131.7342
10
-867.7078
20
1129.5627
10
-866.5773
20
1127.5713
10
-865.5198
20
1125.758
10
-864.5393
20
1124.1208
10
-863.6398
20
1122.6577
10
-862.8252
20
1121.3666
10
-862.0994
20
1120.2452
10
-861.4661
20
1119.2913
10
-860.9291
20
1118.5025
10
-860.4923
20
1117.8766
10
-860.1593
20
1117.4109
10
-859.9337
20
1117.103
10
-844.8363
20
1097.4865
10
-926.7459
20
1029.2556
10
-943.3111
20
1047.6494
10
-943.5732
20
1047.9269
10
-943.971
20
1048.3386
10
-944.5077
20
1048.8813
10
-945.1865
20
1049.552
10
-946.0102
20
1050.3472
10
-946.982
20
1051.2638
10
-948.1047
20
1052.2983
10
-949.3811
20
1053.4473
10
-950.8141
20
1054.7075
10
-952.4065
20
1056.0753
10
-954.1608
20
1057.5471
10
-956.0797
20
1059.1194
10
-958.1659
20
1060.7884
10
-960.4216
20
1062.5506
10
-962.8494
20
1064.4021
10
-965.4517
20
1066.3392
10
-968.2308
20
1068.3581
10
-971.1888
20
1070.4548
10
-974.328
20
1072.6255
10
-977.6504
20
1074.8663
10
-981.1581
20
1077.1731
10
-984.853
20
1079.542
10
-988.7371
20
1081.9688
10
-992.8122
20
1084.4495
10
-997.08
20
1086.98
10
-1001.5422
20
1089.556
10
-1006.2004
20
1092.1735
10
-1011.0562
20
1094.8281
10
-1016.1111
20
1097.5156
10
-1021.3664
20
1100.2317
10
-1026.8236
20
1102.9722
10
-1032.4837
20
1105.7326
10
-1038.3481
20
1108.5087
10
-1044.4177
20
1111.2959
10
-1050.6938
20
1114.09
10
-1057.1771
20
1116.8864
10
-1063.8686
20
1119.6808
10
-1070.7691
20
1122.4686
10
-1077.8794
20
1125.2453
10
-1085.2
20
1128.0065
10
-1092.7316
20
1130.7475
10
-1100.4746
20
1133.464
10
-1108.4295
20
1136.1512
10
-1116.5966
20
1138.8047
10
-1123.1328
20
1139.5494
10
-1170.2513
20
1091.1058
10
-1169.3256
20
1084.5928
10
-1166.4467
20
1076.5024
10
-1163.54
20
1068.6251
10
-1160.6099
20
1060.9604
10
-1157.6611
20
1053.5077
10
-1154.698
20
1046.2664
10
-1151.7252
20
1039.2359
10
-1148.7472
20
1032.4153
10
-1145.7683
20
1025.8039
10
-1142.7932
20
1019.4006
10
-1139.8262
20
1013.2044
10
-1136.8718
20
1007.2144
10
-1133.9342
20
1001.4292
10
-1131.0179
20
995.8478
10
-1128.1272
20
990.4688
10
-1125.2664
20
985.2908
10
-1122.4397
20
980.3123
10
-1119.6515
20
975.532
10
-1116.9059
20
970.9481
10
-1114.2072
20
966.559
10
-1111.5594
20
962.363
10
-1108.9666
20
958.3583
10
-1106.433
20
954.543
10
-1103.9626
20
950.9152
10
-1101.5594
20
947.4728
10
-1099.2274
20
944.2138
10
-1096.9705
20
941.136
10
-1094.7925
20
938.2372
10
-1092.6974
20
935.5153
10
-1090.6889
20
932.9677
10
-1088.7707
20
930.5921
10
-1086.9467
20
928.3861
10
-1085.2205
20
926.347
10
-1083.5956
20
924.4724
10
-1082.0757
20
922.7596
10
-1080.6643
20
921.2058
10
-1079.3649
20
919.8082
10
-1078.1809
20
918.5641
10
-1077.1156
20
917.4706
10
-1076.1725
20
916.5246
10
-1075.3547
20
915.7232
10
-1074.6655
20
915.0633
10
-1074.1081
20
914.5419
10
-1073.6856
20
914.1556
10
-1073.4009
20
913.9014
10
-1054.5549
20
897.8525
10
-1120.4885
20
814.0826
10
-1140.5161
20
828.6304
10
-1140.8301
20
828.8473
10
-1141.3048
20
829.1673
10
-1141.9427
20
829.5866
10
-1142.746
20
830.1014
10
-1143.7171
20
830.708
10
-1144.8582
20
831.4025
10
-1146.1714
20
832.181
10
-1147.6589
20
833.0396
10
-1149.3226
20
833.9743
10
-1151.1645
20
834.9811
10
-1153.1865
20
836.056
10
-1155.3904
20
837.1949
10
-1157.7779
20
838.3938
10
-1160.3508
20
839.6484
10
-1163.1105
20
840.9547
10
-1166.0587
20
842.3084
10
-1169.1967
20
843.7054
10
-1172.526
20
845.1413
10
-1176.0479
20
846.6119
10
-1179.7636
20
848.113
10
-1183.6743
20
849.6401
10
-1187.781
20
851.189
10
-1192.0848
20
852.7552
10
-1196.5866
20
854.3345
10
-1201.2872
20
855.9223
10
-1206.1875
20
857.5143
10
-1211.2882
20
859.106
10
-1216.5898
20
860.6931
10
-1222.093
20
862.2709
10
-1227.7982
20
863.835
10
-1233.7058
20
865.381
10
-1239.8162
20
866.9043
10
-1246.1296
20
868.4004
10
-1252.6461
20
869.8648
10
-1259.3659
20
871.2929
10
-1266.289
20
872.6803
10
-1273.4152
20
874.0223
10
-1280.7446
20
875.3145
10
-1288.2768
20
876.5523
10
-1296.0115
20
877.7311
10
-1303.9484
20
878.8463
10
-1312.087
20
879.8935
10
-1320.4268
20
880.8681
10
-1328.9671
20
881.7656
10
-1335.5152
20
881.1351
10
-1371.5321
20
823.9536
10
-1369.2726
20
817.7754
10
-1364.7745
20
810.4603
10
-1360.2935
20
803.3595
10
-1355.8339
20
796.4715
10
-1351.4
20
789.7947
10
-1346.9961
20
783.3278
10
-1342.6265
20
777.069
10
-1338.2955
20
771.0166
10
-1334.0072
20
765.169
10
-1329.7657
20
759.5241
10
-1325.5753
20
754.0803
10
-1321.44
20
748.8354
10
-1317.3639
20
743.7874
10
-1313.3508
20
738.9343
10
-1309.4049
20
734.2738
10
-1305.5301
20
729.8038
10
-1301.7301
20
725.5218
10
-1298.009
20
721.4256
10
-1294.3703
20
717.5128
10
-1290.818
20
713.7807
10
-1287.3556
20
710.2269
10
-1283.9869
20
706.8488
10
-1280.7155
20
703.6436
10
-1277.5448
20
700.6086
10
-1274.4784
20
697.7411
10
-1271.5197
20
695.0382
10
-1268.6722
20
692.4969
10
-1265.9392
20
690.1143
10
-1263.3239
20
687.8874
10
-1260.8296
20
685.8131
10
-1258.4595
20
683.8883
10
-1256.2166
20
682.1097
10
-1254.1042
20
680.4741
10
-1252.1251
20
678.9783
10
-1250.2823
20
677.6189
10
-1248.5787
20
676.3925
10
-1247.0171
20
675.2957
10
-1245.6003
20
674.3249
10
-1244.3309
20
673.4767
10
-1243.2117
20
672.7475
10
-1242.2452
20
672.1336
10
-1241.4339
20
671.6315
10
-1240.7802
20
671.2373
10
-1240.2866
20
670.9473
10
-1239.9553
20
670.7578
10
-1218.1843
20
658.978
10
-1265.2605
20
563.3303
10
-1287.875
20
573.3962
10
-1288.2273
20
573.5431
10
-1288.7581
20
573.7574
10
-1289.4692
20
574.0349
10
-1290.362
20
574.3715
10
-1291.438
20
574.7629
10
-1292.6986
20
575.205
10
-1294.145
20
575.6934
10
-1295.7784
20
576.2239
10
-1297.6001
20
576.7923
10
-1299.6111
20
577.3942
10
-1301.8124
20
578.0252
10
-1304.205
20
578.681
10
-1306.7896
20
579.3573
10
-1309.5671
20
580.0496
10
-1312.5381
20
580.7535
10
-1315.7033
20
581.4647
10
-1319.0632
20
582.1787
10
-1322.6183
20
582.8911
10
-1326.369
20
583.5973
10
-1330.3156
20
584.293
10
-1334.4583
20
584.9737
10
-1338.7973
20
585.6349
10
-1343.3327
20
586.2721
10
-1348.0644
20
586.8809
10
-1352.9925
20
587.4567
10
-1358.1167
20
587.9951
10
-1363.4368
20
588.4915
10
-1368.9525
20
588.9416
10
-1374.6635
20
589.3408
10
-1380.5692
20
589.6846
10
-1386.6692
20
589.9685
10
-1392.9628
20
590.1881
10
-1399.4492
20
590.3389
10
-1406.1278
20
590.4164
10
-1412.9977
20
590.4162
10
-1420.058
20
590.3339
10
-1427.3075
20
590.1649
10
-1434.7454
20
589.905
10
-1442.3703
20
589.5497
10
-1450.1811
20
589.0946
10
-1458.1764
20
588.5353
10
-1466.3549
20
587.8675
10
-1474.715
20
587.0869
10
-1483.2553
20
586.1891
10
-1489.5293
20
584.2109
10
-1512.8705
20
520.7907
10
-1509.3758
20
515.2173
10
-1503.4551
20
508.9973
10
-1497.5957
20
502.9832
10
-1491.8014
20
497.1729
10
-1486.0762
20
491.564
10
-1480.424
20
486.154
10
-1474.8486
20
480.9404
10
-1469.3539
20
475.9208
10
-1463.9435
20
471.0925
10
-1458.6211
20
466.4529
10
-1453.3904
20
461.9992
10
-1448.255
20
457.7287
10
-1443.2184
20
453.6385
10
-1438.284
20
449.7258
10
-1433.4554
20
445.9876
10
-1428.7358
20
442.4208
10
-1424.1287
20
439.0225
10
-1419.6372
20
435.7895
10
-1415.2645
20
432.7187
10
-1411.0139
20
429.8067
10
-1406.8883
20
427.0505
10
-1402.8909
20
424.4465
10
-1399.0245
20
421.9916
10
-1395.2921
20
419.6822
10
-1391.6965
20
417.5149
10
-1388.2405
20
415.4861
10
-1384.9269
20
413.5924
10
-1381.7582
20
411.8301
10
-1378.7371
20
410.1956
10
-1375.866
20
408.6853
10
-1373.1475
20
407.2952
10
-1370.5839
20
406.0218
10
-1368.1775
20
404.8612
10
-1365.9307
20
403.8096
10
-1363.8455
20
402.863
10
-1361.9241
20
402.0176
10
-1360.1686
20
401.2694
10
-1358.5809
20
400.6144
10
-1357.163
20
400.0487
10
-1355.9166
20
399.5681
10
-1354.8436
20
399.1686
10
-1353.9456
20
398.8461
10
-1353.2243
20
398.5964
10
-1352.6811
20
398.4154
10
-1352.3177
20
398.299
10
-1328.5733
20
391.3029
10
-1354.7344
20
287.9577
10
-1378.9476
20
293.1018
10
-1379.3227
20
293.1723
10
-1379.8865
20
293.2715
10
-1380.6398
20
293.3951
10
-1381.5831
20
293.5387
10
-1382.7169
20
293.6979
10
-1384.0418
20
293.8682
10
-1385.5582
20
294.0452
10
-1387.2663
20
294.2246
10
-1389.1663
20
294.4018
10
-1391.2585
20
294.5724
10
-1393.5429
20
294.7319
10
-1396.0195
20
294.876
10
-1398.6882
20
295.0001
10
-1401.549
20
295.0998
10
-1404.6014
20
295.1707
10
-1407.8453
20
295.2082
10
-1411.2803
20
295.2081
10
-1414.9058
20
295.1657
10
-1418.7213
20
295.0767
10
-1422.7263
20
294.9366
10
-1426.92
20
294.7411
10
-1431.3017
20
294.4857
10
-1435.8704
20
294.1661
10
-1440.6254
20
293.7778
10
-1445.5654
20
293.3164
10
-1450.6896
20
292.7776
10
-1455.9967
20
292.1571
10
-1461.4855
20
291.4506
10
-1467.1547
20
290.6536
10
-1473.0028
20
289.762
10
-1479.0285
20
288.7715
10
-1485.2302
20
287.6778
10
-1491.6063
20
286.4767
10
-1498.155
20
285.164
10
-1504.8748
20
283.7354
10
-1511.7636
20
282.187
10
-1518.8196
20
280.5145
10
-1526.0409
20
278.7138
10
-1533.4253
20
276.781
10
-1540.9708
20
274.7119
10
-1548.6751
20
272.5025
10
-1556.536
20
270.1489
10
-1564.5512
20
267.6471
10
-1572.7182
20
264.9933
10
-1578.4438
20
261.754
10
-1588.0891
20
194.8667
10
-1583.512
20
190.1417
10
-1576.4275
20
185.2886
10
-1569.4457
20
180.6242
10
-1562.57
20
176.1456
10
-1555.8038
20
171.8495
10
-1549.1503
20
167.7329
10
-1542.6128
20
163.7924
10
-1536.1945
20
160.0249
10
-1529.8984
20
156.427
10
-1523.7278
20
152.9954
10
-1517.6854
20
149.7265
10
-1511.7743
20
146.6171
10
-1505.9974
20
143.6635
10
-1500.3573
20
140.8622
10
-1494.857
20
138.2095
10
-1489.499
20
135.702
10
-1484.286
20
133.3358
10
-1479.2204
20
131.1073
10
-1474.3049
20
129.0127
10
-1469.5417
20
127.0481
10
-1464.9332
20
125.2099
10
-1460.4817
20
123.494
10
-1456.1894
20
121.8965
10
-1452.0584
20
120.4136
10
-1448.0908
20
119.0412
10
-1444.2886
20
117.7753
10
-1440.6536
20
116.6119
10
-1437.1878
20
115.547
10
-1433.8928
20
114.5763
10
-1430.7705
20
113.6959
10
-1427.8223
20
112.9014
10
-1425.05
20
112.1889
10
-1422.4549
20
111.5539
10
-1420.0385
20
110.9924
10
-1417.8021
20
110.5
10
-1415.747
20
110.0726
10
-1413.8743
20
109.7057
10
-1412.1851
20
109.3952
10
-1410.6805
20
109.1366
10
-1409.3615
20
108.9257
10
-1408.2288
20
108.758
10
-1407.2834
20
108.6292
10
-1406.5259
20
108.535
10
-1405.957
20
108.4709
10
-1405.5773
20
108.4325
10
-1380.8972
20
106.5261
10
-1385
20
0
10
-1409.7536
20
-0.0025
10
-1410.1352
20
-0.0116
10
-1410.7073
20
-0.0317
10
-1411.4698
20
-0.0674
10
-1412.4223
20
-0.1231
10
-1413.5645
20
-0.2031
10
-1414.8958
20
-0.312
10
-1416.4159
20
-0.4541
10
-1418.1239
20
-0.6338
10
-1420.0193
20
-0.8555
10
-1422.1012
20
-1.1236
10
-1424.3689
20
-1.4425
10
-1426.8213
20
-1.8165
10
-1429.4575
20
-2.25
10
-1432.2765
20
-2.7472
10
-1435.2769
20
-3.3126
10
-1438.4578
20
-3.9503
10
-1441.8176
20
-4.6646
10
-1445.3551
20
-5.4598
10
-1449.0688
20
-6.3402
10
-1452.9571
20
-7.3099
10
-1457.0185
20
-8.373
10
-1461.2513
20
-9.5338
10
-1465.6538
20
-10.7964
10
-1470.2241
20
-12.1648
10
-1474.9603
20
-13.6432
10
-1479.8605
20
-15.2356
10
-1484.9226
20
-16.9459
10
-1490.1445
20
-18.7782
10
-1495.5241
20
-20.7364
10
-1501.0591
20
-22.8245
10
-1506.7472
20
-25.0462
10
-1512.5859
20
-27.4054
10
-1518.5729
20
-29.9059
10
-1524.7057
20
-32.5515
10
-1530.9816
20
-35.3459
10
-1537.3979
20
-38.2928
10
-1543.952
20
-41.3958
10
-1550.6411
20
-44.6585
10
-1557.4623
20
-48.0844
10
-1564.4127
20
-51.6771
10
-1571.4893
20
-55.44
10
-1578.6891
20
-59.3766
10
-1586.009
20
-63.4901
10
-1593.4458
20
-67.7839
10
-1598.3727
20
-72.1429
10
-1593.9006
20
-139.5739
10
-1588.4411
20
-143.244
10
-1580.5024
20
-146.5181
10
-1572.7034
20
-149.629
10
-1565.0468
20
-152.5802
10
-1557.5352
20
-155.3756
10
-1550.1713
20
-158.019
10
-1542.9574
20
-160.5141
10
-1535.896
20
-162.8648
10
-1528.9895
20
-165.0751
10
-1522.2402
20
-167.1488
10
-1515.6502
20
-169.0899
10
-1509.2218
20
-170.9024
10
-1502.957
20
-172.5904
10
-1496.8578
20
-174.1579
10
-1490.9262
20
-175.6089
10
-1485.1639
20
-176.9477
10
-1479.5728
20
-178.1783
10
-1474.1547
20
-179.3049
10
-1468.911
20
-180.3318
10
-1463.8435
20
-181.2631
10
-1458.9535
20
-182.103
10
-1454.2425
20
-182.8559
10
-1449.7119
20
-183.526
10
-1445.3629
20
-184.1177
10
-1441.1966
20
-184.6352
10
-1437.2143
20
-185.0828
10
-1433.4169
20
-185.465
10
-1429.8053
20
-185.7861
10
-1426.3806
20
-186.0505
10
-1423.1434
20
-186.2626
10
-1420.0945
20
-186.4267
10
-1417.2346
20
-186.5473
10
-1414.5642
20
-186.6288
10
-1412.0839
20
-186.6757
10
-1409.794
20
-186.6923
10
-1407.6949
20
-186.6831
10
-1405.7868
20
-186.6526
10
-1404.07
20
-186.6052
10
-1402.5445
20
-186.5453
10
-1401.2105
20
-186.4773
10
-1400.0677
20
-186.4059
10
-1399.1162
20
-186.3352
10
-1398.3557
20
-186.2699
10
-1397.7859
20
-186.2144
10
-1397.4065
20
-186.173
10
-1372.8693
20
-182.9064
10
-1354.7344
20
-287.9577
10
-1378.9466
20
-293.1067
10
-1379.3179
20
-293.1949
10
-1379.8734
20
-293.3336
10
-1380.6118
20
-293.527
10
-1381.5319
20
-293.7795
10
-1382.6325
20
-294.0953
10
-1383.9121
20
-294.4786
10
-1385.3694
20
-294.9336
10
-1387.0027
20
-295.4645
10
-1388.8106
20
-296.0754
10
-1390.7913
20
-296.7706
10
-1392.9431
20
-297.5539
10
-1395.2642
20
-298.4297
10
-1397.7526
20
-299.4018
10
-1400.4066
20
-300.4742
10
-1403.224
20
-301.651
10
-1406.2027
20
-302.9361
10
-1409.3406
20
-304.3334
10
-1412.6354
20
-305.8468
10
-1416.0849
20
-307.48
10
-1419.6867
20
-309.2369
10
-1423.4383
20
-311.1212
10
-1427.3373
20
-313.1367
10
-1431.381
20
-315.287
10
-1435.5669
20
-317.5758
10
-1439.8923
20
-320.0066
10
-1444.3543
20
-322.5829
10
-1448.9502
20
-325.3084
10
-1453.6771
20
-328.1863
10
-1458.532
20
-331.2202
10
-1463.5119
20
-334.4134
10
-1468.6137
20
-337.7692
10
-1473.8344
20
-341.2908
10
-1479.1707
20
-344.9815
10
-1484.6194
20
-348.8443
10
-1490.1771
20
-352.8825
10
-1495.8406
20
-357.099
10
-1501.6063
20
-361.4969
10
-1507.4709
20
-366.079
10
-1513.4307
20
-370.8483
10
-1519.4823
20
-375.8075
10
-1525.6219
20
-380.9595
10
-1531.8459
20
-386.307
10
-1538.1505
20
-391.8525
10
-1544.5321
20
-397.5987
10
-1548.4451
20
-402.8868
10
-1530.051
20
-467.9144
10
-1523.9478
20
-470.3693
10
-1515.5018
20
-471.9213
10
-1507.2265
20
-473.3426
10
-1499.1236
20
-474.6375
10
-1491.195
20
-475.8101
10
-1483.4423
20
-476.8646
10
-1475.8673
20
-477.8053
10
-1468.4715
20
-478.6365
10
-1461.2564
20
-479.3626
10
-1454.2234
20
-479.9877
10
-1447.3739
20
-480.5163
10
-1440.7091
20
-480.9526
10
-1434.2302
20
-481.3012
10
-1427.9384
20
-481.5663
10
-1421.8347
20
-481.7524
10
-1415.92
20
-481.8639
10
-1410.1953
20
-481.9052
10
-1404.6613
20
-481.8807
10
-1399.3187
20
-481.7949
10
-1394.1683
20
-481.6522
10
-1389.2105
20
-481.4571
10
-1384.446
20
-481.2141
10
-1379.875
20
-480.9276
10
-1375.498
20
-480.6021
10
-1371.3152
20
-480.2421
10
-1367.3268
20
-479.852
10
-1363.5329
20
-479.4363
10
-1359.9335
20
-478.9995
10
-1356.5287
20
-478.5461
10
-1353.3181
20
-478.0804
10
-1350.3018
20
-477.6071
10
-1347.4793
20
-477.1304
10
-1344.8503
20
-476.655
10
-1342.4144
20
-476.1851
10
-1340.1711
20
-475.7253
10
-1338.1198
20
-475.2799
10
-1336.2598
20
-474.8533
10
-1334.5903
20
-474.45
10
-1333.1106
20
-474.0742
10
-1331.8198
20
-473.7304
10
-1330.7169
20
-473.4229
10
-1329.8009
20
-473.156
10
-1329.0705
20
-472.934
10
-1328.5248
20
-472.7612
10
-1328.1622
20
-472.6418
10
-1304.8405
20
-464.3451
10
-1265.2605
20
-563.3303
10
-1287.873
20
-573.4007
10
-1288.2179
20
-573.5642
10
-1288.7323
20
-573.8153
10
-1289.4144
20
-574.1581
10
-1290.2619
20
-574.5964
10
-1291.2728
20
-575.1341
10
-1292.4448
20
-575.775
10
-1293.7756
20
-576.5231
10
-1295.2629
20
-577.382
10
-1296.9042
20
-578.3554
10
-1298.6971
20
-579.4472
10
-1300.639
20
-580.6608
10
-1302.7273
20
-582
10
-1304.9593
20
-583.4682
10
-1307.3322
20
-585.069
10
-1309.8434
20
-586.8059
10
-1312.4898
20
-588.6822
10
-1315.2687
20
-590.7014
10
-1318.1769
20
-592.8667
10
-1321.2114
20
-595.1814
10
-1324.3692
20
-597.6488
10
-1327.6471
20
-600.272
10
-1331.0418
20
-603.054
10
-1334.5501
20
-605.9981
10
-1338.1686
20
-609.1071
10
-1341.8941
20
-612.3841
10
-1345.7229
20
-615.8319
10
-1349.6517
20
-619.4533
10
-1353.677
20
-623.2511
10
-1357.795
20
-627.2281
10
-1362.0022
20
-631.3869
10
-1366.2948
20
-635.7301
10
-1370.6692
20
-640.2602
10
-1375.1216
20
-644.9797
10
-1379.6481
20
-649.891
10
-1384.2448
20
-654.9964
10
-1388.9078
20
-660.2983
10
-1393.6332
20
-665.7988
10
-1398.4169
20
-671.5001
10
-1403.2549
20
-677.4043
10
-1408.1431
20
-683.5133
10
-1413.0774
20
-689.8293
10
-1418.0536
20
-696.3539
10
-1423.0676
20
-703.089
10
-1428.1149
20
-710.0365
10
-1430.843
20
-716.0226
10
-1399.3308
20
-775.8049
10
-1392.8506
20
-776.9371
10
-1384.2665
20
-776.6992
10
-1375.8765
20
-776.369
10
-1367.6814
20
-775.9508
10
-1359.6823
20
-775.4493
10
-1351.8798
20
-774.869
10
-1344.2747
20
-774.2142
10
-1336.8677
20
-773.4896
10
-1329.6593
20
-772.6996
10
-1322.6501
20
-771.8489
10
-1315.8403
20
-770.9418
10
-1309.2305
20
-769.9829
10
-1302.8207
20
-768.9769
10
-1296.6113
20
-767.928
10
-1290.6022
20
-766.841
10
-1284.7936
20
-765.7203
10
-1279.1854
20
-764.5705
10
-1273.7774
20
-763.3959
10
-1268.5694
20
-762.2012
10
-1263.5612
20
-760.9908
10
-1258.7524
20
-759.7692
10
-1254.1425
20
-758.5409
10
-1249.731
20
-757.3103
10
-1245.5173
20
-756.0819
10
-1241.5007
20
-754.8601
10
-1237.6806
20
-753.6493
10
-1234.056
20
-752.4539
10
-1230.6261
20
-751.2783
10
-1227.3899
20
-750.1268
10
-1224.3464
20
-749.0039
10
-1221.4943
20
-747.9137
10
-1218.8326
20
-746.8607
10
-1216.36
20
-745.849
10
-1214.075
20
-744.883
10
-1211.9763
20
-743.9668
10
-1210.0624
20
-743.1046
10
-1208.3317
20
-742.3006
10
-1206.7826
20
-741.559
10
-1205.4134
20
-740.8838
10
-1204.2223
20
-740.2792
10
-1203.2074
20
-739.7491
10
-1202.3669
20
-739.2975
10
-1201.6987
20
-738.9285
10
-1201.2007
20
-738.646
10
-1200.871
20
-738.4539
10
-1179.7838
20
-725.4896
10
-1120.4885
20
-814.0826
10
-1140.5132
20
-828.6344
10
-1140.8165
20
-828.866
10
-1141.2675
20
-829.2186
10
-1141.8634
20
-829.6957
10
-1142.6013
20
-830.3006
10
-1143.4783
20
-831.0367
10
-1144.4914
20
-831.9073
10
-1145.6376
20
-832.9157
10
-1146.9138
20
-834.0651
10
-1148.3169
20
-835.3585
10
-1149.8436
20
-836.7992
10
-1151.4907
20
-838.39
10
-1153.2549
20
-840.1341
10
-1155.1329
20
-842.0343
10
-1157.1212
20
-844.0935
10
-1159.2164
20
-846.3145
10
-1161.4149
20
-848.7001
10
-1163.7132
20
-851.2529
10
-1166.1076
20
-853.9755
10
-1168.5946
20
-856.8706
10
-1171.1704
20
-859.9406
10
-1173.8312
20
-863.1879
10
-1176.5733
20
-866.615
10
-1179.3929
20
-870.2242
10
-1182.2859
20
-874.0176
10
-1185.2486
20
-877.9975
10
-1188.277
20
-882.166
10
-1191.367
20
-886.5251
10
-1194.5147
20
-891.0769
10
-1197.7158
20
-895.8231
10
-1200.9664
20
-900.7658
10
-1204.2623
20
-905.9065
10
-1207.5992
20
-911.2471
10
-1210.9731
20
-916.7892
10
-1214.3795
20
-922.5342
10
-1217.8143
20
-928.4838
10
-1221.2731
20
-934.6393
10
-1224.7516
20
-941.0021
10
-1228.2454
20
-947.5734
10
-1231.7502
20
-954.3545
10
-1235.2614
20
-961.3464
10
-1238.7747
20
-968.5502
10
-1242.2857
20
-975.9668
10
-1245.7897
20
-983.5972
10
-1249.2823
20
-991.4423
10
-1250.7062
20
-997.8648
10
-1207.4532
20
-1049.7889
10
-1200.8791
20
-1049.5491
10
-1192.5321
20
-1047.5317
10
-1184.3941
20
-1045.4643
10
-1176.4651
20
-1043.3514
10
-1168.745
20
-1041.1978
10
-1161.2337
20
-1039.0078
10
-1153.9309
20
-1036.7862
10
-1146.8364
20
-1034.5374
10
-1139.9498
20
-1032.266
10
-1133.2706
20
-1029.9765
10
-1126.7983
20
-1027.6734
10
-1120.5322
20
-1025.3613
10
-1114.4717
20
-1023.0445
10
-1108.616
20
-1020.7276
10
-1102.9643
20
-1018.415
10
-1097.5156
20
-1016.1111
10
-1092.269
20
-1013.8204
10
-1087.2234
20
-1011.5471
10
-1082.3776
20
-1009.2957
10
-1077.7305
20
-1007.0705
10
-1073.2807
20
-1004.8758
10
-1069.0269
20
-1002.7159
10
-1064.9677
20
-1000.595
10
-1061.1015
20
-998.5173
10
-1057.4267
20
-996.4871
10
-1053.9418
20
-994.5085
10
-1050.645
20
-992.5856
10
-1047.5345
20
-990.7226
10
-1044.6084
20
-988.9235
10
-1041.8648
20
-987.1923
10
-1039.3018
20
-985.533
10
-1036.9171
20
-983.9495
10
-1034.7088
20
-982.4459
10
-1032.6747
20
-981.0259
10
-1030.8123
20
-979.6934
10
-1029.1195
20
-978.4521
10
-1027.5938
20
-977.3059
10
-1026.2327
20
-976.2584
10
-1025.0338
20
-975.3133
10
-1023.9944
20
-974.4742
10
-1023.112
20
-973.7447
10
-1022.3837
20
-973.1282
10
-1021.8068
20
-972.6284
10
-1021.3785
20
-972.2485
10
-1021.0959
20
-971.992
10
-1003.1649
20
-954.9268
10
-926.7459
20
-1029.2556
10
-943.3074
20
-1047.6528
10
-943.556
20
-1047.9424
10
-943.9238
20
-1048.3811
10
-944.4075
20
-1048.9716
10
-945.0035
20
-1049.7167
10
-945.7083
20
-1050.6191
10
-946.5182
20
-1051.6813
10
-947.4297
20
-1052.906
10
-948.4391
20
-1054.2955
10
-949.5426
20
-1055.8524
10
-950.7364
20
-1057.579
10
-952.0168
20
-1059.4776
10
-953.3799
20
-1061.5504
10
-954.8217
20
-1063.7995
10
-956.3384
20
-1066.2271
10
-957.926
20
-1068.8352
10
-959.5805
20
-1071.6257
10
-961.2978
20
-1074.6005
10
-963.0739
20
-1077.7615
10
-964.9046
20
-1081.1104
10
-966.7858
20
-1084.6488
10
-968.7133
20
-1088.3784
10
-970.683
20
-1092.3007
10
-972.6905
20
-1096.4172
10
-974.7317
20
-1100.7293
10
-976.8022
20
-1105.2382
10
-978.8977
20
-1109.9452
10
-981.0139
20
-1114.8516
10
-983.1464
20
-1119.9583
10
-985.2908
20
-1125.2664
10
-987.4427
20
-1130.7768
10
-989.5977
20
-1136.4905
10
-991.7514
20
-1142.4082
10
-993.8992
20
-1148.5306
10
-996.0368
20
-1154.8584
10
-998.1595
20
-1161.3921
10
-1000.2629
20
-1168.1322
10
-1002.3425
20
-1175.0791
10
-1004.3937
20
-1182.2333
10
-1006.412
20
-1189.5948
10
-1008.3928
20
-1197.1639
10
-1010.3316
20
-1204.9408
10
-1012.2238
20
-1212.9253
10
-1014.0648
20
-1221.1175
10
-1015.85
20
-1229.5173
10
-1015.9075
20
-1236.0955
10
-962.8041
20
-1277.8921
10
-956.4235
20
-1276.2908
10
-948.6783
20
-1272.582
10
-941.148
20
-1268.8677
10
-933.8315
20
-1265.1525
10
-926.7279
20
-1261.4408
10
-919.8361
20
-1257.7371
10
-913.1548
20
-1254.0457
10
-906.6829
20
-1250.371
10
-900.419
20
-1246.7174
10
-894.3618
20
-1243.0893
10
-888.5097
20
-1239.4908
10
-882.8613
20
-1235.9264
10
-877.4149
20
-1232.4002
10
-872.1689
20
-1228.9165
10
-867.1215
20
-1225.4794
10
-862.2709
20
-1222.093
10
-857.6152
20
-1218.7614
10
-853.1525
20
-1215.4888
10
-848.8807
20
-1212.2791
10
-844.7978
20
-1209.1364
10
-840.9015
20
-1206.0644
10
-837.1898
20
-1203.0673
10
-833.6602
20
-1200.1488
10
-830.3104
20
-1197.3127
10
-827.1381
20
-1194.5628
10
-824.1407
20
-1191.9029
10
-821.3157
20
-1189.3366
10
-818.6605
20
-1186.8676
10
-816.1724
20
-1184.4994
10
-813.8487
20
-1182.2356
10
-811.6867
20
-1180.0797
10
-809.6834
20
-1178.0351
10
-807.836
20
-1176.1052
10
-806.1415
20
-1174.2932
10
-804.5969
20
-1172.6026
10
-803.1991
20
-1171.0366
10
-801.9451
20
-1169.5982
10
-800.8316
20
-1168.2906
10
-799.8553
20
-1167.1169
10
-799.0131
20
-1166.08
10
-798.3016
20
-1165.1829
10
-797.7174
20
-1164.4286
10
-797.257
20
-1163.8197
10
-796.9171
20
-1163.3591
10
-796.694
20
-1163.0494
10
-782.7029
20
-1142.629
10
-692.5
20
-1199.4452
10
-704.8746
20
-1220.8837
10
-705.0576
20
-1221.2186
10
-705.3262
20
-1221.7242
10
-705.6765
20
-1222.4024
10
-706.1045
20
-1223.2551
10
-706.6063
20
-1224.2843
10
-707.1777
20
-1225.4917
10
-707.8147
20
-1226.8792
10
-708.5131
20
-1228.4482
10
-709.2687
20
-1230.2005
10
-710.0775
20
-1232.1376
10
-710.9352
20
-1234.2609
10
-711.8375
20
-1236.5718
10
-712.7802
20
-1239.0715
10
-713.7591
20
-1241.7614
10
-714.7697
20
-1244.6426
10
-715.8078
20
-1247.7161
10
-716.8691
20
-1250.983
10
-717.9492
20
-1254.4441
10
-719.0436
20
-1258.1005
10
-720.148
20
-1261.9527
10
-721.258
20
-1266.0016
10
-722.3691
20
-1270.2477
10
-723.4769
20
-1274.6916
10
-724.577
20
-1279.3338
10
-725.6648
20
-1284.1747
10
-726.7358
20
-1289.2145
10
-727.7857
20
-1294.4536
10
-728.8098
20
-1299.8921
10
-729.8038
20
-1305.5301
10
-730.763
20
-1311.3675
10
-731.683
20
-1317.4044
10
-732.5592
20
-1323.6405
10
-733.3872
20
-1330.0757
10
-734.1624
20
-1336.7096
10
-734.8803
20
-1343.5419
10
-735.5364
20
-1350.572
10
-736.1262
20
-1357.7996
10
-736.6452
20
-1365.2238
10
-737.0888
20
-1372.8441
10
-737.4527
20
-1380.6597
10
-737.7322
20
-1388.6697
10
-737.923
20
-1396.8732
10
-738.0205
20
-1405.2691
10
-738.0203
20
-1413.8565
10
-736.7088
20
-1420.3029
10
-676.0758
20
-1450.1454
10
-670.1676
20
-1447.2524
10
-663.3628
20
-1442.0143
10
-656.7692
20
-1436.8156
10
-650.3851
20
-1431.6604
10
-644.2084
20
-1426.5529
10
-638.2372
20
-1421.4972
10
-632.4694
20
-1416.4973
10
-626.9029
20
-1411.5574
10
-621.5356
20
-1406.6813
10
-616.365
20
-1401.873
10
-611.389
20
-1397.1365
10
-606.6051
20
-1392.4756
10
-602.0109
20
-1387.8941
10
-597.6038
20
-1383.3958
10
-593.3813
20
-1378.9844
10
-589.3408
20
-1374.6635
10
-585.4795
20
-1370.4368
10
-581.7947
20
-1366.3078
10
-578.2836
20
-1362.2801
10
-574.9433
20
-1358.3572
10
-571.7709
20
-1354.5423
10
-568.7634
20
-1350.8389
10
-565.9177
20
-1347.2503
10
-563.2308
20
-1343.7798
10
-560.6996
20
-1340.4305
10
-558.3207
20
-1337.2055
10
-556.091
20
-1334.1079
10
-554.0072
20
-1331.1408
10
-552.0658
20
-1328.3071
10
-550.2636
20
-1325.6096
10
-548.597
20
-1323.0513
10
-547.0626
20
-1320.6348
10
-545.6568
20
-1318.363
10
-544.3761
20
-1316.2384
10
-543.2167
20
-1314.2636
10
-542.1751
20
-1312.4411
10
-541.2475
20
-1310.7734
10
-540.4302
20
-1309.2629
10
-539.7193
20
-1307.9118
10
-539.1111
20
-1306.7225
10
-538.6016
20
-1305.6971
10
-538.187
20
-1304.8378
10
-537.8633
20
-1304.1465
10
-537.6266
20
-1303.6253
10
-537.4727
20
-1303.276
10
-528.0331
20
-1280.3929
10
-427.9885
20
-1317.2133
10
-435.6354
20
-1340.7561
10
-435.7447
20
-1341.1218
10
-435.9024
20
-1341.6722
10
-436.104
20
-1342.4084
10
-436.3454
20
-1343.3315
10
-436.6222
20
-1344.4425
10
-436.9301
20
-1345.7423
10
-437.2647
20
-1347.2319
10
-437.6216
20
-1348.9118
10
-437.9964
20
-1350.783
10
-438.3848
20
-1352.8459
10
-438.7823
20
-1355.1011
10
-439.1844
20
-1357.549
10
-439.5868
20
-1360.1902
10
-439.985
20
-1363.0248
10
-440.3745
20
-1366.0531
10
-440.751
20
-1369.2753
10
-441.1098
20
-1372.6915
10
-441.4467
20
-1376.3016
10
-441.757
20
-1380.1055
10
-442.0364
20
-1384.1032
10
-442.2803
20
-1388.2944
10
-442.4843
20
-1392.6787
10
-442.6439
20
-1397.2559
10
-442.7548
20
-1402.0253
10
-442.8123
20
-1406.9866
10
-442.8121
20
-1412.139
10
-442.7498
20
-1417.4819
10
-442.6208
20
-1423.0144
10
-442.4208
20
-1428.7358
10
-442.1454
20
-1434.6452
10
-441.7902
20
-1440.7414
10
-441.3507
20
-1447.0234
10
-440.8226
20
-1453.4901
10
-440.2016
20
-1460.1402
10
-439.4834
20
-1466.9725
10
-438.6635
20
-1473.9854
10
-437.7377
20
-1481.1776
10
-436.7017
20
-1488.5475
10
-435.5513
20
-1496.0936
10
-434.2823
20
-1503.814
10
-432.8903
20
-1511.7071
10
-431.3713
20
-1519.7709
10
-429.7211
20
-1528.0037
10
-427.9355
20
-1536.4033
10
-425.3123
20
-1542.4362
10
-359.7997
20
-1559.0203
10
-354.6221
20
-1554.9621
10
-349.0551
20
-1548.4237
10
-343.6865
20
-1541.9677
10
-338.5137
20
-1535.5979
10
-333.5339
20
-1529.3177
10
-328.7443
20
-1523.131
10
-324.1421
20
-1517.0412
10
-319.7243
20
-1511.0519
10
-315.488
20
-1505.1664
10
-311.4302
20
-1499.3882
10
-307.5476
20
-1493.7207
10
-303.8373
20
-1488.167
10
-300.2961
20
-1482.7304
10
-296.9205
20
-1477.4141
10
-293.7075
20
-1472.2212
10
-290.6536
20
-1467.1547
10
-287.7555
20
-1462.2175
10
-285.0097
20
-1457.4127
10
-282.4128
20
-1452.743
10
-279.9611
20
-1448.2112
10
-277.6512
20
-1443.8202
10
-275.4793
20
-1439.5724
10
-273.442
20
-1435.4706
10
-271.5354
20
-1431.5173
10
-269.7558
20
-1427.7148
10
-268.0994
20
-1424.0657
10
-266.5624
20
-1420.5723
10
-265.141
20
-1417.2367
10
-263.8313
20
-1414.0613
10
-262.6293
20
-1411.0481
10
-261.531
20
-1408.1992
10
-260.5326
20
-1405.5165
10
-259.6298
20
-1403.002
10
-258.8188
20
-1400.6575
10
-258.0954
20
-1398.4849
10
-257.4555
20
-1396.4856
10
-256.8949
20
-1394.6615
10
-256.4094
20
-1393.0141
10
-255.995
20
-1391.5448
10
-255.6474
20
-1390.255
10
-255.3622
20
-1389.1461
10
-255.1353
20
-1388.2193
10
-254.9624
20
-1387.4758
10
-254.8392
20
-1386.9168
10
-254.7613
20
-1386.5431
10
-250.2856
20
-1362.1975
10
-144.7719
20
-1377.4128
10
-147.3569
20
-1402.0311
10
-147.3878
20
-1402.4115
10
-147.4275
20
-1402.9826
10
-147.4717
20
-1403.7446
10
-147.5159
20
-1404.6978
10
-147.5557
20
-1405.8421
10
-147.5866
20
-1407.1775
10
-147.6042
20
-1408.704
10
-147.604
20
-1410.4215
10
-147.5816
20
-1412.3297
10
-147.5326
20
-1414.4282
10
-147.4525
20
-1416.7168
10
-147.3369
20
-1419.1949
10
-147.1813
20
-1421.862
10
-146.9815
20
-1424.7175
10
-146.7329
20
-1427.7606
10
-146.4312
20
-1430.9907
10
-146.0719
20
-1434.4068
10
-145.6508
20
-1438.008
10
-145.1635
20
-1441.7934
10
-144.6056
20
-1445.7618
10
-143.9728
20
-1449.9121
10
-143.2608
20
-1454.243
10
-142.4653
20
-1458.7533
10
-141.5821
20
-1463.4416
10
-140.6068
20
-1468.3064
10
-139.5354
20
-1473.3462
10
-138.3636
20
-1478.5593
10
-137.0872
20
-1483.9442
10
-135.702
20
-1489.499
10
-134.204
20
-1495.2219
10
-132.589
20
-1501.1111
10
-130.853
20
-1507.1645
10
-128.992
20
-1513.3801
10
-127.002
20
-1519.7557
10
-124.8789
20
-1526.2893
10
-122.6188
20
-1532.9786
10
-120.2179
20
-1539.8211
10
-117.6723
20
-1546.8146
10
-114.9782
20
-1553.9565
10
-112.1316
20
-1561.2444
10
-109.1291
20
-1568.6756
10
-105.9667
20
-1576.2474
10
-102.6408
20
-1583.9572
10
-99.1478
20
-1591.802
10
-95.3277
20
-1597.1577
10
-27.7987
20
-1599.7585
10
-23.578
20
-1594.7125
10
-19.492
20
-1587.1596
10
-15.583
20
-1579.7285
10
-11.8476
20
-1572.4223
10
-8.2823
20
-1565.2441
10
-4.8837
20
-1558.1967
10
-1.6482
20
-1551.2832
10
1.4278
20
-1544.5062
10
4.3478
20
-1537.8686
10
7.1157
20
-1531.373
10
9.735
20
-1525.022
10
12.2096
20
-1518.8183
10
14.5431
20
-1512.7643
10
16.7396
20
-1506.8623
10
18.8027
20
-1501.1148
10
20.7364
20
-1495.5241
10
22.5447
20
-1490.0923
10
24.2316
20
-1484.8216
10
25.8009
20
-1479.714
10
27.2568
20
-1474.7715
10
28.6033
20
-1469.9961
10
29.8445
20
-1465.3897
10
30.9845
20
-1460.9539
10
32.0275
20
-1456.6906
10
32.9776
20
-1452.6012
10
33.8391
20
-1448.6875
10
34.6162
20
-1444.9508
10
35.313
20
-1441.3926
10
35.9339
20
-1438.0143
10
36.4832
20
-1434.817
10
36.9651
20
-1431.802
10
37.384
20
-1428.9704
10
37.7442
20
-1426.3231
10
38.0501
20
-1423.8613
10
38.306
20
-1421.5857
10
38.5163
20
-1419.4971
10
38.6853
20
-1417.5963
10
38.8176
20
-1415.8839
10
38.9175
20
-1414.3606
10
38.9894
20
-1413.0267
10
39.0378
20
-1411.8827
10
39.067
20
-1410.929
10
39.0816
20
-1410.1658
10
39.0859
20
-1409.5934
10
39.0843
20
-1409.2117
10
38.4005
20
-1384.4676
10
144.7719
20
-1377.4128
10
147.3619
20
-1402.0306
10
147.4108
20
-1402.4091
10
147.4906
20
-1402.976
10
147.6058
20
-1403.7305
10
147.7607
20
-1404.672
10
147.9598
20
-1405.7996
10
148.2072
20
-1407.1123
10
148.5074
20
-1408.6091
10
148.8646
20
-1410.289
10
149.2833
20
-1412.1508
10
149.7675
20
-1414.1933
10
150.3217
20
-1416.4152
10
150.95
20
-1418.8151
10
151.6567
20
-1421.3916
10
152.4458
20
-1424.1431
10
153.3217
20
-1427.0681
10
154.2884
20
-1430.1648
10
155.35
20
-1433.4316
10
156.5107
20
-1436.8666
10
157.7744
20
-1440.4679
10
159.1452
20
-1444.2336
10
160.6271
20
-1448.1616
10
162.224
20
-1452.2499
10
163.9398
20
-1456.4963
10
165.7785
20
-1460.8985
10
167.7438
20
-1465.4542
10
169.8397
20
-1470.1611
10
172.0698
20
-1475.0167
10
174.4379
20
-1480.0185
10
176.9477
20
-1485.1639
10
179.6028
20
-1490.4503
10
182.4069
20
-1495.875
10
185.3635
20
-1501.4352
10
188.4762
20
-1507.128
10
191.7483
20
-1512.9506
10
195.1834
20
-1518.9
10
198.7849
20
-1524.9732
10
202.5559
20
-1531.1671
10
206.4999
20
-1537.4784
10
210.6201
20
-1543.9042
10
214.9197
20
-1550.441
10
219.4017
20
-1557.0855
10
224.0692
20
-1563.8343
10
228.9254
20
-1570.6841
10
233.973
20
-1577.6313
10
238.8232
20
-1582.0757
10
305.4173
20
-1570.5796
10
308.4966
20
-1564.7664
10
310.923
20
-1556.5289
10
313.2016
20
-1548.4475
10
315.3363
20
-1540.5244
10
317.3312
20
-1532.7617
10
319.1903
20
-1525.1618
10
320.9177
20
-1517.7266
10
322.5175
20
-1510.4582
10
323.9937
20
-1503.3585
10
325.3505
20
-1496.4294
10
326.5922
20
-1489.6726
10
327.7228
20
-1483.09
10
328.7467
20
-1476.6831
10
329.668
20
-1470.4534
10
330.4911
20
-1464.4026
10
331.2202
20
-1458.532
10
331.8597
20
-1452.8429
10
332.4138
20
-1447.3366
10
332.8869
20
-1442.0144
10
333.2834
20
-1436.8772
10
333.6076
20
-1431.9262
10
333.8639
20
-1427.1624
10
334.0568
20
-1422.5865
10
334.1906
20
-1418.1995
10
334.2698
20
-1414.002
10
334.2987
20
-1409.9946
10
334.2819
20
-1406.1781
10
334.2237
20
-1402.5528
10
334.1287
20
-1399.1191
10
334.0012
20
-1395.8775
10
333.8457
20
-1392.8282
10
333.6667
20
-1389.9714
10
333.4687
20
-1387.3071
10
333.256
20
-1384.8354
10
333.0332
20
-1382.5563
10
332.8046
20
-1380.4697
10
332.5748
20
-1378.5753
10
332.3482
20
-1376.8728
10
332.1292
20
-1375.362
10
331.9222
20
-1374.0423
10
331.7316
20
-1372.9133
10
331.5619
20
-1371.9743
10
331.4175
20
-1371.2248
10
331.3027
20
-1370.664
10
331.2218
20
-1370.291
10
325.4084
20
-1346.2297
10
427.9885
20
-1317.2133
10
435.6402
20
-1340.7546
10
435.7667
20
-1341.1147
10
435.9627
20
-1341.6526
10
436.2323
20
-1342.3667
10
436.5796
20
-1343.2554
10
437.0086
20
-1344.3169
10
437.5236
20
-1345.5495
10
438.1284
20
-1346.9512
10
438.8272
20
-1348.5201
10
439.6237
20
-1350.2542
10
440.5221
20
-1352.1514
10
441.5261
20
-1354.2095
10
442.6397
20
-1356.4264
10
443.8665
20
-1358.7996
10
445.2105
20
-1361.3269
10
446.6754
20
-1364.0059
10
448.2648
20
-1366.8339
10
449.9825
20
-1369.8086
10
451.8319
20
-1372.9272
10
453.8168
20
-1376.1871
10
455.9405
20
-1379.5855
10
458.2067
20
-1383.1196
10
460.6187
20
-1386.7865
10
463.1799
20
-1390.5833
10
465.8937
20
-1394.507
10
468.7633
20
-1398.5546
10
471.7919
20
-1402.7229
10
474.9828
20
-1407.0087
10
478.3391
20
-1411.4089
10
481.8639
20
-1415.92
10
485.5601
20
-1420.5389
10
489.4308
20
-1425.262
10
493.4788
20
-1430.086
10
497.707
20
-1435.0073
10
502.1183
20
-1440.0223
10
506.7153
20
-1445.1275
10
511.5007
20
-1450.3192
10
516.4771
20
-1455.5936
10
521.6472
20
-1460.9471
10
527.0133
20
-1466.3758
10
532.578
20
-1471.8758
10
538.3435
20
-1477.4432
10
544.3122
20
-1483.0742
10
550.4864
20
-1488.7647
10
556.8682
20
-1494.5106
10
562.5363
20
-1497.8494
10
625.285
20
-1472.7589
10
627.0885
20
-1466.4324
10
627.7491
20
-1457.8705
10
628.2977
20
-1449.4919
10
628.7385
20
-1441.2981
10
629.0758
20
-1433.2903
10
629.3142
20
-1425.4699
10
629.458
20
-1417.8381
10
629.5116
20
-1410.3959
10
629.4794
20
-1403.1444
10
629.366
20
-1396.0846
10
629.1757
20
-1389.2174
10
628.913
20
-1382.5435
10
628.5825
20
-1376.0637
10
628.1885
20
-1369.7786
10
627.7355
20
-1363.6889
10
627.2281
20
-1357.795
10
626.6708
20
-1352.0973
10
626.068
20
-1346.5961
10
625.4242
20
-1341.2918
10
624.7439
20
-1336.1845
10
624.0317
20
-1331.2743
10
623.292
20
-1326.5612
10
622.5292
20
-1322.0453
10
621.748
20
-1317.7263
10
620.9527
20
-1313.604
10
620.1479
20
-1309.6783
10
619.3379
20
-1305.9486
10
618.5273
20
-1302.4146
10
617.7204
20
-1299.0758
10
616.9217
20
-1295.9315
10
616.1357
20
-1292.9811
10
615.3666
20
-1290.2239
10
614.6189
20
-1287.6591
10
613.897
20
-1285.2856
10
613.2052
20
-1283.1027
10
612.5478
20
-1281.1091
10
611.9292
20
-1279.3039
10
611.3535
20
-1277.6858
10
610.8252
20
-1276.2535
10
610.3483
20
-1275.0057
10
609.9272
20
-1273.9409
10
609.566
20
-1273.0578
10
609.2689
20
-1272.3547
10
609.04
20
-1271.83
10
608.8834
20
-1271.4819
10
598.1943
20
-1249.1551
10
692.5
20
-1199.4452
10
704.879
20
-1220.8812
10
705.0776
20
-1221.2071
10
705.3811
20
-1221.6925
10
705.7933
20
-1222.335
10
706.3177
20
-1223.132
10
706.9582
20
-1224.0812
10
707.7181
20
-1225.1797
10
708.6012
20
-1226.4251
10
709.6108
20
-1227.8144
10
710.7505
20
-1229.345
10
712.0237
20
-1231.014
10
713.4337
20
-1232.8184
10
714.9838
20
-1234.7552
10
716.6773
20
-1236.8215
10
718.5174
20
-1239.0142
10
720.5072
20
-1241.33
10
722.6499
20
-1243.7658
10
724.9485
20
-1246.3184
10
727.4059
20
-1248.9843
10
730.0252
20
-1251.7603
10
732.8091
20
-1254.6428
10
735.7605
20
-1257.6286
10
738.8822
20
-1260.7139
10
742.1769
20
-1263.8952
10
745.6471
20
-1267.169
10
749.2955
20
-1270.5315
10
753.1246
20
-1273.979
10
757.1369
20
-1277.5077
10
761.3347
20
-1281.1139
10
765.7203
20
-1284.7936
10
770.2961
20
-1288.5431
10
775.0642
20
-1292.3582
10
780.0267
20
-1296.2352
10
785.1857
20
-1300.1698
10
790.5433
20
-1304.1581
10
796.1012
20
-1308.196
10
801.8615
20
-1312.2793
10
807.8258
20
-1316.4038
10
813.9959
20
-1320.5654
10
820.3735
20
-1324.7597
10
826.96
20
-1328.9826
10
833.7571
20
-1333.2297
10
840.7662
20
-1337.4966
10
847.9885
20
-1341.779
10
855.4255
20
-1346.0725
10
861.664
20
-1348.1599
10
917.8248
20
-1310.5715
10
918.2735
20
-1304.0083
10
917.1396
20
-1295.4962
10
915.9342
20
-1287.1866
10
914.6617
20
-1279.0802
10
913.3268
20
-1271.1773
10
911.9341
20
-1263.4782
10
910.4879
20
-1255.9832
10
908.9931
20
-1248.6926
10
907.4539
20
-1241.6062
10
905.8752
20
-1234.7243
10
904.2613
20
-1228.0467
10
902.6167
20
-1221.5732
10
900.9462
20
-1215.3038
10
899.254
20
-1209.238
10
897.5449
20
-1203.3755
10
895.8231
20
-1197.7158
10
894.0933
20
-1192.2585
10
892.3599
20
-1187.0029
10
890.6274
20
-1181.9484
10
888.9001
20
-1177.0941
10
887.1826
20
-1172.4393
10
885.4791
20
-1167.983
10
883.7942
20
-1163.7243
10
882.132
20
-1159.6621
10
880.497
20
-1155.7953
10
878.8936
20
-1152.1227
10
877.3259
20
-1148.6429
10
875.7982
20
-1145.3547
10
874.3148
20
-1142.2566
10
872.8798
20
-1139.3471
10
871.4975
20
-1136.6246
10
870.172
20
-1134.0875
10
868.9074
20
-1131.7342
10
867.7078
20
-1129.5627
10
866.5773
20
-1127.5713
10
865.5198
20
-1125.758
10
864.5393
20
-1124.1208
10
863.6398
20
-1122.6577
10
862.8252
20
-1121.3666
10
862.0994
20
-1120.2452
10
861.4661
20
-1119.2913
10
860.9291
20
-1118.5025
10
860.4923
20
-1117.8766
10
860.1593
20
-1117.4109
10
859.9337
20
-1117.103
10
844.8363
20
-1097.4865
10
926.7459
20
-1029.2556
10
943.3111
20
-1047.6494
10
943.5732
20
-1047.9269
10
943.971
20
-1048.3386
10
944.5077
20
-1048.8813
10
945.1865
20
-1049.552
10
946.0102
20
-1050.3472
10
946.982
20
-1051.2638
10
948.1047
20
-1052.2983
10
949.3811
20
-1053.4473
10
950.8141
20
-1054.7075
10
952.4065
20
-1056.0753
10
954.1608
20
-1057.5471
10
956.0797
20
-1059.1194
10
958.1659
20
-1060.7884
10
960.4216
20
-1062.5506
10
962.8494
20
-1064.4021
10
965.4517
20
-1066.3392
10
968.2308
20
-1068.3581
10
971.1888
20
-1070.4548
10
974.328
20
-1072.6255
10
977.6504
20
-1074.8663
10
981.1581
20
-1077.1731
10
984.853
20
-1079.542
10
988.7371
20
-1081.9688
10
992.8122
20
-1084.4495
10
997.08
20
-1086.98
10
1001.5422
20
-1089.556
10
1006.2004
20
-1092.1735
10
1011.0562
20
-1094.8281
10
1016.1111
20
-1097.5156
10
1021.3664
20
-1100.2317
10
1026.8236
20
-1102.9722
10
1032.4837
20
-1105.7326
10
1038.3481
20
-1108.5087
10
1044.4177
20
-1111.2959
10
1050.6938
20
-1114.09
10
1057.1771
20
-1116.8864
10
1063.8686
20
-1119.6808
10
1070.7691
20
-1122.4686
10
1077.8794
20
-1125.2453
10
1085.2
20
-1128.0065
10
1092.7316
20
-1130.7475
10
1100.4746
20
-1133.464
10
1108.4295
20
-1136.1512
10
1116.5966
20
-1138.8047
10
1123.1328
20
-1139.5494
10
1170.2513
20
-1091.1058
10
1169.3256
20
-1084.5928
10
1166.4467
20
-1076.5024
10
1163.54
20
-1068.6251
10
1160.6099
20
-1060.9604
10
1157.6611
20
-1053.5077
10
1154.698
20
-1046.2664
10
1151.7252
20
-1039.2359
10
1148.7472
20
-1032.4153
10
1145.7683
20
-1025.8039
10
1142.7932
20
-1019.4006
10
1139.8262
20
-1013.2044
10
1136.8718
20
-1007.2144
10
1133.9342
20
-1001.4292
10
1131.0179
20
-995.8478
10
1128.1272
20
-990.4688
10
1125.2664
20
-985.2908
10
1122.4397
20
-980.3123
10
1119.6515
20
-975.532
10
1116.9059
20
-970.9481
10
1114.2072
20
-966.559
10
1111.5594
20
-962.363
10
1108.9666
20
-958.3583
10
1106.433
20
-954.543
10
1103.9626
20
-950.9152
10
1101.5594
20
-947.4728
10
1099.2274
20
-944.2138
10
1096.9705
20
-941.136
10
1094.7925
20
-938.2372
10
1092.6974
20
-935.5153
10
1090.6889
20
-932.9677
10
1088.7707
20
-930.5921
10
1086.9467
20
-928.3861
10
1085.2205
20
-926.347
10
1083.5956
20
-924.4724
10
1082.0757
20
-922.7596
10
1080.6643
20
-921.2058
10
1079.3649
20
-919.8082
10
1078.1809
20
-918.5641
10
1077.1156
20
-917.4706
10
1076.1725
20
-916.5246
10
1075.3547
20
-915.7232
10
1074.6655
20
-915.0633
10
1074.1081
20
-914.5419
10
1073.6856
20
-914.1556
10
1073.4009
20
-913.9014
10
1054.5549
20
-897.8525
10
1120.4885
20
-814.0826
10
1140.5161
20
-828.6304
10
1140.8301
20
-828.8473
10
1141.3048
20
-829.1673
10
1141.9427
20
-829.5866
10
1142.746
20
-830.1014
10
1143.7171
20
-830.708
10
1144.8582
20
-831.4025
10
1146.1714
20
-832.181
10
1147.6589
20
-833.0396
10
1149.3226
20
-833.9743
10
1151.1645
20
-834.9811
10
1153.1865
20
-836.056
10
1155.3904
20
-837.1949
10
1157.7779
20
-838.3938
10
1160.3508
20
-839.6484
10
1163.1105
20
-840.9547
10
1166.0587
20
-842.3084
10
1169.1967
20
-843.7054
10
1172.526
20
-845.1413
10
1176.0479
20
-846.6119
10
1179.7636
20
-848.113
10
1183.6743
20
-849.6401
10
1187.781
20
-851.189
10
1192.0848
20
-852.7552
10
1196.5866
20
-854.3345
10
1201.2872
20
-855.9223
10
1206.1875
20
-857.5143
10
1211.2882
20
-859.106
10
1216.5898
20
-860.6931
10
1222.093
20
-862.2709
10
1227.7982
20
-863.835
10
1233.7058
20
-865.381
10
1239.8162
20
-866.9043
10
1246.1296
20
-868.4004
10
1252.6461
20
-869.8648
10
1259.3659
20
-871.2929
10
1266.289
20
-872.6803
10
1273.4152
20
-874.0223
10
1280.7446
20
-875.3145
10
1288.2768
20
-876.5523
10
1296.0115
20
-877.7311
10
1303.9484
20
-878.8463
10
1312.087
20
-879.8935
10
1320.4268
20
-880.8681
10
1328.9671
20
-881.7656
10
1335.5152
20
-881.1351
10
1371.5321
20
-823.9536
10
1369.2726
20
-817.7754
10
1364.7745
20
-810.4603
10
1360.2935
20
-803.3595
10
1355.8339
20
-796.4715
10
1351.4
20
-789.7947
10
1346.9961
20
-783.3278
10
1342.6265
20
-777.069
10
1338.2955
20
-771.0166
10
1334.0072
20
-765.169
10
1329.7657
20
-759.5241
10
1325.5753
20
-754.0803
10
1321.44
20
-748.8354
10
1317.3639
20
-743.7874
10
1313.3508
20
-738.9343
10
1309.4049
20
-734.2738
10
1305.5301
20
-729.8038
10
1301.7301
20
-725.5218
10
1298.009
20
-721.4256
10
1294.3703
20
-717.5128
10
1290.818
20
-713.7807
10
1287.3556
20
-710.2269
10
1283.9869
20
-706.8488
10
1280.7155
20
-703.6436
10
1277.5448
20
-700.6086
10
1274.4784
20
-697.7411
10
1271.5197
20
-695.0382
10
1268.6722
20
-692.4969
10
1265.9392
20
-690.1143
10
1263.3239
20
-687.8874
10
1260.8296
20
-685.8131
10
1258.4595
20
-683.8883
10
1256.2166
20
-682.1097
10
1254.1042
20
-680.4741
10
1252.1251
20
-678.9783
10
1250.2823
20
-677.6189
10
1248.5787
20
-676.3925
10
1247.0171
20
-675.2957
10
1245.6003
20
-674.3249
10
1244.3309
20
-673.4767
10
1243.2117
20
-672.7475
10
1242.2452
20
-672.1336
10
1241.4339
20
-671.6315
10
1240.7802
20
-671.2373
10
1240.2866
20
-670.9473
10
1239.9553
20
-670.7578
10
1218.1843
20
-658.978
10
1265.2605
20
-563.3303
10
1287.875
20
-573.3962
10
1288.2273
20
-573.5431
10
1288.7581
20
-573.7574
10
1289.4692
20
-574.0349
10
1290.362
20
-574.3715
10
1291.438
20
-574.7629
10
1292.6986
20
-575.205
10
1294.145
20
-575.6934
10
1295.7784
20
-576.2239
10
1297.6001
20
-576.7923
10
1299.6111
20
-577.3942
10
1301.8124
20
-578.0252
10
1304.205
20
-578.681
10
1306.7896
20
-579.3573
10
1309.5671
20
-580.0496
10
1312.5381
20
-580.7535
10
1315.7033
20
-581.4647
10
1319.0632
20
-582.1787
10
1322.6183
20
-582.8911
10
1326.369
20
-583.5973
10
1330.3156
20
-584.293
10
1334.4583
20
-584.9737
10
1338.7973
20
-585.6349
10
1343.3327
20
-586.2721
10
1348.0644
20
-586.8809
10
1352.9925
20
-587.4567
10
1358.1167
20
-587.9951
10
1363.4368
20
-588.4915
10
1368.9525
20
-588.9416
10
1374.6635
20
-589.3408
10
1380.5692
20
-589.6846
10
1386.6692
20
-589.9685
10
1392.9628
20
-590.1881
10
1399.4492
20
-590.3389
10
1406.1278
20
-590.4164
10
1412.9977
20
-590.4162
10
1420.058
20
-590.3339
10
1427.3075
20
-590.1649
10
1434.7454
20
-589.905
10
1442.3703
20
-589.5497
10
1450.1811
20
-589.0946
10
1458.1764
20
-588.5353
10
1466.3549
20
-587.8675
10
1474.715
20
-587.0869
10
1483.2553
20
-586.1891
10
1489.5293
20
-584.2109
10
1512.8705
20
-520.7907
10
1509.3758
20
-515.2173
10
1503.4551
20
-508.9973
10
1497.5957
20
-502.9832
10
1491.8014
20
-497.1729
10
1486.0762
20
-491.564
10
1480.424
20
-486.154
10
1474.8486
20
-480.9404
10
1469.3539
20
-475.9208
10
1463.9435
20
-471.0925
10
1458.6211
20
-466.4529
10
1453.3904
20
-461.9992
10
1448.255
20
-457.7287
10
1443.2184
20
-453.6385
10
1438.284
20
-449.7258
10
1433.4554
20
-445.9876
10
1428.7358
20
-442.4208
10
1424.1287
20
-439.0225
10
1419.6372
20
-435.7895
10
1415.2645
20
-432.7187
10
1411.0139
20
-429.8067
10
1406.8883
20
-427.0505
10
1402.8909
20
-424.4465
10
1399.0245
20
-421.9916
10
1395.2921
20
-419.6822
10
1391.6965
20
-417.5149
10
1388.2405
20
-415.4861
10
1384.9269
20
-413.5924
10
1381.7582
20
-411.8301
10
1378.7371
20
-410.1956
10
1375.866
20
-408.6853
10
1373.1475
20
-407.2952
10
1370.5839
20
-406.0218
10
1368.1775
20
-404.8612
10
1365.9307
20
-403.8096
10
1363.8455
20
-402.863
10
1361.9241
20
-402.0176
10
1360.1686
20
-401.2694
10
1358.5809
20
-400.6144
10
1357.163
20
-400.0487
10
1355.9166
20
-399.5681
10
1354.8436
20
-399.1686
10
1353.9456
20
-398.8461
10
1353.2243
20
-398.5964
10
1352.6811
20
-398.4154
10
1352.3177
20
-398.299
10
1328.5733
20
-391.3029
10
1354.7344
20
-287.9577
10
1378.9476
20
-293.1018
10
1379.3227
20
-293.1723
10
1379.8865
20
-293.2715
10
1380.6398
20
-293.3951
10
1381.5831
20
-293.5387
10
1382.7169
20
-293.6979
10
1384.0418
20
-293.8682
10
1385.5582
20
-294.0452
10
1387.2663
20
-294.2246
10
1389.1663
20
-294.4018
10
1391.2585
20
-294.5724
10
1393.5429
20
-294.7319
10
1396.0195
20
-294.876
10
1398.6882
20
-295.0001
10
1401.549
20
-295.0998
10
1404.6014
20
-295.1707
10
1407.8453
20
-295.2082
10
1411.2803
20
-295.2081
10
1414.9058
20
-295.1657
10
1418.7213
20
-295.0767
10
1422.7263
20
-294.9366
10
1426.92
20
-294.7411
10
1431.3017
20
-294.4857
10
1435.8704
20
-294.1661
10
1440.6254
20
-293.7778
10
1445.5654
20
-293.3164
10
1450.6896
20
-292.7776
10
1455.9967
20
-292.1571
10
1461.4855
20
-291.4506
10
1467.1547
20
-290.6536
10
1473.0028
20
-289.762
10
1479.0285
20
-288.7715
10
1485.2302
20
-287.6778
10
1491.6063
20
-286.4767
10
1498.155
20
-285.164
10
1504.8748
20
-283.7354
10
1511.7636
20
-282.187
10
1518.8196
20
-280.5145
10
1526.0409
20
-278.7138
10
1533.4253
20
-276.781
10
1540.9708
20
-274.7119
10
1548.6751
20
-272.5025
10
1556.536
20
-270.1489
10
1564.5512
20
-267.6471
10
1572.7182
20
-264.9933
10
1578.4438
20
-261.754
10
1588.0891
20
-194.8667
10
1583.512
20
-190.1417
10
1576.4275
20
-185.2886
10
1569.4457
20
-180.6242
10
1562.57
20
-176.1456
10
1555.8038
20
-171.8495
10
1549.1503
20
-167.7329
10
1542.6128
20
-163.7924
10
1536.1945
20
-160.0249
10
1529.8984
20
-156.427
10
1523.7278
20
-152.9954
10
1517.6854
20
-149.7265
10
1511.7743
20
-146.6171
10
1505.9974
20
-143.6635
10
1500.3573
20
-140.8622
10
1494.857
20
-138.2095
10
1489.499
20
-135.702
10
1484.286
20
-133.3358
10
1479.2204
20
-131.1073
10
1474.3049
20
-129.0127
10
1469.5417
20
-127.0481
10
1464.9332
20
-125.2099
10
1460.4817
20
-123.494
10
1456.1894
20
-121.8965
10
1452.0584
20
-120.4136
10
1448.0908
20
-119.0412
10
1444.2886
20
-117.7753
10
1440.6536
20
-116.6119
10
1437.1878
20
-115.547
10
1433.8928
20
-114.5763
10
1430.7705
20
-113.6959
10
1427.8223
20
-112.9014
10
1425.05
20
-112.1889
10
1422.4549
20
-111.5539
10
1420.0385
20
-110.9924
10
1417.8021
20
-110.5
10
1415.747
20
-110.0726
10
1413.8743
20
-109.7057
10
1412.1851
20
-109.3952
10
1410.6805
20
-109.1366
10
1409.3615
20
-108.9257
10
1408.2288
20
-108.758
10
1407.2834
20
-108.6292
10
1406.5259
20
-108.535
10
1405.957
20
-108.4709
10
1405.5773
20
-108.4325
10
1380.8972
20
-106.5261
8
gear
0
LWPOLYLINE
90
5
70
0
43
0
10
1337.8202
20
215.0864
10
1337.3407
20
218.0478
10
1336.8547
20
221.0081
10
1336.3621
20
223.9674
10
1335.8629
20
226.9256
8
gear_texts
0
LWPOLYLINE
90
2
70
0
43
0
10
1330.935
20
220.0295
10
1342.7743
20
221.9868
8
gear_texts
0
LWPOLYLINE
90
5
70
0
43
0
10
1343.7441
20
216.0388
10
1340.3016
20
218.5305
10
1336.8547
20
221.0081
10
1333.4033
20
223.4716
10
1329.9477
20
225.9208
8
gear_texts
0
LWPOLYLINE
90
5
70
0
43
0
10
1331.8963
20
214.1339
10
1334.3798
20
217.565
10
1336.8547
20
221.0081
10
1339.3208
20
224.4633
10
1341.7782
20
227.9305
8
gear_texts
0
LWPOLYLINE
90
9
70
0
43
0
10
1334.1851
20
199.3769
10
1330.7743
20
201.8803
10
1330.3241
20
204.8262
10
1332.8314
20
208.2342
10
1344.6876
20
210.0865
10
1348.1145
20
207.5653
10
1348.5707
20
204.5801
10
1346.0533
20
201.1504
10
1334.1851
20
199.3769
8
gear_texts
0
LWPOLYLINE
90
7
70
0
43
0
10
1353.5295
20
168.6829
10
1335.6677
20
166.4569
10
1339.7601
20
169.9801
10
1343.8434
20
173.5222
10
1347.9176
20
177.0832
10
1351.9826
20
180.6631
10
1334.1411
20
178.279
8
gear_texts
0
LWPOLYLINE
90
5
70
0
43
0
10
1349.6875
20
150.0252
10
1349.3521
20
153.0131
10
1349.01
20
156.0002
10
1348.6613
20
158.9866
10
1348.306
20
161.9722
8
gear_texts
0
LWPOLYLINE
90
5
70
0
43
0
10
1343.7243
20
149.3624
10
1343.3903
20
152.3371
10
1343.0497
20
155.311
10
1342.7025
20
158.2841
10
1342.3488
20
161.2565
8
gear_texts
0
LWPOLYLINE
90
13
70
0
43
0
10
1353.3217
20
144.3655
10
1356.6218
20
141.6805
10
1356.9321
20
138.6766
10
1357.2358
20
135.672
10
1354.5471
20
132.3749
10
1351.5613
20
132.0831
10
1348.2805
20
134.7768
10
1345.5898
20
131.4995
10
1342.604
20
131.2077
10
1339.3251
20
133.8816
10
1339.0254
20
136.8465
10
1338.7191
20
139.8108
10
1341.3894
20
143.0927
8
gear_texts
0
LWPOLYLINE
90
2
70
0
43
0
10
1347.9788
20
137.7616
10
1348.2805
20
134.7768
8
gear_texts
0
LWPOLYLINE
90
9
70
0
43
0
10
1343.9742
20
116.3372
10
1340.7251
20
119.0472
10
1340.4582
20
122.0153
10
1343.1718
20
125.2614
10
1355.12
20
126.3756
10
1358.3841
20
123.647
10
1358.6545
20
120.6392
10
1355.9295
20
117.3721
10
1343.9742
20
116.3372
8
gear_texts
0
LWPOLYLINE
90
11
70
0
43
0
10
1351.6007
20
95.9197
10
1351.8097
20
92.927
10
1352.0122
20
89.9338
10
1352.208
20
86.9402
10
1355.3914
20
84.1321
10
1358.3856
20
84.3179
10
1361.1894
20
87.5177
10
1360.9923
20
90.5312
10
1360.7885
20
93.5442
10
1360.5781
20
96.5568
10
1342.6233
20
95.2826
8
gear_texts
0
LWPOLYLINE
90
2
70
0
43
0
10
1343.7705
20
77.4391
10
1355.7506
20
78.1295
8
gear_texts
0
LWPOLYLINE
90
2
70
0
43
0
10
1358.7457
20
78.3021
10
1361.7407
20
78.4747
8
gear_texts
0
LWPOLYLINE
90
4
70
0
43
0
10
1347.6777
20
59.7148
10
1344.5454
20
62.559
10
1347.4001
20
65.6818
10
1362.3823
20
66.4121
8
gear_texts
0
LWPOLYLINE
90
5
70
0
43
0
10
1356.6689
20
60.1132
10
1356.5324
20
63.1167
10
1356.3894
20
66.12
10
1356.2397
20
69.1229
10
1356.0833
20
72.1255
8
gear_texts
0
LWPOLYLINE
90
10
70
0
43
0
10
1345.3535
20
41.7144
10
1345.2578
20
44.6929
10
1345.1556
20
47.6712
10
1345.0467
20
50.6493
10
1347.9289
20
53.7467
10
1353.9241
20
53.9857
10
1357.0382
20
51.1008
10
1357.148
20
48.0962
10
1357.2512
20
45.0913
10
1357.3477
20
42.0862
8
gear_texts
0
LWPOLYLINE
90
6
70
0
43
0
10
1351.5229
20
35.9161
10
1354.5982
20
32.9967
10
1357.6672
20
30.064
10
1357.7304
20
27.058
10
1354.7875
20
23.9987
10
1345.7889
20
23.8393
8
gear_texts
0
LWPOLYLINE
90
2
70
0
43
0
10
1345.525
20
35.7567
10
1363.5186
20
36.2349
8
gear_texts
0
LWPOLYLINE
90
10
70
0
43
0
10
1345.9967
20
2.9801
10
1346
20
0
10
1345.9967
20
-2.9801
10
1345.9868
20
-5.9601
10
1348.9702
20
-8.9601
10
1360.97
20
-9.0398
10
1363.9866
20
-6.0398
10
1363.9967
20
-3.0199
10
1364
20
0
10
1363.9967
20
3.0199
8
gear_texts
0
LWPOLYLINE
90
2
70
0
43
0
10
1364
20
0
10
1346
20
0
8
gear_texts
0
LWPOLYLINE
90
5
70
0
43
0
10
1357.7304
20
-27.058
10
1357.787
20
-24.0519
10
1357.8369
20
-21.0457
10
1357.8802
20
-18.0393
10
1357.9168
20
-15.0329
8
gear_texts
0
LWPOLYLINE
90
5
70
0
43
0
10
1351.7316
20
-26.9384
10
1351.7879
20
-23.9456
10
1351.8376
20
-20.9527
10
1351.8807
20
-17.9596
10
1351.9172
20
-14.9665
8
gear_texts
0
LWPOLYLINE
90
13
70
0
43
0
10
1360.5964
20
-33.1428
10
1363.5186
20
-36.2349
10
1363.4351
20
-39.2536
10
1363.3448
20
-42.2722
10
1360.2495
20
-45.191
10
1357.2512
20
-45.0913
10
1354.3491
20
-41.9933
10
1351.2545
20
-44.8921
10
1348.2561
20
-44.7925
10
1345.3535
20
-41.7144
10
1345.4425
20
-38.7356
10
1345.525
20
-35.7567
10
1348.6
20
-32.8506
8
gear_texts
0
LWPOLYLINE
90
2
70
0
43
0
10
1354.4388
20
-38.9946
10
1354.3491
20
-41.9933
8
gear_texts
0
LWPOLYLINE
90
9
70
0
43
0
10
1347.6777
20
-59.7148
10
1344.8092
20
-56.6047
10
1344.9313
20
-53.6271
10
1348.0446
20
-50.7622
10
1360.0361
20
-51.2137
10
1362.917
20
-54.3443
10
1362.7933
20
-57.3617
10
1359.6659
20
-60.246
10
1347.6777
20
-59.7148
8
gear_texts
0
LWPOLYLINE
90
11
70
0
43
0
10
1352.5797
20
-80.9518
10
1352.3971
20
-83.9462
10
1352.208
20
-86.9402
10
1352.0122
20
-89.9338
10
1354.8027
20
-93.1327
10
1357.7956
20
-93.3385
10
1360.9923
20
-90.5312
10
1361.1894
20
-87.5177
10
1361.3799
20
-84.5038
10
1361.5636
20
-81.4895
10
1343.5958
20
-80.4141
8
gear_texts
0
LWPOLYLINE
90
5
70
0
43
0
10
1353.446
20
-111.1214
10
1353.6887
20
-108.1245
10
1353.9248
20
-105.1272
10
1354.1542
20
-102.1293
10
1354.377
20
-99.1309
8
gear_texts
0
LWPOLYLINE
90
5
70
0
43
0
10
1347.4661
20
-110.6304
10
1347.7077
20
-107.6468
10
1347.9428
20
-104.6627
10
1348.1712
20
-101.6781
10
1348.393
20
-98.693
8
gear_texts
0
LWPOLYLINE
90
3
70
0
43
0
10
1355.9295
20
-117.3721
10
1358.6545
20
-120.6392
10
1340.7251
20
-119.0472
8
gear_texts
0
LWPOLYLINE
90
3
70
0
43
0
10
1340.4582
20
-122.0153
10
1340.7251
20
-119.0472
10
1340.9854
20
-116.0785
8
gear_texts
0
LWPOLYLINE
90
11
70
0
43
0
10
1347.3555
20
-143.7291
10
1347.034
20
-146.7118
10
1346.7059
20
-149.6938
10
1346.3712
20
-152.6751
10
1349.01
20
-156.0002
10
1351.9901
20
-156.3449
10
1355.3139
20
-153.6892
10
1355.6508
20
-150.6881
10
1355.9811
20
-147.6863
10
1356.3048
20
-144.6838
10
1338.4063
20
-142.7744
8
gear_texts
0
LWPOLYLINE
90
7
70
0
43
0
10
1336.3916
20
-160.5409
10
1342.3488
20
-161.2565
10
1347.9441
20
-164.9569
10
1353.5295
20
-168.6829
10
1347.2004
20
-170.9241
10
1340.8681
20
-173.138
10
1334.9175
20
-172.3696
8
gear_texts
0
LWPOLYLINE
90
5
70
0
43
0
10
1342.3488
20
-161.2565
10
1341.9885
20
-164.2281
10
1341.6216
20
-167.1989
10
1341.2481
20
-170.1689
10
1340.8681
20
-173.138
8
gear_texts
0
LWPOLYLINE
90
5
70
0
43
0
10
1344.3897
20
-191.7818
10
1344.811
20
-188.8048
10
1345.2258
20
-185.8269
10
1345.6339
20
-182.8481
10
1346.0354
20
-179.8684
8
gear_texts
0
LWPOLYLINE
90
5
70
0
43
0
10
1338.4499
20
-190.9345
10
1338.8693
20
-187.9706
10
1339.2822
20
-185.0059
10
1339.6885
20
-182.0403
10
1340.0883
20
-179.0737
8
gear_texts
0
LWPOLYLINE
90
15
70
0
43
0
10
1329.8674
20
-207.7711
10
1330.3241
20
-204.8262
10
1330.7743
20
-201.8803
10
1331.218
20
-198.9335
10
1331.6552
20
-195.9857
10
1337.5913
20
-196.8593
10
1340.1192
20
-200.2637
10
1339.6725
20
-203.2302
10
1339.2193
20
-206.1958
10
1341.7235
20
-209.6234
10
1344.6876
20
-210.0865
10
1348.1145
20
-207.5653
10
1348.5707
20
-204.5801
10
1349.0204
20
-201.5938
10
1346.4954
20
-198.1698
8
gear_texts
0
LWPOLYLINE
90
9
70
0
43
0
10
1330.4446
20
-222.9757
10
1327.9752
20
-219.5402
10
1328.458
20
-216.5995
10
1331.8963
20
-214.1339
10
1343.7441
20
-216.0388
10
1346.2234
20
-219.4961
10
1345.7341
20
-222.4761
10
1342.2795
20
-224.9592
10
1330.4446
20
-222.9757
8
gear_texts
0
LINE
10
10
20
0
30
0
11
-10
21
0
31
0
8
gear_guides
0
LINE
10
0
20
10
30
0
11
0
21
-10
31
0
8
gear_guides
0
CIRCLE
10
1496.7119
20
99.2644
30
0
40
39.25
8
gear_guides
0
CIRCLE
10
0
20
0
30
0
40
1500
8
gear_guides
0
CIRCLE
10
0
20
0
30
0
40
1600
8
gear_guides
0
CIRCLE
10
0
20
0
30
0
40
1409.5389
8
gear_guides
0
ENDSEC
0
EOF
