G04 #@! TF.FileFunction,Copper,L1,Top,Signal*
%FSLAX46Y46*%
G04 Gerber Fmt 4.6, Leading zero omitted, Abs format (unit mm)*
G04 Created by KiCad (PCBNEW 4.0.7) date 03/06/18 20:44:10*
%MOMM*%
%LPD*%
G01*
G04 APERTURE LIST*
%ADD10C,0.020000*%
%ADD11C,0.250000*%
%ADD12R,1.250000X1.000000*%
%ADD13R,1.600000X3.500000*%
%ADD14R,1.700000X1.700000*%
%ADD15O,1.700000X1.700000*%
%ADD16R,0.500000X0.250000*%
%ADD17R,1.000000X2.650000*%
%ADD18R,0.950000X1.170000*%
%ADD19C,0.508000*%
%ADD20C,0.381000*%
%ADD21C,0.254000*%
%ADD22C,0.762000*%
G04 APERTURE END LIST*
D10*
D11*
X136350476Y-121372381D02*
X136683809Y-122372381D01*
X137017143Y-121372381D01*
X137874286Y-122372381D02*
X137302857Y-122372381D01*
X137588571Y-122372381D02*
X137588571Y-121372381D01*
X137493333Y-121515238D01*
X137398095Y-121610476D01*
X137302857Y-121658095D01*
X134255238Y-124277381D02*
X134255238Y-123277381D01*
X134255238Y-123753571D02*
X134826667Y-123753571D01*
X134826667Y-124277381D02*
X134826667Y-123277381D01*
X135302857Y-123896429D02*
X136064762Y-123896429D01*
X136540952Y-124277381D02*
X136540952Y-123277381D01*
X136921905Y-123277381D01*
X137017143Y-123325000D01*
X137064762Y-123372619D01*
X137112381Y-123467857D01*
X137112381Y-123610714D01*
X137064762Y-123705952D01*
X137017143Y-123753571D01*
X136921905Y-123801190D01*
X136540952Y-123801190D01*
X137540952Y-124277381D02*
X137540952Y-123610714D01*
X137540952Y-123801190D02*
X137588571Y-123705952D01*
X137636190Y-123658333D01*
X137731428Y-123610714D01*
X137826667Y-123610714D01*
X138302857Y-124277381D02*
X138207619Y-124229762D01*
X138160000Y-124182143D01*
X138112381Y-124086905D01*
X138112381Y-123801190D01*
X138160000Y-123705952D01*
X138207619Y-123658333D01*
X138302857Y-123610714D01*
X138445715Y-123610714D01*
X138540953Y-123658333D01*
X138588572Y-123705952D01*
X138636191Y-123801190D01*
X138636191Y-124086905D01*
X138588572Y-124182143D01*
X138540953Y-124229762D01*
X138445715Y-124277381D01*
X138302857Y-124277381D01*
X138921905Y-123610714D02*
X139302857Y-123610714D01*
X139064762Y-123277381D02*
X139064762Y-124134524D01*
X139112381Y-124229762D01*
X139207619Y-124277381D01*
X139302857Y-124277381D01*
X139779048Y-124277381D02*
X139683810Y-124229762D01*
X139636191Y-124182143D01*
X139588572Y-124086905D01*
X139588572Y-123801190D01*
X139636191Y-123705952D01*
X139683810Y-123658333D01*
X139779048Y-123610714D01*
X139921906Y-123610714D01*
X140017144Y-123658333D01*
X140064763Y-123705952D01*
X140112382Y-123801190D01*
X140112382Y-124086905D01*
X140064763Y-124182143D01*
X140017144Y-124229762D01*
X139921906Y-124277381D01*
X139779048Y-124277381D01*
D12*
X137033000Y-107807000D03*
X137033000Y-105807000D03*
D13*
X137033000Y-101506000D03*
X137033000Y-96106000D03*
X130048000Y-101506000D03*
X130048000Y-96106000D03*
D12*
X135128000Y-109553500D03*
X135128000Y-111553500D03*
X135128000Y-113300000D03*
X135128000Y-115300000D03*
X135128000Y-107807000D03*
X135128000Y-105807000D03*
X142875000Y-105680000D03*
X142875000Y-107680000D03*
D14*
X128270000Y-114935000D03*
D15*
X128270000Y-112395000D03*
D14*
X128270000Y-121920000D03*
D15*
X128270000Y-119380000D03*
D14*
X146685000Y-112395000D03*
D15*
X146685000Y-114935000D03*
D14*
X146685000Y-119380000D03*
D15*
X146685000Y-121920000D03*
D14*
X128270000Y-107950000D03*
D15*
X128270000Y-105410000D03*
D16*
X139385000Y-108605000D03*
X139385000Y-109105000D03*
X139385000Y-109605000D03*
X139385000Y-110105000D03*
X139385000Y-110605000D03*
X139385000Y-111105000D03*
X141285000Y-111105000D03*
X141285000Y-110605000D03*
X141285000Y-110105000D03*
X141285000Y-109605000D03*
X141285000Y-109105000D03*
X141285000Y-108605000D03*
D17*
X140335000Y-109855000D03*
D18*
X140335000Y-110540000D03*
X140335000Y-109170000D03*
D14*
X146685000Y-102870000D03*
D15*
X146685000Y-105410000D03*
X146685000Y-107950000D03*
D19*
X130683000Y-101506000D02*
X130683000Y-107188000D01*
X129286000Y-107950000D02*
X128270000Y-107950000D01*
X130683000Y-107188000D02*
X129286000Y-107950000D01*
X137033000Y-101506000D02*
X130683000Y-101506000D01*
X137033000Y-101506000D02*
X136398000Y-103441500D01*
X134159500Y-107807000D02*
X135128000Y-107807000D01*
X133604000Y-107251500D02*
X134159500Y-107807000D01*
X133604000Y-104965500D02*
X133604000Y-107251500D01*
X134302500Y-104267000D02*
X133604000Y-104965500D01*
X135572500Y-104267000D02*
X134302500Y-104267000D01*
X136398000Y-103441500D02*
X135572500Y-104267000D01*
D20*
X139223750Y-108426250D02*
X139255500Y-108458000D01*
X138842750Y-108426250D02*
X139223750Y-108426250D01*
X138842750Y-108426250D02*
X138874500Y-108458000D01*
X138033000Y-107807000D02*
X138223500Y-107807000D01*
X138223500Y-107807000D02*
X138842750Y-108426250D01*
D19*
X137033000Y-107807000D02*
X138033000Y-107807000D01*
X138033000Y-107807000D02*
X138049000Y-107823000D01*
X135128000Y-107807000D02*
X137033000Y-107807000D01*
X137033000Y-101506000D02*
X137033000Y-102806500D01*
X130619500Y-102077500D02*
X130683000Y-101506000D01*
D20*
X134985000Y-107950000D02*
X135128000Y-107807000D01*
D21*
X139385000Y-108605000D02*
X138831000Y-108605000D01*
X138684000Y-108458000D02*
X138049000Y-107823000D01*
X138831000Y-108605000D02*
X138684000Y-108458000D01*
X138049000Y-107823000D02*
X137049000Y-107823000D01*
X137049000Y-107823000D02*
X137033000Y-107807000D01*
X139385000Y-111105000D02*
X139385000Y-111440000D01*
X139385000Y-111440000D02*
X139065000Y-111760000D01*
D22*
X140335000Y-109855000D02*
X140335000Y-113030000D01*
X140335000Y-109855000D02*
X140335000Y-107315000D01*
D19*
X146685000Y-102870000D02*
X145685000Y-102870000D01*
X145685000Y-102870000D02*
X142875000Y-105680000D01*
X128270000Y-112395000D02*
X130175000Y-112395000D01*
X133016500Y-109553500D02*
X135128000Y-109553500D01*
X130175000Y-112395000D02*
X133016500Y-109553500D01*
D20*
X136271000Y-108966000D02*
X135715500Y-108966000D01*
X135715500Y-108966000D02*
X135128000Y-109553500D01*
X138430000Y-108966000D02*
X138460142Y-108966000D01*
X138465071Y-108970929D02*
X138465071Y-108966000D01*
X138460142Y-108966000D02*
X138465071Y-108970929D01*
X138176000Y-108966000D02*
X138465071Y-108966000D01*
X136144000Y-108966000D02*
X136271000Y-108966000D01*
X136271000Y-108966000D02*
X138176000Y-108966000D01*
D21*
X138569000Y-109105000D02*
X138430000Y-108966000D01*
X138569000Y-109105000D02*
X139385000Y-109105000D01*
D19*
X128270000Y-114935000D02*
X130175000Y-114935000D01*
X133556500Y-111553500D02*
X135128000Y-111553500D01*
X130175000Y-114935000D02*
X133556500Y-111553500D01*
D20*
X128841500Y-114935000D02*
X128270000Y-114935000D01*
X136525000Y-110299500D02*
X136525000Y-111188500D01*
X136525000Y-111188500D02*
X136160000Y-111553500D01*
X136160000Y-111553500D02*
X135128000Y-111553500D01*
X138307000Y-109605000D02*
X137219500Y-109605000D01*
X137219500Y-109605000D02*
X136525000Y-110299500D01*
D21*
X139385000Y-109605000D02*
X138307000Y-109605000D01*
X138307000Y-109605000D02*
X138303000Y-109601000D01*
D19*
X128270000Y-119380000D02*
X130175000Y-119380000D01*
X133715000Y-113300000D02*
X135128000Y-113300000D01*
X131445000Y-115570000D02*
X133715000Y-113300000D01*
X131445000Y-118110000D02*
X131445000Y-115570000D01*
X130175000Y-119380000D02*
X131445000Y-118110000D01*
D20*
X128270000Y-119380000D02*
X128778000Y-119380000D01*
X134858000Y-113300000D02*
X135128000Y-113300000D01*
X137477500Y-110553500D02*
X137160000Y-110871000D01*
X137160000Y-110871000D02*
X137160000Y-112585500D01*
X137160000Y-112585500D02*
X136445500Y-113300000D01*
X136445500Y-113300000D02*
X135128000Y-113300000D01*
X138461750Y-110204250D02*
X137826750Y-110204250D01*
X137826750Y-110204250D02*
X137477500Y-110553500D01*
D21*
X139385000Y-110105000D02*
X138561000Y-110105000D01*
X138561000Y-110105000D02*
X138461750Y-110204250D01*
D19*
X128270000Y-121920000D02*
X129540000Y-121920000D01*
X133620000Y-115300000D02*
X135128000Y-115300000D01*
X132715000Y-116205000D02*
X133620000Y-115300000D01*
X132715000Y-118745000D02*
X132715000Y-116205000D01*
X129540000Y-121920000D02*
X132715000Y-118745000D01*
D20*
X128270000Y-121920000D02*
X128778000Y-121920000D01*
X135128000Y-115570000D02*
X135128000Y-115300000D01*
X137858500Y-111569500D02*
X137858500Y-114236500D01*
X137858500Y-114236500D02*
X136795000Y-115300000D01*
X136795000Y-115300000D02*
X135128000Y-115300000D01*
X138525250Y-110902750D02*
X137858500Y-111569500D01*
D21*
X139385000Y-110605000D02*
X138823000Y-110605000D01*
X138823000Y-110605000D02*
X138525250Y-110902750D01*
X138525250Y-110902750D02*
X138303000Y-111125000D01*
D19*
X143764000Y-110236000D02*
X144780000Y-111252000D01*
D21*
X143133000Y-109605000D02*
X143764000Y-110236000D01*
X141285000Y-109605000D02*
X143133000Y-109605000D01*
D19*
X145415000Y-112395000D02*
X146685000Y-112395000D01*
X144780000Y-111760000D02*
X145415000Y-112395000D01*
X144780000Y-111252000D02*
X144780000Y-111760000D01*
X143256000Y-110744000D02*
X144018000Y-111506000D01*
D21*
X142617000Y-110105000D02*
X143256000Y-110744000D01*
X141285000Y-110105000D02*
X142617000Y-110105000D01*
D19*
X145161000Y-114935000D02*
X146685000Y-114935000D01*
X144018000Y-113792000D02*
X145161000Y-114935000D01*
X144018000Y-111506000D02*
X144018000Y-113792000D01*
X142748000Y-111252000D02*
X142748000Y-117348000D01*
D21*
X142101000Y-110605000D02*
X142748000Y-111252000D01*
X141285000Y-110605000D02*
X142101000Y-110605000D01*
D19*
X144780000Y-119380000D02*
X146685000Y-119380000D01*
X142748000Y-117348000D02*
X144780000Y-119380000D01*
D21*
X141285000Y-111105000D02*
X141775500Y-111105000D01*
X141795500Y-111760000D02*
X141793000Y-111760000D01*
X141795500Y-111125000D02*
X141795500Y-111760000D01*
X141775500Y-111105000D02*
X141795500Y-111125000D01*
D19*
X141793000Y-111760000D02*
X141793000Y-118425000D01*
X144526000Y-121920000D02*
X146685000Y-121920000D01*
X141793000Y-118425000D02*
X144526000Y-121920000D01*
X146685000Y-105410000D02*
X146050000Y-105410000D01*
X146050000Y-105410000D02*
X143780000Y-107680000D01*
X143780000Y-107680000D02*
X142875000Y-107680000D01*
D21*
X141285000Y-108605000D02*
X142220000Y-108605000D01*
X142220000Y-108605000D02*
X142875000Y-107950000D01*
X142875000Y-107950000D02*
X142875000Y-107680000D01*
D19*
X144780000Y-107950000D02*
X143625000Y-109105000D01*
X146685000Y-107950000D02*
X144780000Y-107950000D01*
D21*
X143625000Y-109105000D02*
X141285000Y-109105000D01*
G36*
X128613000Y-94229691D02*
X128613000Y-95820250D01*
X128771750Y-95979000D01*
X129921000Y-95979000D01*
X129921000Y-95959000D01*
X130175000Y-95959000D01*
X130175000Y-95979000D01*
X131324250Y-95979000D01*
X131483000Y-95820250D01*
X131483000Y-94229691D01*
X131410641Y-94055000D01*
X135670359Y-94055000D01*
X135598000Y-94229691D01*
X135598000Y-95820250D01*
X135756750Y-95979000D01*
X136906000Y-95979000D01*
X136906000Y-95959000D01*
X137160000Y-95959000D01*
X137160000Y-95979000D01*
X138309250Y-95979000D01*
X138468000Y-95820250D01*
X138468000Y-94229691D01*
X138395641Y-94055000D01*
X149150000Y-94055000D01*
X149150000Y-125020000D01*
X140937858Y-125020000D01*
X140937858Y-122365000D01*
X138699762Y-122365000D01*
X138699762Y-120460000D01*
X135620238Y-120460000D01*
X135620238Y-122365000D01*
X133382143Y-122365000D01*
X133382143Y-125020000D01*
X125805000Y-125020000D01*
X125805000Y-112395000D01*
X126755907Y-112395000D01*
X126868946Y-112963285D01*
X127190853Y-113445054D01*
X127232452Y-113472850D01*
X127184683Y-113481838D01*
X126968559Y-113620910D01*
X126823569Y-113833110D01*
X126772560Y-114085000D01*
X126772560Y-115785000D01*
X126816838Y-116020317D01*
X126955910Y-116236441D01*
X127168110Y-116381431D01*
X127420000Y-116432440D01*
X129120000Y-116432440D01*
X129355317Y-116388162D01*
X129571441Y-116249090D01*
X129716431Y-116036890D01*
X129759542Y-115824000D01*
X130175000Y-115824000D01*
X130515206Y-115756329D01*
X130556000Y-115729071D01*
X130556000Y-117741764D01*
X129806764Y-118491000D01*
X129456760Y-118491000D01*
X129349147Y-118329946D01*
X128867378Y-118008039D01*
X128299093Y-117895000D01*
X128240907Y-117895000D01*
X127672622Y-118008039D01*
X127190853Y-118329946D01*
X126868946Y-118811715D01*
X126755907Y-119380000D01*
X126868946Y-119948285D01*
X127190853Y-120430054D01*
X127232452Y-120457850D01*
X127184683Y-120466838D01*
X126968559Y-120605910D01*
X126823569Y-120818110D01*
X126772560Y-121070000D01*
X126772560Y-122770000D01*
X126816838Y-123005317D01*
X126955910Y-123221441D01*
X127168110Y-123366431D01*
X127420000Y-123417440D01*
X129120000Y-123417440D01*
X129355317Y-123373162D01*
X129571441Y-123234090D01*
X129716431Y-123021890D01*
X129767440Y-122770000D01*
X129767440Y-122763759D01*
X129880206Y-122741329D01*
X130168618Y-122548618D01*
X133343618Y-119373618D01*
X133536329Y-119085206D01*
X133604000Y-118745000D01*
X133604000Y-116573236D01*
X133988236Y-116189000D01*
X133998730Y-116189000D01*
X134038910Y-116251441D01*
X134251110Y-116396431D01*
X134503000Y-116447440D01*
X135753000Y-116447440D01*
X135988317Y-116403162D01*
X136204441Y-116264090D01*
X136299135Y-116125500D01*
X136795000Y-116125500D01*
X137110906Y-116062663D01*
X137378717Y-115883717D01*
X138442217Y-114820217D01*
X138621163Y-114552406D01*
X138684000Y-114236500D01*
X138684000Y-111911434D01*
X138811934Y-111783500D01*
X139008691Y-111865000D01*
X139101250Y-111865000D01*
X139260000Y-111706250D01*
X139260000Y-111451163D01*
X139296673Y-111539699D01*
X139475302Y-111718327D01*
X139555152Y-111751402D01*
X139668750Y-111865000D01*
X139761309Y-111865000D01*
X139882020Y-111815000D01*
X140049250Y-111815000D01*
X140208000Y-111656250D01*
X140208000Y-111505991D01*
X140270000Y-111356310D01*
X140270000Y-111326250D01*
X140208000Y-111264250D01*
X140208000Y-111016182D01*
X140231431Y-110981890D01*
X140246558Y-110907192D01*
X140270000Y-110883750D01*
X140270000Y-110853690D01*
X140261532Y-110833247D01*
X140282440Y-110730000D01*
X140282440Y-110480000D01*
X140258056Y-110350411D01*
X140282440Y-110230000D01*
X140282440Y-109980000D01*
X140258056Y-109850411D01*
X140282440Y-109730000D01*
X140282440Y-109480000D01*
X140258056Y-109350411D01*
X140282440Y-109230000D01*
X140282440Y-108980000D01*
X140258056Y-108850411D01*
X140282440Y-108730000D01*
X140282440Y-108480000D01*
X140387560Y-108480000D01*
X140387560Y-108730000D01*
X140411944Y-108859589D01*
X140387560Y-108980000D01*
X140387560Y-109230000D01*
X140411944Y-109359589D01*
X140387560Y-109480000D01*
X140387560Y-109730000D01*
X140411944Y-109859589D01*
X140387560Y-109980000D01*
X140387560Y-110230000D01*
X140411944Y-110359589D01*
X140387560Y-110480000D01*
X140387560Y-110730000D01*
X140411944Y-110859589D01*
X140387560Y-110980000D01*
X140387560Y-111230000D01*
X140431838Y-111465317D01*
X140462000Y-111512190D01*
X140462000Y-111656250D01*
X140620750Y-111815000D01*
X140766380Y-111815000D01*
X140783110Y-111826431D01*
X140904000Y-111850912D01*
X140904000Y-118425000D01*
X140927468Y-118542981D01*
X140936434Y-118662941D01*
X140961022Y-118711672D01*
X140971671Y-118765206D01*
X141038503Y-118865227D01*
X141092692Y-118972622D01*
X143825693Y-122467623D01*
X143867057Y-122503234D01*
X143897382Y-122548618D01*
X143997403Y-122615450D01*
X144088567Y-122693934D01*
X144140411Y-122711005D01*
X144185794Y-122741329D01*
X144303774Y-122764797D01*
X144418035Y-122802420D01*
X144472467Y-122798352D01*
X144526000Y-122809000D01*
X145498240Y-122809000D01*
X145605853Y-122970054D01*
X146087622Y-123291961D01*
X146655907Y-123405000D01*
X146714093Y-123405000D01*
X147282378Y-123291961D01*
X147764147Y-122970054D01*
X148086054Y-122488285D01*
X148199093Y-121920000D01*
X148086054Y-121351715D01*
X147764147Y-120869946D01*
X147722548Y-120842150D01*
X147770317Y-120833162D01*
X147986441Y-120694090D01*
X148131431Y-120481890D01*
X148182440Y-120230000D01*
X148182440Y-118530000D01*
X148138162Y-118294683D01*
X147999090Y-118078559D01*
X147786890Y-117933569D01*
X147535000Y-117882560D01*
X145835000Y-117882560D01*
X145599683Y-117926838D01*
X145383559Y-118065910D01*
X145238569Y-118278110D01*
X145195458Y-118491000D01*
X145148236Y-118491000D01*
X143637000Y-116979764D01*
X143637000Y-114668236D01*
X144532382Y-115563618D01*
X144820794Y-115756329D01*
X145161000Y-115824000D01*
X145498240Y-115824000D01*
X145605853Y-115985054D01*
X146087622Y-116306961D01*
X146655907Y-116420000D01*
X146714093Y-116420000D01*
X147282378Y-116306961D01*
X147764147Y-115985054D01*
X148086054Y-115503285D01*
X148199093Y-114935000D01*
X148086054Y-114366715D01*
X147764147Y-113884946D01*
X147722548Y-113857150D01*
X147770317Y-113848162D01*
X147986441Y-113709090D01*
X148131431Y-113496890D01*
X148182440Y-113245000D01*
X148182440Y-111545000D01*
X148138162Y-111309683D01*
X147999090Y-111093559D01*
X147786890Y-110948569D01*
X147535000Y-110897560D01*
X145835000Y-110897560D01*
X145607030Y-110940456D01*
X145601329Y-110911794D01*
X145408618Y-110623382D01*
X144392618Y-109607382D01*
X144384967Y-109602269D01*
X145148236Y-108839000D01*
X145498240Y-108839000D01*
X145605853Y-109000054D01*
X146087622Y-109321961D01*
X146655907Y-109435000D01*
X146714093Y-109435000D01*
X147282378Y-109321961D01*
X147764147Y-109000054D01*
X148086054Y-108518285D01*
X148199093Y-107950000D01*
X148086054Y-107381715D01*
X147764147Y-106899946D01*
X147434974Y-106680000D01*
X147764147Y-106460054D01*
X148086054Y-105978285D01*
X148199093Y-105410000D01*
X148086054Y-104841715D01*
X147764147Y-104359946D01*
X147720223Y-104330597D01*
X147894698Y-104258327D01*
X148073327Y-104079699D01*
X148170000Y-103846310D01*
X148170000Y-103155750D01*
X148011250Y-102997000D01*
X146812000Y-102997000D01*
X146812000Y-103017000D01*
X146558000Y-103017000D01*
X146558000Y-102997000D01*
X145358750Y-102997000D01*
X145200000Y-103155750D01*
X145200000Y-103846310D01*
X145296673Y-104079699D01*
X145475302Y-104258327D01*
X145649777Y-104330597D01*
X145605853Y-104359946D01*
X145283946Y-104841715D01*
X145264801Y-104937963D01*
X144135000Y-106067764D01*
X144135000Y-105965750D01*
X143976250Y-105807000D01*
X143002000Y-105807000D01*
X143002000Y-105827000D01*
X142748000Y-105827000D01*
X142748000Y-105807000D01*
X141773750Y-105807000D01*
X141615000Y-105965750D01*
X141615000Y-106306309D01*
X141711673Y-106539698D01*
X141852910Y-106680936D01*
X141798559Y-106715910D01*
X141653569Y-106928110D01*
X141602560Y-107180000D01*
X141602560Y-107843000D01*
X141586554Y-107843000D01*
X141535000Y-107832560D01*
X141035000Y-107832560D01*
X140799683Y-107876838D01*
X140771458Y-107895000D01*
X140620750Y-107895000D01*
X140462000Y-108053750D01*
X140462000Y-108193818D01*
X140438569Y-108228110D01*
X140387560Y-108480000D01*
X140282440Y-108480000D01*
X140238162Y-108244683D01*
X140208000Y-108197810D01*
X140208000Y-108053750D01*
X140049250Y-107895000D01*
X139903620Y-107895000D01*
X139886890Y-107883569D01*
X139838754Y-107873821D01*
X139807467Y-107842533D01*
X139539656Y-107663587D01*
X139223750Y-107600750D01*
X139184683Y-107600750D01*
X138807217Y-107223283D01*
X138539406Y-107044337D01*
X138427774Y-107022132D01*
X138373206Y-106985671D01*
X138181244Y-106947488D01*
X138122090Y-106855559D01*
X138053994Y-106809031D01*
X138196327Y-106666698D01*
X138293000Y-106433309D01*
X138293000Y-106092750D01*
X138134250Y-105934000D01*
X137160000Y-105934000D01*
X137160000Y-105954000D01*
X136906000Y-105954000D01*
X136906000Y-105934000D01*
X135255000Y-105934000D01*
X135255000Y-105954000D01*
X135001000Y-105954000D01*
X135001000Y-105934000D01*
X134981000Y-105934000D01*
X134981000Y-105680000D01*
X135001000Y-105680000D01*
X135001000Y-105660000D01*
X135255000Y-105660000D01*
X135255000Y-105680000D01*
X136906000Y-105680000D01*
X136906000Y-104830750D01*
X137160000Y-104830750D01*
X137160000Y-105680000D01*
X138134250Y-105680000D01*
X138293000Y-105521250D01*
X138293000Y-105180691D01*
X138240395Y-105053691D01*
X141615000Y-105053691D01*
X141615000Y-105394250D01*
X141773750Y-105553000D01*
X142748000Y-105553000D01*
X142748000Y-104703750D01*
X143002000Y-104703750D01*
X143002000Y-105553000D01*
X143976250Y-105553000D01*
X144135000Y-105394250D01*
X144135000Y-105053691D01*
X144038327Y-104820302D01*
X143859699Y-104641673D01*
X143626310Y-104545000D01*
X143160750Y-104545000D01*
X143002000Y-104703750D01*
X142748000Y-104703750D01*
X142589250Y-104545000D01*
X142123690Y-104545000D01*
X141890301Y-104641673D01*
X141711673Y-104820302D01*
X141615000Y-105053691D01*
X138240395Y-105053691D01*
X138196327Y-104947302D01*
X138017699Y-104768673D01*
X137784310Y-104672000D01*
X137318750Y-104672000D01*
X137160000Y-104830750D01*
X136906000Y-104830750D01*
X136747250Y-104672000D01*
X136424736Y-104672000D01*
X137026618Y-104070118D01*
X137045541Y-104041798D01*
X137072349Y-104020788D01*
X137138508Y-103903440D01*
X137833000Y-103903440D01*
X138068317Y-103859162D01*
X138284441Y-103720090D01*
X138429431Y-103507890D01*
X138480440Y-103256000D01*
X138480440Y-101893690D01*
X145200000Y-101893690D01*
X145200000Y-102584250D01*
X145358750Y-102743000D01*
X146558000Y-102743000D01*
X146558000Y-101543750D01*
X146812000Y-101543750D01*
X146812000Y-102743000D01*
X148011250Y-102743000D01*
X148170000Y-102584250D01*
X148170000Y-101893690D01*
X148073327Y-101660301D01*
X147894698Y-101481673D01*
X147661309Y-101385000D01*
X146970750Y-101385000D01*
X146812000Y-101543750D01*
X146558000Y-101543750D01*
X146399250Y-101385000D01*
X145708691Y-101385000D01*
X145475302Y-101481673D01*
X145296673Y-101660301D01*
X145200000Y-101893690D01*
X138480440Y-101893690D01*
X138480440Y-99756000D01*
X138436162Y-99520683D01*
X138297090Y-99304559D01*
X138084890Y-99159569D01*
X137833000Y-99108560D01*
X136233000Y-99108560D01*
X135997683Y-99152838D01*
X135781559Y-99291910D01*
X135636569Y-99504110D01*
X135585560Y-99756000D01*
X135585560Y-100617000D01*
X131495440Y-100617000D01*
X131495440Y-99756000D01*
X131451162Y-99520683D01*
X131312090Y-99304559D01*
X131099890Y-99159569D01*
X130848000Y-99108560D01*
X129248000Y-99108560D01*
X129012683Y-99152838D01*
X128796559Y-99291910D01*
X128651569Y-99504110D01*
X128600560Y-99756000D01*
X128600560Y-103256000D01*
X128644838Y-103491317D01*
X128783910Y-103707441D01*
X128996110Y-103852431D01*
X129248000Y-103903440D01*
X129794000Y-103903440D01*
X129794000Y-106660260D01*
X129644198Y-106741970D01*
X129584090Y-106648559D01*
X129371890Y-106503569D01*
X129263893Y-106481699D01*
X129541645Y-106176924D01*
X129711476Y-105766890D01*
X129590155Y-105537000D01*
X128397000Y-105537000D01*
X128397000Y-105557000D01*
X128143000Y-105557000D01*
X128143000Y-105537000D01*
X126949845Y-105537000D01*
X126828524Y-105766890D01*
X126998355Y-106176924D01*
X127274501Y-106479937D01*
X127184683Y-106496838D01*
X126968559Y-106635910D01*
X126823569Y-106848110D01*
X126772560Y-107100000D01*
X126772560Y-108800000D01*
X126816838Y-109035317D01*
X126955910Y-109251441D01*
X127168110Y-109396431D01*
X127420000Y-109447440D01*
X129120000Y-109447440D01*
X129355317Y-109403162D01*
X129571441Y-109264090D01*
X129716431Y-109051890D01*
X129767440Y-108800000D01*
X129767440Y-108700045D01*
X131108699Y-107968449D01*
X131206103Y-107887121D01*
X131311618Y-107816618D01*
X131338214Y-107776814D01*
X131374960Y-107746133D01*
X131433828Y-107633718D01*
X131504329Y-107528206D01*
X131513668Y-107481254D01*
X131535876Y-107438846D01*
X131547244Y-107312460D01*
X131572000Y-107188000D01*
X131572000Y-102395000D01*
X135585560Y-102395000D01*
X135585560Y-102996704D01*
X135204264Y-103378000D01*
X134302500Y-103378000D01*
X133962294Y-103445671D01*
X133689676Y-103627829D01*
X133673882Y-103638382D01*
X132975382Y-104336882D01*
X132782671Y-104625294D01*
X132715000Y-104965500D01*
X132715000Y-107251500D01*
X132782671Y-107591706D01*
X132950269Y-107842534D01*
X132975382Y-107880118D01*
X133530882Y-108435618D01*
X133819295Y-108628330D01*
X133975132Y-108659327D01*
X133978461Y-108664500D01*
X133016500Y-108664500D01*
X132676294Y-108732171D01*
X132429604Y-108897004D01*
X132387882Y-108924882D01*
X129806764Y-111506000D01*
X129456760Y-111506000D01*
X129349147Y-111344946D01*
X128867378Y-111023039D01*
X128299093Y-110910000D01*
X128240907Y-110910000D01*
X127672622Y-111023039D01*
X127190853Y-111344946D01*
X126868946Y-111826715D01*
X126755907Y-112395000D01*
X125805000Y-112395000D01*
X125805000Y-105053110D01*
X126828524Y-105053110D01*
X126949845Y-105283000D01*
X128143000Y-105283000D01*
X128143000Y-104089181D01*
X128397000Y-104089181D01*
X128397000Y-105283000D01*
X129590155Y-105283000D01*
X129711476Y-105053110D01*
X129541645Y-104643076D01*
X129151358Y-104214817D01*
X128626892Y-103968514D01*
X128397000Y-104089181D01*
X128143000Y-104089181D01*
X127913108Y-103968514D01*
X127388642Y-104214817D01*
X126998355Y-104643076D01*
X126828524Y-105053110D01*
X125805000Y-105053110D01*
X125805000Y-96391750D01*
X128613000Y-96391750D01*
X128613000Y-97982309D01*
X128709673Y-98215698D01*
X128888301Y-98394327D01*
X129121690Y-98491000D01*
X129762250Y-98491000D01*
X129921000Y-98332250D01*
X129921000Y-96233000D01*
X130175000Y-96233000D01*
X130175000Y-98332250D01*
X130333750Y-98491000D01*
X130974310Y-98491000D01*
X131207699Y-98394327D01*
X131386327Y-98215698D01*
X131483000Y-97982309D01*
X131483000Y-96391750D01*
X135598000Y-96391750D01*
X135598000Y-97982309D01*
X135694673Y-98215698D01*
X135873301Y-98394327D01*
X136106690Y-98491000D01*
X136747250Y-98491000D01*
X136906000Y-98332250D01*
X136906000Y-96233000D01*
X137160000Y-96233000D01*
X137160000Y-98332250D01*
X137318750Y-98491000D01*
X137959310Y-98491000D01*
X138192699Y-98394327D01*
X138371327Y-98215698D01*
X138468000Y-97982309D01*
X138468000Y-96391750D01*
X138309250Y-96233000D01*
X137160000Y-96233000D01*
X136906000Y-96233000D01*
X135756750Y-96233000D01*
X135598000Y-96391750D01*
X131483000Y-96391750D01*
X131324250Y-96233000D01*
X130175000Y-96233000D01*
X129921000Y-96233000D01*
X128771750Y-96233000D01*
X128613000Y-96391750D01*
X125805000Y-96391750D01*
X125805000Y-94055000D01*
X128685359Y-94055000D01*
X128613000Y-94229691D01*
X128613000Y-94229691D01*
G37*
X128613000Y-94229691D02*
X128613000Y-95820250D01*
X128771750Y-95979000D01*
X129921000Y-95979000D01*
X129921000Y-95959000D01*
X130175000Y-95959000D01*
X130175000Y-95979000D01*
X131324250Y-95979000D01*
X131483000Y-95820250D01*
X131483000Y-94229691D01*
X131410641Y-94055000D01*
X135670359Y-94055000D01*
X135598000Y-94229691D01*
X135598000Y-95820250D01*
X135756750Y-95979000D01*
X136906000Y-95979000D01*
X136906000Y-95959000D01*
X137160000Y-95959000D01*
X137160000Y-95979000D01*
X138309250Y-95979000D01*
X138468000Y-95820250D01*
X138468000Y-94229691D01*
X138395641Y-94055000D01*
X149150000Y-94055000D01*
X149150000Y-125020000D01*
X140937858Y-125020000D01*
X140937858Y-122365000D01*
X138699762Y-122365000D01*
X138699762Y-120460000D01*
X135620238Y-120460000D01*
X135620238Y-122365000D01*
X133382143Y-122365000D01*
X133382143Y-125020000D01*
X125805000Y-125020000D01*
X125805000Y-112395000D01*
X126755907Y-112395000D01*
X126868946Y-112963285D01*
X127190853Y-113445054D01*
X127232452Y-113472850D01*
X127184683Y-113481838D01*
X126968559Y-113620910D01*
X126823569Y-113833110D01*
X126772560Y-114085000D01*
X126772560Y-115785000D01*
X126816838Y-116020317D01*
X126955910Y-116236441D01*
X127168110Y-116381431D01*
X127420000Y-116432440D01*
X129120000Y-116432440D01*
X129355317Y-116388162D01*
X129571441Y-116249090D01*
X129716431Y-116036890D01*
X129759542Y-115824000D01*
X130175000Y-115824000D01*
X130515206Y-115756329D01*
X130556000Y-115729071D01*
X130556000Y-117741764D01*
X129806764Y-118491000D01*
X129456760Y-118491000D01*
X129349147Y-118329946D01*
X128867378Y-118008039D01*
X128299093Y-117895000D01*
X128240907Y-117895000D01*
X127672622Y-118008039D01*
X127190853Y-118329946D01*
X126868946Y-118811715D01*
X126755907Y-119380000D01*
X126868946Y-119948285D01*
X127190853Y-120430054D01*
X127232452Y-120457850D01*
X127184683Y-120466838D01*
X126968559Y-120605910D01*
X126823569Y-120818110D01*
X126772560Y-121070000D01*
X126772560Y-122770000D01*
X126816838Y-123005317D01*
X126955910Y-123221441D01*
X127168110Y-123366431D01*
X127420000Y-123417440D01*
X129120000Y-123417440D01*
X129355317Y-123373162D01*
X129571441Y-123234090D01*
X129716431Y-123021890D01*
X129767440Y-122770000D01*
X129767440Y-122763759D01*
X129880206Y-122741329D01*
X130168618Y-122548618D01*
X133343618Y-119373618D01*
X133536329Y-119085206D01*
X133604000Y-118745000D01*
X133604000Y-116573236D01*
X133988236Y-116189000D01*
X133998730Y-116189000D01*
X134038910Y-116251441D01*
X134251110Y-116396431D01*
X134503000Y-116447440D01*
X135753000Y-116447440D01*
X135988317Y-116403162D01*
X136204441Y-116264090D01*
X136299135Y-116125500D01*
X136795000Y-116125500D01*
X137110906Y-116062663D01*
X137378717Y-115883717D01*
X138442217Y-114820217D01*
X138621163Y-114552406D01*
X138684000Y-114236500D01*
X138684000Y-111911434D01*
X138811934Y-111783500D01*
X139008691Y-111865000D01*
X139101250Y-111865000D01*
X139260000Y-111706250D01*
X139260000Y-111451163D01*
X139296673Y-111539699D01*
X139475302Y-111718327D01*
X139555152Y-111751402D01*
X139668750Y-111865000D01*
X139761309Y-111865000D01*
X139882020Y-111815000D01*
X140049250Y-111815000D01*
X140208000Y-111656250D01*
X140208000Y-111505991D01*
X140270000Y-111356310D01*
X140270000Y-111326250D01*
X140208000Y-111264250D01*
X140208000Y-111016182D01*
X140231431Y-110981890D01*
X140246558Y-110907192D01*
X140270000Y-110883750D01*
X140270000Y-110853690D01*
X140261532Y-110833247D01*
X140282440Y-110730000D01*
X140282440Y-110480000D01*
X140258056Y-110350411D01*
X140282440Y-110230000D01*
X140282440Y-109980000D01*
X140258056Y-109850411D01*
X140282440Y-109730000D01*
X140282440Y-109480000D01*
X140258056Y-109350411D01*
X140282440Y-109230000D01*
X140282440Y-108980000D01*
X140258056Y-108850411D01*
X140282440Y-108730000D01*
X140282440Y-108480000D01*
X140387560Y-108480000D01*
X140387560Y-108730000D01*
X140411944Y-108859589D01*
X140387560Y-108980000D01*
X140387560Y-109230000D01*
X140411944Y-109359589D01*
X140387560Y-109480000D01*
X140387560Y-109730000D01*
X140411944Y-109859589D01*
X140387560Y-109980000D01*
X140387560Y-110230000D01*
X140411944Y-110359589D01*
X140387560Y-110480000D01*
X140387560Y-110730000D01*
X140411944Y-110859589D01*
X140387560Y-110980000D01*
X140387560Y-111230000D01*
X140431838Y-111465317D01*
X140462000Y-111512190D01*
X140462000Y-111656250D01*
X140620750Y-111815000D01*
X140766380Y-111815000D01*
X140783110Y-111826431D01*
X140904000Y-111850912D01*
X140904000Y-118425000D01*
X140927468Y-118542981D01*
X140936434Y-118662941D01*
X140961022Y-118711672D01*
X140971671Y-118765206D01*
X141038503Y-118865227D01*
X141092692Y-118972622D01*
X143825693Y-122467623D01*
X143867057Y-122503234D01*
X143897382Y-122548618D01*
X143997403Y-122615450D01*
X144088567Y-122693934D01*
X144140411Y-122711005D01*
X144185794Y-122741329D01*
X144303774Y-122764797D01*
X144418035Y-122802420D01*
X144472467Y-122798352D01*
X144526000Y-122809000D01*
X145498240Y-122809000D01*
X145605853Y-122970054D01*
X146087622Y-123291961D01*
X146655907Y-123405000D01*
X146714093Y-123405000D01*
X147282378Y-123291961D01*
X147764147Y-122970054D01*
X148086054Y-122488285D01*
X148199093Y-121920000D01*
X148086054Y-121351715D01*
X147764147Y-120869946D01*
X147722548Y-120842150D01*
X147770317Y-120833162D01*
X147986441Y-120694090D01*
X148131431Y-120481890D01*
X148182440Y-120230000D01*
X148182440Y-118530000D01*
X148138162Y-118294683D01*
X147999090Y-118078559D01*
X147786890Y-117933569D01*
X147535000Y-117882560D01*
X145835000Y-117882560D01*
X145599683Y-117926838D01*
X145383559Y-118065910D01*
X145238569Y-118278110D01*
X145195458Y-118491000D01*
X145148236Y-118491000D01*
X143637000Y-116979764D01*
X143637000Y-114668236D01*
X144532382Y-115563618D01*
X144820794Y-115756329D01*
X145161000Y-115824000D01*
X145498240Y-115824000D01*
X145605853Y-115985054D01*
X146087622Y-116306961D01*
X146655907Y-116420000D01*
X146714093Y-116420000D01*
X147282378Y-116306961D01*
X147764147Y-115985054D01*
X148086054Y-115503285D01*
X148199093Y-114935000D01*
X148086054Y-114366715D01*
X147764147Y-113884946D01*
X147722548Y-113857150D01*
X147770317Y-113848162D01*
X147986441Y-113709090D01*
X148131431Y-113496890D01*
X148182440Y-113245000D01*
X148182440Y-111545000D01*
X148138162Y-111309683D01*
X147999090Y-111093559D01*
X147786890Y-110948569D01*
X147535000Y-110897560D01*
X145835000Y-110897560D01*
X145607030Y-110940456D01*
X145601329Y-110911794D01*
X145408618Y-110623382D01*
X144392618Y-109607382D01*
X144384967Y-109602269D01*
X145148236Y-108839000D01*
X145498240Y-108839000D01*
X145605853Y-109000054D01*
X146087622Y-109321961D01*
X146655907Y-109435000D01*
X146714093Y-109435000D01*
X147282378Y-109321961D01*
X147764147Y-109000054D01*
X148086054Y-108518285D01*
X148199093Y-107950000D01*
X148086054Y-107381715D01*
X147764147Y-106899946D01*
X147434974Y-106680000D01*
X147764147Y-106460054D01*
X148086054Y-105978285D01*
X148199093Y-105410000D01*
X148086054Y-104841715D01*
X147764147Y-104359946D01*
X147720223Y-104330597D01*
X147894698Y-104258327D01*
X148073327Y-104079699D01*
X148170000Y-103846310D01*
X148170000Y-103155750D01*
X148011250Y-102997000D01*
X146812000Y-102997000D01*
X146812000Y-103017000D01*
X146558000Y-103017000D01*
X146558000Y-102997000D01*
X145358750Y-102997000D01*
X145200000Y-103155750D01*
X145200000Y-103846310D01*
X145296673Y-104079699D01*
X145475302Y-104258327D01*
X145649777Y-104330597D01*
X145605853Y-104359946D01*
X145283946Y-104841715D01*
X145264801Y-104937963D01*
X144135000Y-106067764D01*
X144135000Y-105965750D01*
X143976250Y-105807000D01*
X143002000Y-105807000D01*
X143002000Y-105827000D01*
X142748000Y-105827000D01*
X142748000Y-105807000D01*
X141773750Y-105807000D01*
X141615000Y-105965750D01*
X141615000Y-106306309D01*
X141711673Y-106539698D01*
X141852910Y-106680936D01*
X141798559Y-106715910D01*
X141653569Y-106928110D01*
X141602560Y-107180000D01*
X141602560Y-107843000D01*
X141586554Y-107843000D01*
X141535000Y-107832560D01*
X141035000Y-107832560D01*
X140799683Y-107876838D01*
X140771458Y-107895000D01*
X140620750Y-107895000D01*
X140462000Y-108053750D01*
X140462000Y-108193818D01*
X140438569Y-108228110D01*
X140387560Y-108480000D01*
X140282440Y-108480000D01*
X140238162Y-108244683D01*
X140208000Y-108197810D01*
X140208000Y-108053750D01*
X140049250Y-107895000D01*
X139903620Y-107895000D01*
X139886890Y-107883569D01*
X139838754Y-107873821D01*
X139807467Y-107842533D01*
X139539656Y-107663587D01*
X139223750Y-107600750D01*
X139184683Y-107600750D01*
X138807217Y-107223283D01*
X138539406Y-107044337D01*
X138427774Y-107022132D01*
X138373206Y-106985671D01*
X138181244Y-106947488D01*
X138122090Y-106855559D01*
X138053994Y-106809031D01*
X138196327Y-106666698D01*
X138293000Y-106433309D01*
X138293000Y-106092750D01*
X138134250Y-105934000D01*
X137160000Y-105934000D01*
X137160000Y-105954000D01*
X136906000Y-105954000D01*
X136906000Y-105934000D01*
X135255000Y-105934000D01*
X135255000Y-105954000D01*
X135001000Y-105954000D01*
X135001000Y-105934000D01*
X134981000Y-105934000D01*
X134981000Y-105680000D01*
X135001000Y-105680000D01*
X135001000Y-105660000D01*
X135255000Y-105660000D01*
X135255000Y-105680000D01*
X136906000Y-105680000D01*
X136906000Y-104830750D01*
X137160000Y-104830750D01*
X137160000Y-105680000D01*
X138134250Y-105680000D01*
X138293000Y-105521250D01*
X138293000Y-105180691D01*
X138240395Y-105053691D01*
X141615000Y-105053691D01*
X141615000Y-105394250D01*
X141773750Y-105553000D01*
X142748000Y-105553000D01*
X142748000Y-104703750D01*
X143002000Y-104703750D01*
X143002000Y-105553000D01*
X143976250Y-105553000D01*
X144135000Y-105394250D01*
X144135000Y-105053691D01*
X144038327Y-104820302D01*
X143859699Y-104641673D01*
X143626310Y-104545000D01*
X143160750Y-104545000D01*
X143002000Y-104703750D01*
X142748000Y-104703750D01*
X142589250Y-104545000D01*
X142123690Y-104545000D01*
X141890301Y-104641673D01*
X141711673Y-104820302D01*
X141615000Y-105053691D01*
X138240395Y-105053691D01*
X138196327Y-104947302D01*
X138017699Y-104768673D01*
X137784310Y-104672000D01*
X137318750Y-104672000D01*
X137160000Y-104830750D01*
X136906000Y-104830750D01*
X136747250Y-104672000D01*
X136424736Y-104672000D01*
X137026618Y-104070118D01*
X137045541Y-104041798D01*
X137072349Y-104020788D01*
X137138508Y-103903440D01*
X137833000Y-103903440D01*
X138068317Y-103859162D01*
X138284441Y-103720090D01*
X138429431Y-103507890D01*
X138480440Y-103256000D01*
X138480440Y-101893690D01*
X145200000Y-101893690D01*
X145200000Y-102584250D01*
X145358750Y-102743000D01*
X146558000Y-102743000D01*
X146558000Y-101543750D01*
X146812000Y-101543750D01*
X146812000Y-102743000D01*
X148011250Y-102743000D01*
X148170000Y-102584250D01*
X148170000Y-101893690D01*
X148073327Y-101660301D01*
X147894698Y-101481673D01*
X147661309Y-101385000D01*
X146970750Y-101385000D01*
X146812000Y-101543750D01*
X146558000Y-101543750D01*
X146399250Y-101385000D01*
X145708691Y-101385000D01*
X145475302Y-101481673D01*
X145296673Y-101660301D01*
X145200000Y-101893690D01*
X138480440Y-101893690D01*
X138480440Y-99756000D01*
X138436162Y-99520683D01*
X138297090Y-99304559D01*
X138084890Y-99159569D01*
X137833000Y-99108560D01*
X136233000Y-99108560D01*
X135997683Y-99152838D01*
X135781559Y-99291910D01*
X135636569Y-99504110D01*
X135585560Y-99756000D01*
X135585560Y-100617000D01*
X131495440Y-100617000D01*
X131495440Y-99756000D01*
X131451162Y-99520683D01*
X131312090Y-99304559D01*
X131099890Y-99159569D01*
X130848000Y-99108560D01*
X129248000Y-99108560D01*
X129012683Y-99152838D01*
X128796559Y-99291910D01*
X128651569Y-99504110D01*
X128600560Y-99756000D01*
X128600560Y-103256000D01*
X128644838Y-103491317D01*
X128783910Y-103707441D01*
X128996110Y-103852431D01*
X129248000Y-103903440D01*
X129794000Y-103903440D01*
X129794000Y-106660260D01*
X129644198Y-106741970D01*
X129584090Y-106648559D01*
X129371890Y-106503569D01*
X129263893Y-106481699D01*
X129541645Y-106176924D01*
X129711476Y-105766890D01*
X129590155Y-105537000D01*
X128397000Y-105537000D01*
X128397000Y-105557000D01*
X128143000Y-105557000D01*
X128143000Y-105537000D01*
X126949845Y-105537000D01*
X126828524Y-105766890D01*
X126998355Y-106176924D01*
X127274501Y-106479937D01*
X127184683Y-106496838D01*
X126968559Y-106635910D01*
X126823569Y-106848110D01*
X126772560Y-107100000D01*
X126772560Y-108800000D01*
X126816838Y-109035317D01*
X126955910Y-109251441D01*
X127168110Y-109396431D01*
X127420000Y-109447440D01*
X129120000Y-109447440D01*
X129355317Y-109403162D01*
X129571441Y-109264090D01*
X129716431Y-109051890D01*
X129767440Y-108800000D01*
X129767440Y-108700045D01*
X131108699Y-107968449D01*
X131206103Y-107887121D01*
X131311618Y-107816618D01*
X131338214Y-107776814D01*
X131374960Y-107746133D01*
X131433828Y-107633718D01*
X131504329Y-107528206D01*
X131513668Y-107481254D01*
X131535876Y-107438846D01*
X131547244Y-107312460D01*
X131572000Y-107188000D01*
X131572000Y-102395000D01*
X135585560Y-102395000D01*
X135585560Y-102996704D01*
X135204264Y-103378000D01*
X134302500Y-103378000D01*
X133962294Y-103445671D01*
X133689676Y-103627829D01*
X133673882Y-103638382D01*
X132975382Y-104336882D01*
X132782671Y-104625294D01*
X132715000Y-104965500D01*
X132715000Y-107251500D01*
X132782671Y-107591706D01*
X132950269Y-107842534D01*
X132975382Y-107880118D01*
X133530882Y-108435618D01*
X133819295Y-108628330D01*
X133975132Y-108659327D01*
X133978461Y-108664500D01*
X133016500Y-108664500D01*
X132676294Y-108732171D01*
X132429604Y-108897004D01*
X132387882Y-108924882D01*
X129806764Y-111506000D01*
X129456760Y-111506000D01*
X129349147Y-111344946D01*
X128867378Y-111023039D01*
X128299093Y-110910000D01*
X128240907Y-110910000D01*
X127672622Y-111023039D01*
X127190853Y-111344946D01*
X126868946Y-111826715D01*
X126755907Y-112395000D01*
X125805000Y-112395000D01*
X125805000Y-105053110D01*
X126828524Y-105053110D01*
X126949845Y-105283000D01*
X128143000Y-105283000D01*
X128143000Y-104089181D01*
X128397000Y-104089181D01*
X128397000Y-105283000D01*
X129590155Y-105283000D01*
X129711476Y-105053110D01*
X129541645Y-104643076D01*
X129151358Y-104214817D01*
X128626892Y-103968514D01*
X128397000Y-104089181D01*
X128143000Y-104089181D01*
X127913108Y-103968514D01*
X127388642Y-104214817D01*
X126998355Y-104643076D01*
X126828524Y-105053110D01*
X125805000Y-105053110D01*
X125805000Y-96391750D01*
X128613000Y-96391750D01*
X128613000Y-97982309D01*
X128709673Y-98215698D01*
X128888301Y-98394327D01*
X129121690Y-98491000D01*
X129762250Y-98491000D01*
X129921000Y-98332250D01*
X129921000Y-96233000D01*
X130175000Y-96233000D01*
X130175000Y-98332250D01*
X130333750Y-98491000D01*
X130974310Y-98491000D01*
X131207699Y-98394327D01*
X131386327Y-98215698D01*
X131483000Y-97982309D01*
X131483000Y-96391750D01*
X135598000Y-96391750D01*
X135598000Y-97982309D01*
X135694673Y-98215698D01*
X135873301Y-98394327D01*
X136106690Y-98491000D01*
X136747250Y-98491000D01*
X136906000Y-98332250D01*
X136906000Y-96233000D01*
X137160000Y-96233000D01*
X137160000Y-98332250D01*
X137318750Y-98491000D01*
X137959310Y-98491000D01*
X138192699Y-98394327D01*
X138371327Y-98215698D01*
X138468000Y-97982309D01*
X138468000Y-96391750D01*
X138309250Y-96233000D01*
X137160000Y-96233000D01*
X136906000Y-96233000D01*
X135756750Y-96233000D01*
X135598000Y-96391750D01*
X131483000Y-96391750D01*
X131324250Y-96233000D01*
X130175000Y-96233000D01*
X129921000Y-96233000D01*
X128771750Y-96233000D01*
X128613000Y-96391750D01*
X125805000Y-96391750D01*
X125805000Y-94055000D01*
X128685359Y-94055000D01*
X128613000Y-94229691D01*
M02*
