G04 #@! TF.FileFunction,Copper,L2,Bot,Signal*
%FSLAX46Y46*%
G04 Gerber Fmt 4.6, Leading zero omitted, Abs format (unit mm)*
G04 Created by KiCad (PCBNEW 4.0.7) date 03/06/18 20:44:10*
%MOMM*%
%LPD*%
G01*
G04 APERTURE LIST*
%ADD10C,0.020000*%
%ADD11R,1.700000X1.700000*%
%ADD12O,1.700000X1.700000*%
%ADD13C,0.254000*%
G04 APERTURE END LIST*
D10*
D11*
X128270000Y-114935000D03*
D12*
X128270000Y-112395000D03*
D11*
X128270000Y-121920000D03*
D12*
X128270000Y-119380000D03*
D11*
X146685000Y-112395000D03*
D12*
X146685000Y-114935000D03*
D11*
X146685000Y-119380000D03*
D12*
X146685000Y-121920000D03*
D11*
X128270000Y-107950000D03*
D12*
X128270000Y-105410000D03*
D11*
X146685000Y-102870000D03*
D12*
X146685000Y-105410000D03*
X146685000Y-107950000D03*
D13*
G36*
X149150000Y-125020000D02*
X125805000Y-125020000D01*
X125805000Y-119380000D01*
X126755907Y-119380000D01*
X126868946Y-119948285D01*
X127190853Y-120430054D01*
X127232452Y-120457850D01*
X127184683Y-120466838D01*
X126968559Y-120605910D01*
X126823569Y-120818110D01*
X126772560Y-121070000D01*
X126772560Y-122770000D01*
X126816838Y-123005317D01*
X126955910Y-123221441D01*
X127168110Y-123366431D01*
X127420000Y-123417440D01*
X129120000Y-123417440D01*
X129355317Y-123373162D01*
X129571441Y-123234090D01*
X129716431Y-123021890D01*
X129767440Y-122770000D01*
X129767440Y-121920000D01*
X145170907Y-121920000D01*
X145283946Y-122488285D01*
X145605853Y-122970054D01*
X146087622Y-123291961D01*
X146655907Y-123405000D01*
X146714093Y-123405000D01*
X147282378Y-123291961D01*
X147764147Y-122970054D01*
X148086054Y-122488285D01*
X148199093Y-121920000D01*
X148086054Y-121351715D01*
X147764147Y-120869946D01*
X147722548Y-120842150D01*
X147770317Y-120833162D01*
X147986441Y-120694090D01*
X148131431Y-120481890D01*
X148182440Y-120230000D01*
X148182440Y-118530000D01*
X148138162Y-118294683D01*
X147999090Y-118078559D01*
X147786890Y-117933569D01*
X147535000Y-117882560D01*
X145835000Y-117882560D01*
X145599683Y-117926838D01*
X145383559Y-118065910D01*
X145238569Y-118278110D01*
X145187560Y-118530000D01*
X145187560Y-120230000D01*
X145231838Y-120465317D01*
X145370910Y-120681441D01*
X145583110Y-120826431D01*
X145650541Y-120840086D01*
X145605853Y-120869946D01*
X145283946Y-121351715D01*
X145170907Y-121920000D01*
X129767440Y-121920000D01*
X129767440Y-121070000D01*
X129723162Y-120834683D01*
X129584090Y-120618559D01*
X129371890Y-120473569D01*
X129304459Y-120459914D01*
X129349147Y-120430054D01*
X129671054Y-119948285D01*
X129784093Y-119380000D01*
X129671054Y-118811715D01*
X129349147Y-118329946D01*
X128867378Y-118008039D01*
X128299093Y-117895000D01*
X128240907Y-117895000D01*
X127672622Y-118008039D01*
X127190853Y-118329946D01*
X126868946Y-118811715D01*
X126755907Y-119380000D01*
X125805000Y-119380000D01*
X125805000Y-112395000D01*
X126755907Y-112395000D01*
X126868946Y-112963285D01*
X127190853Y-113445054D01*
X127232452Y-113472850D01*
X127184683Y-113481838D01*
X126968559Y-113620910D01*
X126823569Y-113833110D01*
X126772560Y-114085000D01*
X126772560Y-115785000D01*
X126816838Y-116020317D01*
X126955910Y-116236441D01*
X127168110Y-116381431D01*
X127420000Y-116432440D01*
X129120000Y-116432440D01*
X129355317Y-116388162D01*
X129571441Y-116249090D01*
X129716431Y-116036890D01*
X129767440Y-115785000D01*
X129767440Y-114935000D01*
X145170907Y-114935000D01*
X145283946Y-115503285D01*
X145605853Y-115985054D01*
X146087622Y-116306961D01*
X146655907Y-116420000D01*
X146714093Y-116420000D01*
X147282378Y-116306961D01*
X147764147Y-115985054D01*
X148086054Y-115503285D01*
X148199093Y-114935000D01*
X148086054Y-114366715D01*
X147764147Y-113884946D01*
X147722548Y-113857150D01*
X147770317Y-113848162D01*
X147986441Y-113709090D01*
X148131431Y-113496890D01*
X148182440Y-113245000D01*
X148182440Y-111545000D01*
X148138162Y-111309683D01*
X147999090Y-111093559D01*
X147786890Y-110948569D01*
X147535000Y-110897560D01*
X145835000Y-110897560D01*
X145599683Y-110941838D01*
X145383559Y-111080910D01*
X145238569Y-111293110D01*
X145187560Y-111545000D01*
X145187560Y-113245000D01*
X145231838Y-113480317D01*
X145370910Y-113696441D01*
X145583110Y-113841431D01*
X145650541Y-113855086D01*
X145605853Y-113884946D01*
X145283946Y-114366715D01*
X145170907Y-114935000D01*
X129767440Y-114935000D01*
X129767440Y-114085000D01*
X129723162Y-113849683D01*
X129584090Y-113633559D01*
X129371890Y-113488569D01*
X129304459Y-113474914D01*
X129349147Y-113445054D01*
X129671054Y-112963285D01*
X129784093Y-112395000D01*
X129671054Y-111826715D01*
X129349147Y-111344946D01*
X128867378Y-111023039D01*
X128299093Y-110910000D01*
X128240907Y-110910000D01*
X127672622Y-111023039D01*
X127190853Y-111344946D01*
X126868946Y-111826715D01*
X126755907Y-112395000D01*
X125805000Y-112395000D01*
X125805000Y-107100000D01*
X126772560Y-107100000D01*
X126772560Y-108800000D01*
X126816838Y-109035317D01*
X126955910Y-109251441D01*
X127168110Y-109396431D01*
X127420000Y-109447440D01*
X129120000Y-109447440D01*
X129355317Y-109403162D01*
X129571441Y-109264090D01*
X129716431Y-109051890D01*
X129767440Y-108800000D01*
X129767440Y-107100000D01*
X129723162Y-106864683D01*
X129584090Y-106648559D01*
X129371890Y-106503569D01*
X129263893Y-106481699D01*
X129541645Y-106176924D01*
X129711476Y-105766890D01*
X129590155Y-105537000D01*
X128397000Y-105537000D01*
X128397000Y-105557000D01*
X128143000Y-105557000D01*
X128143000Y-105537000D01*
X126949845Y-105537000D01*
X126828524Y-105766890D01*
X126998355Y-106176924D01*
X127274501Y-106479937D01*
X127184683Y-106496838D01*
X126968559Y-106635910D01*
X126823569Y-106848110D01*
X126772560Y-107100000D01*
X125805000Y-107100000D01*
X125805000Y-105410000D01*
X145170907Y-105410000D01*
X145283946Y-105978285D01*
X145605853Y-106460054D01*
X145935026Y-106680000D01*
X145605853Y-106899946D01*
X145283946Y-107381715D01*
X145170907Y-107950000D01*
X145283946Y-108518285D01*
X145605853Y-109000054D01*
X146087622Y-109321961D01*
X146655907Y-109435000D01*
X146714093Y-109435000D01*
X147282378Y-109321961D01*
X147764147Y-109000054D01*
X148086054Y-108518285D01*
X148199093Y-107950000D01*
X148086054Y-107381715D01*
X147764147Y-106899946D01*
X147434974Y-106680000D01*
X147764147Y-106460054D01*
X148086054Y-105978285D01*
X148199093Y-105410000D01*
X148086054Y-104841715D01*
X147764147Y-104359946D01*
X147720223Y-104330597D01*
X147894698Y-104258327D01*
X148073327Y-104079699D01*
X148170000Y-103846310D01*
X148170000Y-103155750D01*
X148011250Y-102997000D01*
X146812000Y-102997000D01*
X146812000Y-103017000D01*
X146558000Y-103017000D01*
X146558000Y-102997000D01*
X145358750Y-102997000D01*
X145200000Y-103155750D01*
X145200000Y-103846310D01*
X145296673Y-104079699D01*
X145475302Y-104258327D01*
X145649777Y-104330597D01*
X145605853Y-104359946D01*
X145283946Y-104841715D01*
X145170907Y-105410000D01*
X125805000Y-105410000D01*
X125805000Y-105053110D01*
X126828524Y-105053110D01*
X126949845Y-105283000D01*
X128143000Y-105283000D01*
X128143000Y-104089181D01*
X128397000Y-104089181D01*
X128397000Y-105283000D01*
X129590155Y-105283000D01*
X129711476Y-105053110D01*
X129541645Y-104643076D01*
X129151358Y-104214817D01*
X128626892Y-103968514D01*
X128397000Y-104089181D01*
X128143000Y-104089181D01*
X127913108Y-103968514D01*
X127388642Y-104214817D01*
X126998355Y-104643076D01*
X126828524Y-105053110D01*
X125805000Y-105053110D01*
X125805000Y-101893690D01*
X145200000Y-101893690D01*
X145200000Y-102584250D01*
X145358750Y-102743000D01*
X146558000Y-102743000D01*
X146558000Y-101543750D01*
X146812000Y-101543750D01*
X146812000Y-102743000D01*
X148011250Y-102743000D01*
X148170000Y-102584250D01*
X148170000Y-101893690D01*
X148073327Y-101660301D01*
X147894698Y-101481673D01*
X147661309Y-101385000D01*
X146970750Y-101385000D01*
X146812000Y-101543750D01*
X146558000Y-101543750D01*
X146399250Y-101385000D01*
X145708691Y-101385000D01*
X145475302Y-101481673D01*
X145296673Y-101660301D01*
X145200000Y-101893690D01*
X125805000Y-101893690D01*
X125805000Y-94055000D01*
X149150000Y-94055000D01*
X149150000Y-125020000D01*
X149150000Y-125020000D01*
G37*
X149150000Y-125020000D02*
X125805000Y-125020000D01*
X125805000Y-119380000D01*
X126755907Y-119380000D01*
X126868946Y-119948285D01*
X127190853Y-120430054D01*
X127232452Y-120457850D01*
X127184683Y-120466838D01*
X126968559Y-120605910D01*
X126823569Y-120818110D01*
X126772560Y-121070000D01*
X126772560Y-122770000D01*
X126816838Y-123005317D01*
X126955910Y-123221441D01*
X127168110Y-123366431D01*
X127420000Y-123417440D01*
X129120000Y-123417440D01*
X129355317Y-123373162D01*
X129571441Y-123234090D01*
X129716431Y-123021890D01*
X129767440Y-122770000D01*
X129767440Y-121920000D01*
X145170907Y-121920000D01*
X145283946Y-122488285D01*
X145605853Y-122970054D01*
X146087622Y-123291961D01*
X146655907Y-123405000D01*
X146714093Y-123405000D01*
X147282378Y-123291961D01*
X147764147Y-122970054D01*
X148086054Y-122488285D01*
X148199093Y-121920000D01*
X148086054Y-121351715D01*
X147764147Y-120869946D01*
X147722548Y-120842150D01*
X147770317Y-120833162D01*
X147986441Y-120694090D01*
X148131431Y-120481890D01*
X148182440Y-120230000D01*
X148182440Y-118530000D01*
X148138162Y-118294683D01*
X147999090Y-118078559D01*
X147786890Y-117933569D01*
X147535000Y-117882560D01*
X145835000Y-117882560D01*
X145599683Y-117926838D01*
X145383559Y-118065910D01*
X145238569Y-118278110D01*
X145187560Y-118530000D01*
X145187560Y-120230000D01*
X145231838Y-120465317D01*
X145370910Y-120681441D01*
X145583110Y-120826431D01*
X145650541Y-120840086D01*
X145605853Y-120869946D01*
X145283946Y-121351715D01*
X145170907Y-121920000D01*
X129767440Y-121920000D01*
X129767440Y-121070000D01*
X129723162Y-120834683D01*
X129584090Y-120618559D01*
X129371890Y-120473569D01*
X129304459Y-120459914D01*
X129349147Y-120430054D01*
X129671054Y-119948285D01*
X129784093Y-119380000D01*
X129671054Y-118811715D01*
X129349147Y-118329946D01*
X128867378Y-118008039D01*
X128299093Y-117895000D01*
X128240907Y-117895000D01*
X127672622Y-118008039D01*
X127190853Y-118329946D01*
X126868946Y-118811715D01*
X126755907Y-119380000D01*
X125805000Y-119380000D01*
X125805000Y-112395000D01*
X126755907Y-112395000D01*
X126868946Y-112963285D01*
X127190853Y-113445054D01*
X127232452Y-113472850D01*
X127184683Y-113481838D01*
X126968559Y-113620910D01*
X126823569Y-113833110D01*
X126772560Y-114085000D01*
X126772560Y-115785000D01*
X126816838Y-116020317D01*
X126955910Y-116236441D01*
X127168110Y-116381431D01*
X127420000Y-116432440D01*
X129120000Y-116432440D01*
X129355317Y-116388162D01*
X129571441Y-116249090D01*
X129716431Y-116036890D01*
X129767440Y-115785000D01*
X129767440Y-114935000D01*
X145170907Y-114935000D01*
X145283946Y-115503285D01*
X145605853Y-115985054D01*
X146087622Y-116306961D01*
X146655907Y-116420000D01*
X146714093Y-116420000D01*
X147282378Y-116306961D01*
X147764147Y-115985054D01*
X148086054Y-115503285D01*
X148199093Y-114935000D01*
X148086054Y-114366715D01*
X147764147Y-113884946D01*
X147722548Y-113857150D01*
X147770317Y-113848162D01*
X147986441Y-113709090D01*
X148131431Y-113496890D01*
X148182440Y-113245000D01*
X148182440Y-111545000D01*
X148138162Y-111309683D01*
X147999090Y-111093559D01*
X147786890Y-110948569D01*
X147535000Y-110897560D01*
X145835000Y-110897560D01*
X145599683Y-110941838D01*
X145383559Y-111080910D01*
X145238569Y-111293110D01*
X145187560Y-111545000D01*
X145187560Y-113245000D01*
X145231838Y-113480317D01*
X145370910Y-113696441D01*
X145583110Y-113841431D01*
X145650541Y-113855086D01*
X145605853Y-113884946D01*
X145283946Y-114366715D01*
X145170907Y-114935000D01*
X129767440Y-114935000D01*
X129767440Y-114085000D01*
X129723162Y-113849683D01*
X129584090Y-113633559D01*
X129371890Y-113488569D01*
X129304459Y-113474914D01*
X129349147Y-113445054D01*
X129671054Y-112963285D01*
X129784093Y-112395000D01*
X129671054Y-111826715D01*
X129349147Y-111344946D01*
X128867378Y-111023039D01*
X128299093Y-110910000D01*
X128240907Y-110910000D01*
X127672622Y-111023039D01*
X127190853Y-111344946D01*
X126868946Y-111826715D01*
X126755907Y-112395000D01*
X125805000Y-112395000D01*
X125805000Y-107100000D01*
X126772560Y-107100000D01*
X126772560Y-108800000D01*
X126816838Y-109035317D01*
X126955910Y-109251441D01*
X127168110Y-109396431D01*
X127420000Y-109447440D01*
X129120000Y-109447440D01*
X129355317Y-109403162D01*
X129571441Y-109264090D01*
X129716431Y-109051890D01*
X129767440Y-108800000D01*
X129767440Y-107100000D01*
X129723162Y-106864683D01*
X129584090Y-106648559D01*
X129371890Y-106503569D01*
X129263893Y-106481699D01*
X129541645Y-106176924D01*
X129711476Y-105766890D01*
X129590155Y-105537000D01*
X128397000Y-105537000D01*
X128397000Y-105557000D01*
X128143000Y-105557000D01*
X128143000Y-105537000D01*
X126949845Y-105537000D01*
X126828524Y-105766890D01*
X126998355Y-106176924D01*
X127274501Y-106479937D01*
X127184683Y-106496838D01*
X126968559Y-106635910D01*
X126823569Y-106848110D01*
X126772560Y-107100000D01*
X125805000Y-107100000D01*
X125805000Y-105410000D01*
X145170907Y-105410000D01*
X145283946Y-105978285D01*
X145605853Y-106460054D01*
X145935026Y-106680000D01*
X145605853Y-106899946D01*
X145283946Y-107381715D01*
X145170907Y-107950000D01*
X145283946Y-108518285D01*
X145605853Y-109000054D01*
X146087622Y-109321961D01*
X146655907Y-109435000D01*
X146714093Y-109435000D01*
X147282378Y-109321961D01*
X147764147Y-109000054D01*
X148086054Y-108518285D01*
X148199093Y-107950000D01*
X148086054Y-107381715D01*
X147764147Y-106899946D01*
X147434974Y-106680000D01*
X147764147Y-106460054D01*
X148086054Y-105978285D01*
X148199093Y-105410000D01*
X148086054Y-104841715D01*
X147764147Y-104359946D01*
X147720223Y-104330597D01*
X147894698Y-104258327D01*
X148073327Y-104079699D01*
X148170000Y-103846310D01*
X148170000Y-103155750D01*
X148011250Y-102997000D01*
X146812000Y-102997000D01*
X146812000Y-103017000D01*
X146558000Y-103017000D01*
X146558000Y-102997000D01*
X145358750Y-102997000D01*
X145200000Y-103155750D01*
X145200000Y-103846310D01*
X145296673Y-104079699D01*
X145475302Y-104258327D01*
X145649777Y-104330597D01*
X145605853Y-104359946D01*
X145283946Y-104841715D01*
X145170907Y-105410000D01*
X125805000Y-105410000D01*
X125805000Y-105053110D01*
X126828524Y-105053110D01*
X126949845Y-105283000D01*
X128143000Y-105283000D01*
X128143000Y-104089181D01*
X128397000Y-104089181D01*
X128397000Y-105283000D01*
X129590155Y-105283000D01*
X129711476Y-105053110D01*
X129541645Y-104643076D01*
X129151358Y-104214817D01*
X128626892Y-103968514D01*
X128397000Y-104089181D01*
X128143000Y-104089181D01*
X127913108Y-103968514D01*
X127388642Y-104214817D01*
X126998355Y-104643076D01*
X126828524Y-105053110D01*
X125805000Y-105053110D01*
X125805000Y-101893690D01*
X145200000Y-101893690D01*
X145200000Y-102584250D01*
X145358750Y-102743000D01*
X146558000Y-102743000D01*
X146558000Y-101543750D01*
X146812000Y-101543750D01*
X146812000Y-102743000D01*
X148011250Y-102743000D01*
X148170000Y-102584250D01*
X148170000Y-101893690D01*
X148073327Y-101660301D01*
X147894698Y-101481673D01*
X147661309Y-101385000D01*
X146970750Y-101385000D01*
X146812000Y-101543750D01*
X146558000Y-101543750D01*
X146399250Y-101385000D01*
X145708691Y-101385000D01*
X145475302Y-101481673D01*
X145296673Y-101660301D01*
X145200000Y-101893690D01*
X125805000Y-101893690D01*
X125805000Y-94055000D01*
X149150000Y-94055000D01*
X149150000Y-125020000D01*
M02*
