G04 #@! TF.FileFunction,Legend,Bot*
%FSLAX46Y46*%
G04 Gerber Fmt 4.6, Leading zero omitted, Abs format (unit mm)*
G04 Created by KiCad (PCBNEW 4.0.7-e2-6376~58~ubuntu16.04.1) date Mon Nov 13 19:48:04 2017*
%MOMM*%
%LPD*%
G01*
G04 APERTURE LIST*
%ADD10C,0.100000*%
%ADD11C,0.150000*%
G04 APERTURE END LIST*
D10*
D11*
X193154000Y-135543800D02*
X193154000Y-129543800D01*
X193154000Y-129543800D02*
X190154000Y-129543800D01*
X190154000Y-129543800D02*
X190154000Y-135543800D01*
X190154000Y-135543800D02*
X193154000Y-135543800D01*
X158128000Y-129556000D02*
X158128000Y-135556000D01*
X158128000Y-135556000D02*
X161128000Y-135556000D01*
X161128000Y-135556000D02*
X161128000Y-129556000D01*
X161128000Y-129556000D02*
X158128000Y-129556000D01*
X141211000Y-135543800D02*
X141211000Y-129543800D01*
X141211000Y-129543800D02*
X138211000Y-129543800D01*
X138211000Y-129543800D02*
X138211000Y-135543800D01*
X138211000Y-135543800D02*
X141211000Y-135543800D01*
X106058000Y-129556000D02*
X106058000Y-135556000D01*
X106058000Y-135556000D02*
X109058000Y-135556000D01*
X109058000Y-135556000D02*
X109058000Y-129556000D01*
X109058000Y-129556000D02*
X106058000Y-129556000D01*
X193736981Y-131273705D02*
X194546505Y-131273705D01*
X194641743Y-131321324D01*
X194689362Y-131368943D01*
X194736981Y-131464181D01*
X194736981Y-131654658D01*
X194689362Y-131749896D01*
X194641743Y-131797515D01*
X194546505Y-131845134D01*
X193736981Y-131845134D01*
X194736981Y-132845134D02*
X194736981Y-132273705D01*
X194736981Y-132559419D02*
X193736981Y-132559419D01*
X193879838Y-132464181D01*
X193975076Y-132368943D01*
X194022695Y-132273705D01*
X193736981Y-133749896D02*
X193736981Y-133273705D01*
X194213171Y-133226086D01*
X194165552Y-133273705D01*
X194117933Y-133368943D01*
X194117933Y-133607039D01*
X194165552Y-133702277D01*
X194213171Y-133749896D01*
X194308410Y-133797515D01*
X194546505Y-133797515D01*
X194641743Y-133749896D01*
X194689362Y-133702277D01*
X194736981Y-133607039D01*
X194736981Y-133368943D01*
X194689362Y-133273705D01*
X194641743Y-133226086D01*
X156652981Y-131527705D02*
X157462505Y-131527705D01*
X157557743Y-131575324D01*
X157605362Y-131622943D01*
X157652981Y-131718181D01*
X157652981Y-131908658D01*
X157605362Y-132003896D01*
X157557743Y-132051515D01*
X157462505Y-132099134D01*
X156652981Y-132099134D01*
X157652981Y-133099134D02*
X157652981Y-132527705D01*
X157652981Y-132813419D02*
X156652981Y-132813419D01*
X156795838Y-132718181D01*
X156891076Y-132622943D01*
X156938695Y-132527705D01*
X156652981Y-133956277D02*
X156652981Y-133765800D01*
X156700600Y-133670562D01*
X156748219Y-133622943D01*
X156891076Y-133527705D01*
X157081552Y-133480086D01*
X157462505Y-133480086D01*
X157557743Y-133527705D01*
X157605362Y-133575324D01*
X157652981Y-133670562D01*
X157652981Y-133861039D01*
X157605362Y-133956277D01*
X157557743Y-134003896D01*
X157462505Y-134051515D01*
X157224410Y-134051515D01*
X157129171Y-134003896D01*
X157081552Y-133956277D01*
X157033933Y-133861039D01*
X157033933Y-133670562D01*
X157081552Y-133575324D01*
X157129171Y-133527705D01*
X157224410Y-133480086D01*
X141666981Y-131273705D02*
X142476505Y-131273705D01*
X142571743Y-131321324D01*
X142619362Y-131368943D01*
X142666981Y-131464181D01*
X142666981Y-131654658D01*
X142619362Y-131749896D01*
X142571743Y-131797515D01*
X142476505Y-131845134D01*
X141666981Y-131845134D01*
X142666981Y-132845134D02*
X142666981Y-132273705D01*
X142666981Y-132559419D02*
X141666981Y-132559419D01*
X141809838Y-132464181D01*
X141905076Y-132368943D01*
X141952695Y-132273705D01*
X141666981Y-133178467D02*
X141666981Y-133845134D01*
X142666981Y-133416562D01*
X104506781Y-131426105D02*
X105316305Y-131426105D01*
X105411543Y-131473724D01*
X105459162Y-131521343D01*
X105506781Y-131616581D01*
X105506781Y-131807058D01*
X105459162Y-131902296D01*
X105411543Y-131949915D01*
X105316305Y-131997534D01*
X104506781Y-131997534D01*
X105506781Y-132997534D02*
X105506781Y-132426105D01*
X105506781Y-132711819D02*
X104506781Y-132711819D01*
X104649638Y-132616581D01*
X104744876Y-132521343D01*
X104792495Y-132426105D01*
X104935352Y-133568962D02*
X104887733Y-133473724D01*
X104840114Y-133426105D01*
X104744876Y-133378486D01*
X104697257Y-133378486D01*
X104602019Y-133426105D01*
X104554400Y-133473724D01*
X104506781Y-133568962D01*
X104506781Y-133759439D01*
X104554400Y-133854677D01*
X104602019Y-133902296D01*
X104697257Y-133949915D01*
X104744876Y-133949915D01*
X104840114Y-133902296D01*
X104887733Y-133854677D01*
X104935352Y-133759439D01*
X104935352Y-133568962D01*
X104982971Y-133473724D01*
X105030590Y-133426105D01*
X105125829Y-133378486D01*
X105316305Y-133378486D01*
X105411543Y-133426105D01*
X105459162Y-133473724D01*
X105506781Y-133568962D01*
X105506781Y-133759439D01*
X105459162Y-133854677D01*
X105411543Y-133902296D01*
X105316305Y-133949915D01*
X105125829Y-133949915D01*
X105030590Y-133902296D01*
X104982971Y-133854677D01*
X104935352Y-133759439D01*
M02*
