M48
INCH,TZ
T1C0.016
T2C0.039
T3C0.041
T4C0.098
%
G90
G05
T1
X41630Y-51400
X42700Y-50870
X42710Y-46680
X43060Y-52610
X43190Y-43850
X43190Y-47870
X44340Y-48470
X46070Y-47870
X46720Y-40580
X47720Y-41420
X48720Y-47180
X49720Y-36250
X50220Y-36530
X50720Y-36000
X51720Y-41100
X51720Y-45420
X52490Y-24070
X52490Y-24570
X52490Y-29670
X52490Y-30170
X53190Y-24070
X53190Y-24570
X53190Y-29670
X53190Y-30170
X53220Y-36830
X53320Y-48280
X53730Y-49610
X54650Y-50870
X54720Y-42020
X55360Y-48410
X55500Y-34390
X55720Y-52970
X55740Y-47820
X55840Y-24550
X55840Y-29680
X56140Y-24250
X56140Y-24850
X56140Y-29390
X56140Y-29980
X56142Y-29688
X56144Y-24552
X56230Y-40320
X56440Y-24550
X56440Y-29680
X56780Y-36250
X57030Y-36000
X57560Y-26190
X57590Y-30570
X57590Y-31370
X57630Y-28780
X57640Y-25450
X57640Y-28040
X57790Y-30970
X58030Y-31750
X58030Y-37640
X58180Y-26730
X58180Y-30130
X58290Y-30970
X58330Y-31940
X58330Y-37130
X58550Y-27520
X58550Y-30010
X58580Y-32150
X58580Y-37900
X58650Y-49990
X58690Y-30970
X58720Y-40840
X58880Y-31670
X58880Y-37390
X58890Y-26710
X58890Y-30010
X59090Y-30970
X59190Y-32970
X59190Y-33570
X59190Y-35770
X59190Y-36170
X59190Y-37170
X59190Y-37770
X59260Y-27490
X59260Y-30130
X59690Y-36170
X59790Y-32440
X59790Y-32970
X59790Y-33570
X59790Y-37170
X59790Y-37770
X59900Y-41420
X60070Y-28750
X60070Y-36530
X60170Y-25450
X60240Y-21320
X60240Y-26190
X60360Y-36830
X60620Y-28380
X60900Y-44390
X61490Y-39270
X61490Y-39870
X61490Y-41370
X61490Y-42370
X61490Y-42870
X61490Y-44770
X61490Y-46970
X61490Y-47470
X61640Y-23770
X62090Y-39270
X62090Y-39870
X62090Y-41370
X62090Y-42370
X62090Y-42870
X62090Y-44770
X62090Y-45270
X62090Y-46970
X62090Y-47470
X62130Y-51400
X62500Y-52450
X62765Y-22970
X62850Y-48410
X63200Y-50870
X63200Y-52450
X63790Y-34810
X63790Y-41730
X63790Y-44390
X64390Y-46020
X64590Y-24070
X64590Y-24570
X64590Y-29670
X64590Y-30170
X64690Y-41100
X64690Y-44900
X64950Y-47870
X65290Y-24070
X65290Y-24570
X65290Y-29670
X65290Y-30170
X66390Y-45270
X66420Y-46090
X66700Y-38130
X66700Y-40320
X67180Y-43040
X67180Y-45150
X67900Y-46630
X68610Y-46090
X68900Y-46740
X69250Y-35840
X69250Y-38330
X72520Y-48490
X72630Y-44390
X75090Y-47180
X75100Y-50870
X75810Y-52430
X76640Y-48490
T2
X44720Y-38510
X44720Y-44510
X45720Y-38510
X45720Y-44510
X46720Y-38510
X46720Y-44510
X47720Y-38510
X47720Y-44510
X48720Y-38510
X48720Y-44510
X49720Y-38510
X49720Y-44510
X50720Y-38510
X50720Y-44510
X51720Y-38510
X51720Y-44510
X52720Y-38510
X52720Y-44510
X53720Y-38510
X53720Y-44510
X54720Y-38510
X54720Y-44510
X54800Y-25620
X54800Y-28580
X55720Y-38510
X55720Y-44510
X56720Y-38510
X56720Y-44510
X56900Y-46500
X56900Y-47500
X57720Y-38510
X57720Y-44510
X57900Y-46500
X57900Y-47500
X58720Y-38510
X58720Y-44510
X58900Y-46500
X58900Y-47500
X59900Y-46500
X59900Y-47500
X60900Y-46500
X60900Y-47500
X63000Y-25620
X63000Y-28580
X67900Y-47490
X68900Y-47490
X69900Y-47490
T3
X54406Y-22440
X55390Y-22440
T4
X42361Y-36146
X75432Y-36146
T0
M30
