G04 #@! TF.FileFunction,Legend,Top*
%FSLAX46Y46*%
G04 Gerber Fmt 4.6, Leading zero omitted, Abs format (unit mm)*
G04 Created by KiCad (PCBNEW 4.0.7-e2-6376~58~ubuntu16.04.1) date Mon Nov 13 19:48:04 2017*
%MOMM*%
%LPD*%
G01*
G04 APERTURE LIST*
%ADD10C,0.100000*%
%ADD11C,0.300000*%
%ADD12C,0.120000*%
%ADD13C,0.150000*%
G04 APERTURE END LIST*
D10*
D11*
X193379457Y-115553229D02*
X193379457Y-114338943D01*
X193308029Y-114196086D01*
X193236600Y-114124657D01*
X193093743Y-114053229D01*
X192808029Y-114053229D01*
X192665171Y-114124657D01*
X192593743Y-114196086D01*
X192522314Y-114338943D01*
X192522314Y-115553229D01*
X191879457Y-114124657D02*
X191736600Y-114053229D01*
X191450885Y-114053229D01*
X191308028Y-114124657D01*
X191236600Y-114267514D01*
X191236600Y-114338943D01*
X191308028Y-114481800D01*
X191450885Y-114553229D01*
X191665171Y-114553229D01*
X191808028Y-114624657D01*
X191879457Y-114767514D01*
X191879457Y-114838943D01*
X191808028Y-114981800D01*
X191665171Y-115053229D01*
X191450885Y-115053229D01*
X191308028Y-114981800D01*
X190022314Y-114124657D02*
X190165171Y-114053229D01*
X190450885Y-114053229D01*
X190593742Y-114124657D01*
X190665171Y-114267514D01*
X190665171Y-114838943D01*
X190593742Y-114981800D01*
X190450885Y-115053229D01*
X190165171Y-115053229D01*
X190022314Y-114981800D01*
X189950885Y-114838943D01*
X189950885Y-114696086D01*
X190665171Y-114553229D01*
X189308028Y-114053229D02*
X189308028Y-115053229D01*
X189308028Y-114767514D02*
X189236600Y-114910371D01*
X189165171Y-114981800D01*
X189022314Y-115053229D01*
X188879457Y-115053229D01*
X192585742Y-105163229D02*
X193085742Y-105877514D01*
X193442885Y-105163229D02*
X193442885Y-106663229D01*
X192871457Y-106663229D01*
X192728599Y-106591800D01*
X192657171Y-106520371D01*
X192585742Y-106377514D01*
X192585742Y-106163229D01*
X192657171Y-106020371D01*
X192728599Y-105948943D01*
X192871457Y-105877514D01*
X193442885Y-105877514D01*
X191371457Y-105234657D02*
X191514314Y-105163229D01*
X191800028Y-105163229D01*
X191942885Y-105234657D01*
X192014314Y-105377514D01*
X192014314Y-105948943D01*
X191942885Y-106091800D01*
X191800028Y-106163229D01*
X191514314Y-106163229D01*
X191371457Y-106091800D01*
X191300028Y-105948943D01*
X191300028Y-105806086D01*
X192014314Y-105663229D01*
X190728600Y-105234657D02*
X190585743Y-105163229D01*
X190300028Y-105163229D01*
X190157171Y-105234657D01*
X190085743Y-105377514D01*
X190085743Y-105448943D01*
X190157171Y-105591800D01*
X190300028Y-105663229D01*
X190514314Y-105663229D01*
X190657171Y-105734657D01*
X190728600Y-105877514D01*
X190728600Y-105948943D01*
X190657171Y-106091800D01*
X190514314Y-106163229D01*
X190300028Y-106163229D01*
X190157171Y-106091800D01*
X188871457Y-105234657D02*
X189014314Y-105163229D01*
X189300028Y-105163229D01*
X189442885Y-105234657D01*
X189514314Y-105377514D01*
X189514314Y-105948943D01*
X189442885Y-106091800D01*
X189300028Y-106163229D01*
X189014314Y-106163229D01*
X188871457Y-106091800D01*
X188800028Y-105948943D01*
X188800028Y-105806086D01*
X189514314Y-105663229D01*
X188371457Y-106163229D02*
X187800028Y-106163229D01*
X188157171Y-106663229D02*
X188157171Y-105377514D01*
X188085743Y-105234657D01*
X187942885Y-105163229D01*
X187800028Y-105163229D01*
D12*
X154651600Y-56854800D02*
X154651600Y-58054800D01*
X152891600Y-58054800D02*
X152891600Y-56854800D01*
X146117200Y-71561400D02*
X146117200Y-72761400D01*
X144357200Y-72761400D02*
X144357200Y-71561400D01*
D13*
X155188200Y-92981600D02*
X155188200Y-97581600D01*
X155188200Y-97581600D02*
X163988200Y-97581600D01*
X163988200Y-97581600D02*
X163988200Y-90581600D01*
X163988200Y-90581600D02*
X155188200Y-90581600D01*
X155188200Y-90581600D02*
X155188200Y-92981600D01*
D12*
X162634200Y-77724000D02*
X162634200Y-79144000D01*
X156034200Y-76964000D02*
X156034200Y-79144000D01*
X156034200Y-83564000D02*
X156034200Y-81384000D01*
X162634200Y-82804000D02*
X162634200Y-81384000D01*
X156034200Y-76964000D02*
X161874200Y-76964000D01*
X161874200Y-76964000D02*
X162634200Y-77724000D01*
X162634200Y-82804000D02*
X161874200Y-83564000D01*
X161874200Y-83564000D02*
X156034200Y-83564000D01*
X154596200Y-79113000D02*
X154596200Y-78113000D01*
X152896200Y-78113000D02*
X152896200Y-79113000D01*
X159170000Y-68334000D02*
X159170000Y-69334000D01*
X160870000Y-69334000D02*
X160870000Y-68334000D01*
X138342000Y-68384800D02*
X138342000Y-69384800D01*
X140042000Y-69384800D02*
X140042000Y-68384800D01*
X152843600Y-79113000D02*
X152843600Y-78113000D01*
X151143600Y-78113000D02*
X151143600Y-79113000D01*
X143203200Y-77724000D02*
X143203200Y-79144000D01*
X136603200Y-76964000D02*
X136603200Y-79144000D01*
X136603200Y-83564000D02*
X136603200Y-81384000D01*
X143203200Y-82804000D02*
X143203200Y-81384000D01*
X136603200Y-76964000D02*
X142443200Y-76964000D01*
X142443200Y-76964000D02*
X143203200Y-77724000D01*
X143203200Y-82804000D02*
X142443200Y-83564000D01*
X142443200Y-83564000D02*
X136603200Y-83564000D01*
X153357200Y-80404600D02*
X152357200Y-80404600D01*
X152357200Y-82104600D02*
X153357200Y-82104600D01*
X160590600Y-99966400D02*
X160590600Y-98966400D01*
X158890600Y-98966400D02*
X158890600Y-99966400D01*
X162292400Y-99966400D02*
X162292400Y-98966400D01*
X160592400Y-98966400D02*
X160592400Y-99966400D01*
X163994200Y-99966400D02*
X163994200Y-98966400D01*
X162294200Y-98966400D02*
X162294200Y-99966400D01*
X166149400Y-100824400D02*
X167149400Y-100824400D01*
X167149400Y-99124400D02*
X166149400Y-99124400D01*
X160463600Y-115511200D02*
X160463600Y-114511200D01*
X158763600Y-114511200D02*
X158763600Y-115511200D01*
X173874800Y-90365200D02*
X173874800Y-89365200D01*
X172174800Y-89365200D02*
X172174800Y-90365200D01*
X172173000Y-90365200D02*
X172173000Y-89365200D01*
X170473000Y-89365200D02*
X170473000Y-90365200D01*
X170471200Y-90365200D02*
X170471200Y-89365200D01*
X168771200Y-89365200D02*
X168771200Y-90365200D01*
X183630200Y-110244000D02*
X183630200Y-111244000D01*
X185330200Y-111244000D02*
X185330200Y-110244000D01*
X188530600Y-121531000D02*
X188530600Y-120531000D01*
X186830600Y-120531000D02*
X186830600Y-121531000D01*
X162441000Y-122439800D02*
X163441000Y-122439800D01*
X163441000Y-120739800D02*
X162441000Y-120739800D01*
X136936100Y-120625500D02*
X135936100Y-120625500D01*
X135936100Y-122325500D02*
X136936100Y-122325500D01*
X114485800Y-122439800D02*
X115485800Y-122439800D01*
X115485800Y-120739800D02*
X114485800Y-120739800D01*
X152206100Y-54344800D02*
X152206100Y-52944800D01*
X152206100Y-52944800D02*
X149406100Y-52944800D01*
X152206100Y-54344800D02*
X149406100Y-54344800D01*
X168520000Y-86112000D02*
X164220000Y-86112000D01*
X164220000Y-86112000D02*
X164220000Y-91812000D01*
X168520000Y-86112000D02*
X168520000Y-91812000D01*
X161271000Y-72593200D02*
G75*
G03X161271000Y-72593200I-1251000J0D01*
G01*
X161271000Y-65074800D02*
G75*
G03X161271000Y-65074800I-1251000J0D01*
G01*
X140443000Y-72593200D02*
G75*
G03X140443000Y-72593200I-1251000J0D01*
G01*
X140443000Y-65074800D02*
G75*
G03X140443000Y-65074800I-1251000J0D01*
G01*
X143240600Y-59447600D02*
X143240600Y-53497600D01*
X143240600Y-53497600D02*
X135640600Y-53497600D01*
X135640600Y-53497600D02*
X135640600Y-59447600D01*
X135640600Y-59447600D02*
X143240600Y-59447600D01*
X139940600Y-59447600D02*
X139940600Y-58697600D01*
X139940600Y-58697600D02*
X138940600Y-58697600D01*
X138940600Y-58697600D02*
X138940600Y-59447600D01*
X138940600Y-59447600D02*
X139940600Y-59447600D01*
X143240600Y-59447600D02*
X143240600Y-58697600D01*
X143240600Y-58697600D02*
X141440600Y-58697600D01*
X141440600Y-58697600D02*
X141440600Y-59447600D01*
X141440600Y-59447600D02*
X143240600Y-59447600D01*
X137440600Y-59447600D02*
X137440600Y-58697600D01*
X137440600Y-58697600D02*
X135640600Y-58697600D01*
X135640600Y-58697600D02*
X135640600Y-59447600D01*
X135640600Y-59447600D02*
X137440600Y-59447600D01*
X143240600Y-57197600D02*
X142490600Y-57197600D01*
X142490600Y-57197600D02*
X142490600Y-54247600D01*
X142490600Y-54247600D02*
X139440600Y-54247600D01*
X135640600Y-57197600D02*
X136390600Y-57197600D01*
X136390600Y-57197600D02*
X136390600Y-54247600D01*
X136390600Y-54247600D02*
X139440600Y-54247600D01*
X141040600Y-59747600D02*
X143540600Y-59747600D01*
X143540600Y-59747600D02*
X143540600Y-57247600D01*
X143196000Y-116780000D02*
X143196000Y-121980000D01*
X153416000Y-116780000D02*
X143196000Y-116780000D01*
X156016000Y-121980000D02*
X143196000Y-121980000D01*
X153416000Y-116780000D02*
X153416000Y-119380000D01*
X153416000Y-119380000D02*
X156016000Y-119380000D01*
X156016000Y-119380000D02*
X156016000Y-121980000D01*
X154686000Y-116780000D02*
X156016000Y-116780000D01*
X156016000Y-116780000D02*
X156016000Y-118110000D01*
X162133400Y-58625200D02*
X161203400Y-58625200D01*
X158973400Y-58625200D02*
X159903400Y-58625200D01*
X158973400Y-58625200D02*
X158973400Y-60785200D01*
X162133400Y-58625200D02*
X162133400Y-60085200D01*
X153094800Y-72685200D02*
X153094800Y-71485200D01*
X154854800Y-71485200D02*
X154854800Y-72685200D01*
X153094800Y-66182800D02*
X153094800Y-64982800D01*
X154854800Y-64982800D02*
X154854800Y-66182800D01*
X146117200Y-64982800D02*
X146117200Y-66182800D01*
X144357200Y-66182800D02*
X144357200Y-64982800D01*
X136191100Y-86121800D02*
X136191100Y-84921800D01*
X137951100Y-84921800D02*
X137951100Y-86121800D01*
X143539100Y-84921800D02*
X143539100Y-86121800D01*
X141779100Y-86121800D02*
X141779100Y-84921800D01*
X147513600Y-54524800D02*
X146313600Y-54524800D01*
X146313600Y-52764800D02*
X147513600Y-52764800D01*
X169427600Y-99094400D02*
X170627600Y-99094400D01*
X170627600Y-100854400D02*
X169427600Y-100854400D01*
X173904800Y-95793000D02*
X173904800Y-96993000D01*
X172144800Y-96993000D02*
X172144800Y-95793000D01*
X173846600Y-90693800D02*
X173846600Y-89493800D01*
X175606600Y-89493800D02*
X175606600Y-90693800D01*
X161858400Y-113267600D02*
X163058400Y-113267600D01*
X163058400Y-115027600D02*
X161858400Y-115027600D01*
X183194400Y-107120800D02*
X184394400Y-107120800D01*
X184394400Y-108880800D02*
X183194400Y-108880800D01*
X170780600Y-114157200D02*
X170780600Y-115357200D01*
X169020600Y-115357200D02*
X169020600Y-114157200D01*
X175549000Y-113623200D02*
X176749000Y-113623200D01*
X176749000Y-115383200D02*
X175549000Y-115383200D01*
X185080800Y-120431000D02*
X185080800Y-121631000D01*
X183320800Y-121631000D02*
X183320800Y-120431000D01*
X171866000Y-113216800D02*
X173066000Y-113216800D01*
X173066000Y-114976800D02*
X171866000Y-114976800D01*
X185073400Y-121631000D02*
X185073400Y-120431000D01*
X186833400Y-120431000D02*
X186833400Y-121631000D01*
X160239000Y-122469800D02*
X159039000Y-122469800D01*
X159039000Y-120709800D02*
X160239000Y-120709800D01*
X139138100Y-120595500D02*
X140338100Y-120595500D01*
X140338100Y-122355500D02*
X139138100Y-122355500D01*
X187244600Y-104817300D02*
X187244600Y-104787300D01*
X187244600Y-98357300D02*
X187244600Y-98387300D01*
X193704600Y-98357300D02*
X193704600Y-98387300D01*
X193704600Y-104787300D02*
X193704600Y-104817300D01*
X187244600Y-102887300D02*
X187244600Y-100287300D01*
X193704600Y-104817300D02*
X187244600Y-104817300D01*
X193704600Y-102887300D02*
X193704600Y-100287300D01*
X193704600Y-98357300D02*
X187244600Y-98357300D01*
X157351000Y-73665200D02*
X157351000Y-72735200D01*
X157351000Y-70505200D02*
X157351000Y-71435200D01*
X157351000Y-70505200D02*
X155191000Y-70505200D01*
X157351000Y-73665200D02*
X155891000Y-73665200D01*
X157351000Y-67162800D02*
X157351000Y-66232800D01*
X157351000Y-64002800D02*
X157351000Y-64932800D01*
X157351000Y-64002800D02*
X155191000Y-64002800D01*
X157351000Y-67162800D02*
X155891000Y-67162800D01*
X141861000Y-70581400D02*
X141861000Y-71511400D01*
X141861000Y-73741400D02*
X141861000Y-72811400D01*
X141861000Y-73741400D02*
X144021000Y-73741400D01*
X141861000Y-70581400D02*
X143321000Y-70581400D01*
X141861000Y-64002800D02*
X141861000Y-64932800D01*
X141861000Y-67162800D02*
X141861000Y-66232800D01*
X141861000Y-67162800D02*
X144021000Y-67162800D01*
X141861000Y-64002800D02*
X143321000Y-64002800D01*
D13*
X150233200Y-60385400D02*
X150233200Y-60335400D01*
X146083200Y-60385400D02*
X146083200Y-60240400D01*
X146083200Y-55235400D02*
X146083200Y-55380400D01*
X150233200Y-55235400D02*
X150233200Y-55380400D01*
X150233200Y-60385400D02*
X146083200Y-60385400D01*
X150233200Y-55235400D02*
X146083200Y-55235400D01*
X150233200Y-60335400D02*
X151633200Y-60335400D01*
D12*
X149648800Y-76913000D02*
X151148800Y-76913000D01*
X151148800Y-76913000D02*
X151148800Y-78113000D01*
X147528800Y-79113000D02*
X147528800Y-78113000D01*
X150768800Y-77363000D02*
X150768800Y-79733000D01*
X150478800Y-114385400D02*
X150478800Y-111725400D01*
X114858800Y-114385400D02*
X150478800Y-114385400D01*
X114858800Y-111725400D02*
X150478800Y-111725400D01*
X114858800Y-114385400D02*
X114858800Y-111725400D01*
X113588800Y-114385400D02*
X112258800Y-114385400D01*
X112258800Y-114385400D02*
X112258800Y-113055400D01*
D13*
X170396800Y-98814800D02*
X170396800Y-98689800D01*
X165746800Y-98814800D02*
X165746800Y-98589800D01*
X165746800Y-93564800D02*
X165746800Y-93789800D01*
X170396800Y-93564800D02*
X170396800Y-93789800D01*
X170396800Y-98814800D02*
X165746800Y-98814800D01*
X170396800Y-93564800D02*
X165746800Y-93564800D01*
X170396800Y-98689800D02*
X171746800Y-98689800D01*
D12*
X150478800Y-99145400D02*
X150478800Y-96485400D01*
X114858800Y-99145400D02*
X150478800Y-99145400D01*
X114858800Y-96485400D02*
X150478800Y-96485400D01*
X114858800Y-99145400D02*
X114858800Y-96485400D01*
X113588800Y-99145400D02*
X112258800Y-99145400D01*
X112258800Y-99145400D02*
X112258800Y-97815400D01*
X161545700Y-118500800D02*
X163345700Y-118500800D01*
X163345700Y-115280800D02*
X160895700Y-115280800D01*
X165571600Y-116595800D02*
X167371600Y-116595800D01*
X167371600Y-113375800D02*
X164921600Y-113375800D01*
D13*
X174988600Y-115529000D02*
X174988600Y-118329000D01*
X174988600Y-118329000D02*
X177288600Y-118329000D01*
X177288600Y-118329000D02*
X177288600Y-115529000D01*
X177288600Y-115529000D02*
X174988600Y-115529000D01*
D12*
X173166000Y-115248200D02*
X171266000Y-115248200D01*
X171766000Y-117568200D02*
X173166000Y-117568200D01*
D13*
X107961000Y-115797200D02*
X104661000Y-115797200D01*
X104661000Y-115797200D02*
X104661000Y-122597200D01*
X104661000Y-122597200D02*
X108161000Y-122597200D01*
X108161000Y-122597200D02*
X108161000Y-115797200D01*
X108161000Y-115797200D02*
X107961000Y-115797200D01*
X146201000Y-127497000D02*
X146201000Y-130797000D01*
X146201000Y-130797000D02*
X153001000Y-130797000D01*
X153001000Y-130797000D02*
X153001000Y-127297000D01*
X153001000Y-127297000D02*
X146201000Y-127297000D01*
X146201000Y-127297000D02*
X146201000Y-127497000D01*
X191251000Y-122607200D02*
X194551000Y-122607200D01*
X194551000Y-122607200D02*
X194551000Y-115807200D01*
X194551000Y-115807200D02*
X191051000Y-115807200D01*
X191051000Y-115807200D02*
X191051000Y-122607200D01*
X191051000Y-122607200D02*
X191251000Y-122607200D01*
D12*
X162634200Y-84531200D02*
X162634200Y-85951200D01*
X156034200Y-83771200D02*
X156034200Y-85951200D01*
X156034200Y-90371200D02*
X156034200Y-88191200D01*
X162634200Y-89611200D02*
X162634200Y-88191200D01*
X156034200Y-83771200D02*
X161874200Y-83771200D01*
X161874200Y-83771200D02*
X162634200Y-84531200D01*
X162634200Y-89611200D02*
X161874200Y-90371200D01*
X161874200Y-90371200D02*
X156034200Y-90371200D01*
X193704600Y-107247300D02*
X193704600Y-107277300D01*
X193704600Y-113707300D02*
X193704600Y-113677300D01*
X187244600Y-113707300D02*
X187244600Y-113677300D01*
X187244600Y-107277300D02*
X187244600Y-107247300D01*
X193704600Y-109177300D02*
X193704600Y-111777300D01*
X187244600Y-107247300D02*
X193704600Y-107247300D01*
X187244600Y-109177300D02*
X187244600Y-111777300D01*
X187244600Y-113707300D02*
X193704600Y-113707300D01*
X171136000Y-119294600D02*
X171136000Y-121954600D01*
X176276000Y-119294600D02*
X171136000Y-119294600D01*
X176276000Y-121954600D02*
X171136000Y-121954600D01*
X176276000Y-119294600D02*
X176276000Y-121954600D01*
X177546000Y-119294600D02*
X178876000Y-119294600D01*
X178876000Y-119294600D02*
X178876000Y-120624600D01*
X158404100Y-56365000D02*
X158204100Y-56365000D01*
X161204100Y-52225000D02*
X161004100Y-52015000D01*
X159904100Y-52225000D02*
X160104100Y-52015000D01*
X161204100Y-53515000D02*
X161204100Y-52225000D01*
X161004100Y-52015000D02*
X160104100Y-52015000D01*
X159904100Y-52225000D02*
X159904100Y-53515000D01*
X162654100Y-53515000D02*
X156954100Y-53515000D01*
X161404100Y-56365000D02*
X159704100Y-56365000D01*
X163254100Y-55315000D02*
X163254100Y-54525000D01*
X156354100Y-54525000D02*
X156354100Y-55315000D01*
X134443100Y-85021800D02*
X134443100Y-86021800D01*
X136143100Y-86021800D02*
X136143100Y-85021800D01*
X140765100Y-83911800D02*
X138965100Y-83911800D01*
X138965100Y-87131800D02*
X141415100Y-87131800D01*
X112271100Y-122469800D02*
X111071100Y-122469800D01*
X111071100Y-120709800D02*
X112271100Y-120709800D01*
D13*
X155811481Y-58764466D02*
X155335290Y-59097800D01*
X155811481Y-59335895D02*
X154811481Y-59335895D01*
X154811481Y-58954942D01*
X154859100Y-58859704D01*
X154906719Y-58812085D01*
X155001957Y-58764466D01*
X155144814Y-58764466D01*
X155240052Y-58812085D01*
X155287671Y-58859704D01*
X155335290Y-58954942D01*
X155335290Y-59335895D01*
X155811481Y-57812085D02*
X155811481Y-58383514D01*
X155811481Y-58097800D02*
X154811481Y-58097800D01*
X154954338Y-58193038D01*
X155049576Y-58288276D01*
X155097195Y-58383514D01*
X147416781Y-72328066D02*
X146940590Y-72661400D01*
X147416781Y-72899495D02*
X146416781Y-72899495D01*
X146416781Y-72518542D01*
X146464400Y-72423304D01*
X146512019Y-72375685D01*
X146607257Y-72328066D01*
X146750114Y-72328066D01*
X146845352Y-72375685D01*
X146892971Y-72423304D01*
X146940590Y-72518542D01*
X146940590Y-72899495D01*
X146750114Y-71470923D02*
X147416781Y-71470923D01*
X146369162Y-71709019D02*
X147083448Y-71947114D01*
X147083448Y-71328066D01*
X153985934Y-94432381D02*
X153509743Y-94432381D01*
X153509743Y-93432381D01*
X154843077Y-94432381D02*
X154271648Y-94432381D01*
X154557362Y-94432381D02*
X154557362Y-93432381D01*
X154462124Y-93575238D01*
X154366886Y-93670476D01*
X154271648Y-93718095D01*
X154697134Y-82983343D02*
X154649515Y-83030962D01*
X154506658Y-83078581D01*
X154411420Y-83078581D01*
X154268562Y-83030962D01*
X154173324Y-82935724D01*
X154125705Y-82840486D01*
X154078086Y-82650010D01*
X154078086Y-82507152D01*
X154125705Y-82316676D01*
X154173324Y-82221438D01*
X154268562Y-82126200D01*
X154411420Y-82078581D01*
X154506658Y-82078581D01*
X154649515Y-82126200D01*
X154697134Y-82173819D01*
X155649515Y-83078581D02*
X155078086Y-83078581D01*
X155363800Y-83078581D02*
X155363800Y-82078581D01*
X155268562Y-82221438D01*
X155173324Y-82316676D01*
X155078086Y-82364295D01*
X163233248Y-77425429D02*
X163995153Y-77425429D01*
X163614201Y-77806381D02*
X163614201Y-77044476D01*
X154077943Y-76011066D02*
X154125562Y-76058685D01*
X154173181Y-76201542D01*
X154173181Y-76296780D01*
X154125562Y-76439638D01*
X154030324Y-76534876D01*
X153935086Y-76582495D01*
X153744610Y-76630114D01*
X153601752Y-76630114D01*
X153411276Y-76582495D01*
X153316038Y-76534876D01*
X153220800Y-76439638D01*
X153173181Y-76296780D01*
X153173181Y-76201542D01*
X153220800Y-76058685D01*
X153268419Y-76011066D01*
X153173181Y-75677733D02*
X153173181Y-75058685D01*
X153554133Y-75392019D01*
X153554133Y-75249161D01*
X153601752Y-75153923D01*
X153649371Y-75106304D01*
X153744610Y-75058685D01*
X153982705Y-75058685D01*
X154077943Y-75106304D01*
X154125562Y-75153923D01*
X154173181Y-75249161D01*
X154173181Y-75534876D01*
X154125562Y-75630114D01*
X154077943Y-75677733D01*
X161834534Y-69165743D02*
X161786915Y-69213362D01*
X161644058Y-69260981D01*
X161548820Y-69260981D01*
X161405962Y-69213362D01*
X161310724Y-69118124D01*
X161263105Y-69022886D01*
X161215486Y-68832410D01*
X161215486Y-68689552D01*
X161263105Y-68499076D01*
X161310724Y-68403838D01*
X161405962Y-68308600D01*
X161548820Y-68260981D01*
X161644058Y-68260981D01*
X161786915Y-68308600D01*
X161834534Y-68356219D01*
X162691677Y-68594314D02*
X162691677Y-69260981D01*
X162453581Y-68213362D02*
X162215486Y-68927648D01*
X162834534Y-68927648D01*
X137044134Y-69267343D02*
X136996515Y-69314962D01*
X136853658Y-69362581D01*
X136758420Y-69362581D01*
X136615562Y-69314962D01*
X136520324Y-69219724D01*
X136472705Y-69124486D01*
X136425086Y-68934010D01*
X136425086Y-68791152D01*
X136472705Y-68600676D01*
X136520324Y-68505438D01*
X136615562Y-68410200D01*
X136758420Y-68362581D01*
X136853658Y-68362581D01*
X136996515Y-68410200D01*
X137044134Y-68457819D01*
X137948896Y-68362581D02*
X137472705Y-68362581D01*
X137425086Y-68838771D01*
X137472705Y-68791152D01*
X137567943Y-68743533D01*
X137806039Y-68743533D01*
X137901277Y-68791152D01*
X137948896Y-68838771D01*
X137996515Y-68934010D01*
X137996515Y-69172105D01*
X137948896Y-69267343D01*
X137901277Y-69314962D01*
X137806039Y-69362581D01*
X137567943Y-69362581D01*
X137472705Y-69314962D01*
X137425086Y-69267343D01*
X152350743Y-75985666D02*
X152398362Y-76033285D01*
X152445981Y-76176142D01*
X152445981Y-76271380D01*
X152398362Y-76414238D01*
X152303124Y-76509476D01*
X152207886Y-76557095D01*
X152017410Y-76604714D01*
X151874552Y-76604714D01*
X151684076Y-76557095D01*
X151588838Y-76509476D01*
X151493600Y-76414238D01*
X151445981Y-76271380D01*
X151445981Y-76176142D01*
X151493600Y-76033285D01*
X151541219Y-75985666D01*
X151445981Y-75128523D02*
X151445981Y-75319000D01*
X151493600Y-75414238D01*
X151541219Y-75461857D01*
X151684076Y-75557095D01*
X151874552Y-75604714D01*
X152255505Y-75604714D01*
X152350743Y-75557095D01*
X152398362Y-75509476D01*
X152445981Y-75414238D01*
X152445981Y-75223761D01*
X152398362Y-75128523D01*
X152350743Y-75080904D01*
X152255505Y-75033285D01*
X152017410Y-75033285D01*
X151922171Y-75080904D01*
X151874552Y-75128523D01*
X151826933Y-75223761D01*
X151826933Y-75414238D01*
X151874552Y-75509476D01*
X151922171Y-75557095D01*
X152017410Y-75604714D01*
X144130734Y-82780143D02*
X144083115Y-82827762D01*
X143940258Y-82875381D01*
X143845020Y-82875381D01*
X143702162Y-82827762D01*
X143606924Y-82732524D01*
X143559305Y-82637286D01*
X143511686Y-82446810D01*
X143511686Y-82303952D01*
X143559305Y-82113476D01*
X143606924Y-82018238D01*
X143702162Y-81923000D01*
X143845020Y-81875381D01*
X143940258Y-81875381D01*
X144083115Y-81923000D01*
X144130734Y-81970619D01*
X144464067Y-81875381D02*
X145130734Y-81875381D01*
X144702162Y-82875381D01*
X143802248Y-77425429D02*
X144564153Y-77425429D01*
X144183201Y-77806381D02*
X144183201Y-77044476D01*
X152665134Y-83313543D02*
X152617515Y-83361162D01*
X152474658Y-83408781D01*
X152379420Y-83408781D01*
X152236562Y-83361162D01*
X152141324Y-83265924D01*
X152093705Y-83170686D01*
X152046086Y-82980210D01*
X152046086Y-82837352D01*
X152093705Y-82646876D01*
X152141324Y-82551638D01*
X152236562Y-82456400D01*
X152379420Y-82408781D01*
X152474658Y-82408781D01*
X152617515Y-82456400D01*
X152665134Y-82504019D01*
X153236562Y-82837352D02*
X153141324Y-82789733D01*
X153093705Y-82742114D01*
X153046086Y-82646876D01*
X153046086Y-82599257D01*
X153093705Y-82504019D01*
X153141324Y-82456400D01*
X153236562Y-82408781D01*
X153427039Y-82408781D01*
X153522277Y-82456400D01*
X153569896Y-82504019D01*
X153617515Y-82599257D01*
X153617515Y-82646876D01*
X153569896Y-82742114D01*
X153522277Y-82789733D01*
X153427039Y-82837352D01*
X153236562Y-82837352D01*
X153141324Y-82884971D01*
X153093705Y-82932590D01*
X153046086Y-83027829D01*
X153046086Y-83218305D01*
X153093705Y-83313543D01*
X153141324Y-83361162D01*
X153236562Y-83408781D01*
X153427039Y-83408781D01*
X153522277Y-83361162D01*
X153569896Y-83313543D01*
X153617515Y-83218305D01*
X153617515Y-83027829D01*
X153569896Y-82932590D01*
X153522277Y-82884971D01*
X153427039Y-82837352D01*
X160097743Y-102554066D02*
X160145362Y-102601685D01*
X160192981Y-102744542D01*
X160192981Y-102839780D01*
X160145362Y-102982638D01*
X160050124Y-103077876D01*
X159954886Y-103125495D01*
X159764410Y-103173114D01*
X159621552Y-103173114D01*
X159431076Y-103125495D01*
X159335838Y-103077876D01*
X159240600Y-102982638D01*
X159192981Y-102839780D01*
X159192981Y-102744542D01*
X159240600Y-102601685D01*
X159288219Y-102554066D01*
X160192981Y-102077876D02*
X160192981Y-101887400D01*
X160145362Y-101792161D01*
X160097743Y-101744542D01*
X159954886Y-101649304D01*
X159764410Y-101601685D01*
X159383457Y-101601685D01*
X159288219Y-101649304D01*
X159240600Y-101696923D01*
X159192981Y-101792161D01*
X159192981Y-101982638D01*
X159240600Y-102077876D01*
X159288219Y-102125495D01*
X159383457Y-102173114D01*
X159621552Y-102173114D01*
X159716790Y-102125495D01*
X159764410Y-102077876D01*
X159812029Y-101982638D01*
X159812029Y-101792161D01*
X159764410Y-101696923D01*
X159716790Y-101649304D01*
X159621552Y-101601685D01*
X161799543Y-103309657D02*
X161847162Y-103357276D01*
X161894781Y-103500133D01*
X161894781Y-103595371D01*
X161847162Y-103738229D01*
X161751924Y-103833467D01*
X161656686Y-103881086D01*
X161466210Y-103928705D01*
X161323352Y-103928705D01*
X161132876Y-103881086D01*
X161037638Y-103833467D01*
X160942400Y-103738229D01*
X160894781Y-103595371D01*
X160894781Y-103500133D01*
X160942400Y-103357276D01*
X160990019Y-103309657D01*
X161894781Y-102357276D02*
X161894781Y-102928705D01*
X161894781Y-102642991D02*
X160894781Y-102642991D01*
X161037638Y-102738229D01*
X161132876Y-102833467D01*
X161180495Y-102928705D01*
X160894781Y-101738229D02*
X160894781Y-101642990D01*
X160942400Y-101547752D01*
X160990019Y-101500133D01*
X161085257Y-101452514D01*
X161275733Y-101404895D01*
X161513829Y-101404895D01*
X161704305Y-101452514D01*
X161799543Y-101500133D01*
X161847162Y-101547752D01*
X161894781Y-101642990D01*
X161894781Y-101738229D01*
X161847162Y-101833467D01*
X161799543Y-101881086D01*
X161704305Y-101928705D01*
X161513829Y-101976324D01*
X161275733Y-101976324D01*
X161085257Y-101928705D01*
X160990019Y-101881086D01*
X160942400Y-101833467D01*
X160894781Y-101738229D01*
X163475943Y-103335057D02*
X163523562Y-103382676D01*
X163571181Y-103525533D01*
X163571181Y-103620771D01*
X163523562Y-103763629D01*
X163428324Y-103858867D01*
X163333086Y-103906486D01*
X163142610Y-103954105D01*
X162999752Y-103954105D01*
X162809276Y-103906486D01*
X162714038Y-103858867D01*
X162618800Y-103763629D01*
X162571181Y-103620771D01*
X162571181Y-103525533D01*
X162618800Y-103382676D01*
X162666419Y-103335057D01*
X163571181Y-102382676D02*
X163571181Y-102954105D01*
X163571181Y-102668391D02*
X162571181Y-102668391D01*
X162714038Y-102763629D01*
X162809276Y-102858867D01*
X162856895Y-102954105D01*
X163571181Y-101430295D02*
X163571181Y-102001724D01*
X163571181Y-101716010D02*
X162571181Y-101716010D01*
X162714038Y-101811248D01*
X162809276Y-101906486D01*
X162856895Y-102001724D01*
X166006543Y-102007943D02*
X165958924Y-102055562D01*
X165816067Y-102103181D01*
X165720829Y-102103181D01*
X165577971Y-102055562D01*
X165482733Y-101960324D01*
X165435114Y-101865086D01*
X165387495Y-101674610D01*
X165387495Y-101531752D01*
X165435114Y-101341276D01*
X165482733Y-101246038D01*
X165577971Y-101150800D01*
X165720829Y-101103181D01*
X165816067Y-101103181D01*
X165958924Y-101150800D01*
X166006543Y-101198419D01*
X166958924Y-102103181D02*
X166387495Y-102103181D01*
X166673209Y-102103181D02*
X166673209Y-101103181D01*
X166577971Y-101246038D01*
X166482733Y-101341276D01*
X166387495Y-101388895D01*
X167339876Y-101198419D02*
X167387495Y-101150800D01*
X167482733Y-101103181D01*
X167720829Y-101103181D01*
X167816067Y-101150800D01*
X167863686Y-101198419D01*
X167911305Y-101293657D01*
X167911305Y-101388895D01*
X167863686Y-101531752D01*
X167292257Y-102103181D01*
X167911305Y-102103181D01*
X158370543Y-115603257D02*
X158418162Y-115650876D01*
X158465781Y-115793733D01*
X158465781Y-115888971D01*
X158418162Y-116031829D01*
X158322924Y-116127067D01*
X158227686Y-116174686D01*
X158037210Y-116222305D01*
X157894352Y-116222305D01*
X157703876Y-116174686D01*
X157608638Y-116127067D01*
X157513400Y-116031829D01*
X157465781Y-115888971D01*
X157465781Y-115793733D01*
X157513400Y-115650876D01*
X157561019Y-115603257D01*
X158465781Y-114650876D02*
X158465781Y-115222305D01*
X158465781Y-114936591D02*
X157465781Y-114936591D01*
X157608638Y-115031829D01*
X157703876Y-115127067D01*
X157751495Y-115222305D01*
X157465781Y-114317543D02*
X157465781Y-113698495D01*
X157846733Y-114031829D01*
X157846733Y-113888971D01*
X157894352Y-113793733D01*
X157941971Y-113746114D01*
X158037210Y-113698495D01*
X158275305Y-113698495D01*
X158370543Y-113746114D01*
X158418162Y-113793733D01*
X158465781Y-113888971D01*
X158465781Y-114174686D01*
X158418162Y-114269924D01*
X158370543Y-114317543D01*
X173331143Y-87129857D02*
X173378762Y-87177476D01*
X173426381Y-87320333D01*
X173426381Y-87415571D01*
X173378762Y-87558429D01*
X173283524Y-87653667D01*
X173188286Y-87701286D01*
X172997810Y-87748905D01*
X172854952Y-87748905D01*
X172664476Y-87701286D01*
X172569238Y-87653667D01*
X172474000Y-87558429D01*
X172426381Y-87415571D01*
X172426381Y-87320333D01*
X172474000Y-87177476D01*
X172521619Y-87129857D01*
X173426381Y-86177476D02*
X173426381Y-86748905D01*
X173426381Y-86463191D02*
X172426381Y-86463191D01*
X172569238Y-86558429D01*
X172664476Y-86653667D01*
X172712095Y-86748905D01*
X172759714Y-85320333D02*
X173426381Y-85320333D01*
X172378762Y-85558429D02*
X173093048Y-85796524D01*
X173093048Y-85177476D01*
X171680143Y-87129857D02*
X171727762Y-87177476D01*
X171775381Y-87320333D01*
X171775381Y-87415571D01*
X171727762Y-87558429D01*
X171632524Y-87653667D01*
X171537286Y-87701286D01*
X171346810Y-87748905D01*
X171203952Y-87748905D01*
X171013476Y-87701286D01*
X170918238Y-87653667D01*
X170823000Y-87558429D01*
X170775381Y-87415571D01*
X170775381Y-87320333D01*
X170823000Y-87177476D01*
X170870619Y-87129857D01*
X171775381Y-86177476D02*
X171775381Y-86748905D01*
X171775381Y-86463191D02*
X170775381Y-86463191D01*
X170918238Y-86558429D01*
X171013476Y-86653667D01*
X171061095Y-86748905D01*
X170775381Y-85272714D02*
X170775381Y-85748905D01*
X171251571Y-85796524D01*
X171203952Y-85748905D01*
X171156333Y-85653667D01*
X171156333Y-85415571D01*
X171203952Y-85320333D01*
X171251571Y-85272714D01*
X171346810Y-85225095D01*
X171584905Y-85225095D01*
X171680143Y-85272714D01*
X171727762Y-85320333D01*
X171775381Y-85415571D01*
X171775381Y-85653667D01*
X171727762Y-85748905D01*
X171680143Y-85796524D01*
X170003743Y-87079057D02*
X170051362Y-87126676D01*
X170098981Y-87269533D01*
X170098981Y-87364771D01*
X170051362Y-87507629D01*
X169956124Y-87602867D01*
X169860886Y-87650486D01*
X169670410Y-87698105D01*
X169527552Y-87698105D01*
X169337076Y-87650486D01*
X169241838Y-87602867D01*
X169146600Y-87507629D01*
X169098981Y-87364771D01*
X169098981Y-87269533D01*
X169146600Y-87126676D01*
X169194219Y-87079057D01*
X170098981Y-86126676D02*
X170098981Y-86698105D01*
X170098981Y-86412391D02*
X169098981Y-86412391D01*
X169241838Y-86507629D01*
X169337076Y-86602867D01*
X169384695Y-86698105D01*
X169098981Y-85269533D02*
X169098981Y-85460010D01*
X169146600Y-85555248D01*
X169194219Y-85602867D01*
X169337076Y-85698105D01*
X169527552Y-85745724D01*
X169908505Y-85745724D01*
X170003743Y-85698105D01*
X170051362Y-85650486D01*
X170098981Y-85555248D01*
X170098981Y-85364771D01*
X170051362Y-85269533D01*
X170003743Y-85221914D01*
X169908505Y-85174295D01*
X169670410Y-85174295D01*
X169575171Y-85221914D01*
X169527552Y-85269533D01*
X169479933Y-85364771D01*
X169479933Y-85555248D01*
X169527552Y-85650486D01*
X169575171Y-85698105D01*
X169670410Y-85745724D01*
X183262543Y-111386857D02*
X183310162Y-111434476D01*
X183357781Y-111577333D01*
X183357781Y-111672571D01*
X183310162Y-111815429D01*
X183214924Y-111910667D01*
X183119686Y-111958286D01*
X182929210Y-112005905D01*
X182786352Y-112005905D01*
X182595876Y-111958286D01*
X182500638Y-111910667D01*
X182405400Y-111815429D01*
X182357781Y-111672571D01*
X182357781Y-111577333D01*
X182405400Y-111434476D01*
X182453019Y-111386857D01*
X183357781Y-110434476D02*
X183357781Y-111005905D01*
X183357781Y-110720191D02*
X182357781Y-110720191D01*
X182500638Y-110815429D01*
X182595876Y-110910667D01*
X182643495Y-111005905D01*
X182357781Y-110101143D02*
X182357781Y-109434476D01*
X183357781Y-109863048D01*
X188037743Y-118448057D02*
X188085362Y-118495676D01*
X188132981Y-118638533D01*
X188132981Y-118733771D01*
X188085362Y-118876629D01*
X187990124Y-118971867D01*
X187894886Y-119019486D01*
X187704410Y-119067105D01*
X187561552Y-119067105D01*
X187371076Y-119019486D01*
X187275838Y-118971867D01*
X187180600Y-118876629D01*
X187132981Y-118733771D01*
X187132981Y-118638533D01*
X187180600Y-118495676D01*
X187228219Y-118448057D01*
X188132981Y-117495676D02*
X188132981Y-118067105D01*
X188132981Y-117781391D02*
X187132981Y-117781391D01*
X187275838Y-117876629D01*
X187371076Y-117971867D01*
X187418695Y-118067105D01*
X187561552Y-116924248D02*
X187513933Y-117019486D01*
X187466314Y-117067105D01*
X187371076Y-117114724D01*
X187323457Y-117114724D01*
X187228219Y-117067105D01*
X187180600Y-117019486D01*
X187132981Y-116924248D01*
X187132981Y-116733771D01*
X187180600Y-116638533D01*
X187228219Y-116590914D01*
X187323457Y-116543295D01*
X187371076Y-116543295D01*
X187466314Y-116590914D01*
X187513933Y-116638533D01*
X187561552Y-116733771D01*
X187561552Y-116924248D01*
X187609171Y-117019486D01*
X187656790Y-117067105D01*
X187752029Y-117114724D01*
X187942505Y-117114724D01*
X188037743Y-117067105D01*
X188085362Y-117019486D01*
X188132981Y-116924248D01*
X188132981Y-116733771D01*
X188085362Y-116638533D01*
X188037743Y-116590914D01*
X187942505Y-116543295D01*
X187752029Y-116543295D01*
X187656790Y-116590914D01*
X187609171Y-116638533D01*
X187561552Y-116733771D01*
X162399743Y-120422943D02*
X162352124Y-120470562D01*
X162209267Y-120518181D01*
X162114029Y-120518181D01*
X161971171Y-120470562D01*
X161875933Y-120375324D01*
X161828314Y-120280086D01*
X161780695Y-120089610D01*
X161780695Y-119946752D01*
X161828314Y-119756276D01*
X161875933Y-119661038D01*
X161971171Y-119565800D01*
X162114029Y-119518181D01*
X162209267Y-119518181D01*
X162352124Y-119565800D01*
X162399743Y-119613419D01*
X163352124Y-120518181D02*
X162780695Y-120518181D01*
X163066409Y-120518181D02*
X163066409Y-119518181D01*
X162971171Y-119661038D01*
X162875933Y-119756276D01*
X162780695Y-119803895D01*
X163828314Y-120518181D02*
X164018790Y-120518181D01*
X164114029Y-120470562D01*
X164161648Y-120422943D01*
X164256886Y-120280086D01*
X164304505Y-120089610D01*
X164304505Y-119708657D01*
X164256886Y-119613419D01*
X164209267Y-119565800D01*
X164114029Y-119518181D01*
X163923552Y-119518181D01*
X163828314Y-119565800D01*
X163780695Y-119613419D01*
X163733076Y-119708657D01*
X163733076Y-119946752D01*
X163780695Y-120041990D01*
X163828314Y-120089610D01*
X163923552Y-120137229D01*
X164114029Y-120137229D01*
X164209267Y-120089610D01*
X164256886Y-120041990D01*
X164304505Y-119946752D01*
X135755143Y-120092743D02*
X135707524Y-120140362D01*
X135564667Y-120187981D01*
X135469429Y-120187981D01*
X135326571Y-120140362D01*
X135231333Y-120045124D01*
X135183714Y-119949886D01*
X135136095Y-119759410D01*
X135136095Y-119616552D01*
X135183714Y-119426076D01*
X135231333Y-119330838D01*
X135326571Y-119235600D01*
X135469429Y-119187981D01*
X135564667Y-119187981D01*
X135707524Y-119235600D01*
X135755143Y-119283219D01*
X136136095Y-119283219D02*
X136183714Y-119235600D01*
X136278952Y-119187981D01*
X136517048Y-119187981D01*
X136612286Y-119235600D01*
X136659905Y-119283219D01*
X136707524Y-119378457D01*
X136707524Y-119473695D01*
X136659905Y-119616552D01*
X136088476Y-120187981D01*
X136707524Y-120187981D01*
X137326571Y-119187981D02*
X137421810Y-119187981D01*
X137517048Y-119235600D01*
X137564667Y-119283219D01*
X137612286Y-119378457D01*
X137659905Y-119568933D01*
X137659905Y-119807029D01*
X137612286Y-119997505D01*
X137564667Y-120092743D01*
X137517048Y-120140362D01*
X137421810Y-120187981D01*
X137326571Y-120187981D01*
X137231333Y-120140362D01*
X137183714Y-120092743D01*
X137136095Y-119997505D01*
X137088476Y-119807029D01*
X137088476Y-119568933D01*
X137136095Y-119378457D01*
X137183714Y-119283219D01*
X137231333Y-119235600D01*
X137326571Y-119187981D01*
X114368343Y-120295943D02*
X114320724Y-120343562D01*
X114177867Y-120391181D01*
X114082629Y-120391181D01*
X113939771Y-120343562D01*
X113844533Y-120248324D01*
X113796914Y-120153086D01*
X113749295Y-119962610D01*
X113749295Y-119819752D01*
X113796914Y-119629276D01*
X113844533Y-119534038D01*
X113939771Y-119438800D01*
X114082629Y-119391181D01*
X114177867Y-119391181D01*
X114320724Y-119438800D01*
X114368343Y-119486419D01*
X114749295Y-119486419D02*
X114796914Y-119438800D01*
X114892152Y-119391181D01*
X115130248Y-119391181D01*
X115225486Y-119438800D01*
X115273105Y-119486419D01*
X115320724Y-119581657D01*
X115320724Y-119676895D01*
X115273105Y-119819752D01*
X114701676Y-120391181D01*
X115320724Y-120391181D01*
X116273105Y-120391181D02*
X115701676Y-120391181D01*
X115987390Y-120391181D02*
X115987390Y-119391181D01*
X115892152Y-119534038D01*
X115796914Y-119629276D01*
X115701676Y-119676895D01*
X152525505Y-54478181D02*
X152525505Y-53478181D01*
X152763600Y-53478181D01*
X152906458Y-53525800D01*
X153001696Y-53621038D01*
X153049315Y-53716276D01*
X153096934Y-53906752D01*
X153096934Y-54049610D01*
X153049315Y-54240086D01*
X153001696Y-54335324D01*
X152906458Y-54430562D01*
X152763600Y-54478181D01*
X152525505Y-54478181D01*
X154049315Y-54478181D02*
X153477886Y-54478181D01*
X153763600Y-54478181D02*
X153763600Y-53478181D01*
X153668362Y-53621038D01*
X153573124Y-53716276D01*
X153477886Y-53763895D01*
X165581105Y-85669381D02*
X165581105Y-84669381D01*
X165819200Y-84669381D01*
X165962058Y-84717000D01*
X166057296Y-84812238D01*
X166104915Y-84907476D01*
X166152534Y-85097952D01*
X166152534Y-85240810D01*
X166104915Y-85431286D01*
X166057296Y-85526524D01*
X165962058Y-85621762D01*
X165819200Y-85669381D01*
X165581105Y-85669381D01*
X166533486Y-84764619D02*
X166581105Y-84717000D01*
X166676343Y-84669381D01*
X166914439Y-84669381D01*
X167009677Y-84717000D01*
X167057296Y-84764619D01*
X167104915Y-84859857D01*
X167104915Y-84955095D01*
X167057296Y-85097952D01*
X166485867Y-85669381D01*
X167104915Y-85669381D01*
X159686667Y-74356981D02*
X159686667Y-75071267D01*
X159639047Y-75214124D01*
X159543809Y-75309362D01*
X159400952Y-75356981D01*
X159305714Y-75356981D01*
X160686667Y-75356981D02*
X160115238Y-75356981D01*
X160400952Y-75356981D02*
X160400952Y-74356981D01*
X160305714Y-74499838D01*
X160210476Y-74595076D01*
X160115238Y-74642695D01*
X159686667Y-62368181D02*
X159686667Y-63082467D01*
X159639047Y-63225324D01*
X159543809Y-63320562D01*
X159400952Y-63368181D01*
X159305714Y-63368181D01*
X160115238Y-62463419D02*
X160162857Y-62415800D01*
X160258095Y-62368181D01*
X160496191Y-62368181D01*
X160591429Y-62415800D01*
X160639048Y-62463419D01*
X160686667Y-62558657D01*
X160686667Y-62653895D01*
X160639048Y-62796752D01*
X160067619Y-63368181D01*
X160686667Y-63368181D01*
X138884067Y-74382381D02*
X138884067Y-75096667D01*
X138836447Y-75239524D01*
X138741209Y-75334762D01*
X138598352Y-75382381D01*
X138503114Y-75382381D01*
X139265019Y-74382381D02*
X139884067Y-74382381D01*
X139550733Y-74763333D01*
X139693591Y-74763333D01*
X139788829Y-74810952D01*
X139836448Y-74858571D01*
X139884067Y-74953810D01*
X139884067Y-75191905D01*
X139836448Y-75287143D01*
X139788829Y-75334762D01*
X139693591Y-75382381D01*
X139407876Y-75382381D01*
X139312638Y-75334762D01*
X139265019Y-75287143D01*
X138858667Y-62317381D02*
X138858667Y-63031667D01*
X138811047Y-63174524D01*
X138715809Y-63269762D01*
X138572952Y-63317381D01*
X138477714Y-63317381D01*
X139763429Y-62650714D02*
X139763429Y-63317381D01*
X139525333Y-62269762D02*
X139287238Y-62984048D01*
X139906286Y-62984048D01*
X139087267Y-59828181D02*
X139087267Y-60542467D01*
X139039647Y-60685324D01*
X138944409Y-60780562D01*
X138801552Y-60828181D01*
X138706314Y-60828181D01*
X140039648Y-59828181D02*
X139563457Y-59828181D01*
X139515838Y-60304371D01*
X139563457Y-60256752D01*
X139658695Y-60209133D01*
X139896791Y-60209133D01*
X139992029Y-60256752D01*
X140039648Y-60304371D01*
X140087267Y-60399610D01*
X140087267Y-60637705D01*
X140039648Y-60732943D01*
X139992029Y-60780562D01*
X139896791Y-60828181D01*
X139658695Y-60828181D01*
X139563457Y-60780562D01*
X139515838Y-60732943D01*
X149272667Y-115530381D02*
X149272667Y-116244667D01*
X149225047Y-116387524D01*
X149129809Y-116482762D01*
X148986952Y-116530381D01*
X148891714Y-116530381D01*
X150177429Y-115530381D02*
X149986952Y-115530381D01*
X149891714Y-115578000D01*
X149844095Y-115625619D01*
X149748857Y-115768476D01*
X149701238Y-115958952D01*
X149701238Y-116339905D01*
X149748857Y-116435143D01*
X149796476Y-116482762D01*
X149891714Y-116530381D01*
X150082191Y-116530381D01*
X150177429Y-116482762D01*
X150225048Y-116435143D01*
X150272667Y-116339905D01*
X150272667Y-116101810D01*
X150225048Y-116006571D01*
X150177429Y-115958952D01*
X150082191Y-115911333D01*
X149891714Y-115911333D01*
X149796476Y-115958952D01*
X149748857Y-116006571D01*
X149701238Y-116101810D01*
X163590219Y-59429638D02*
X163542600Y-59524876D01*
X163447362Y-59620114D01*
X163304505Y-59762971D01*
X163256886Y-59858210D01*
X163256886Y-59953448D01*
X163494981Y-59905829D02*
X163447362Y-60001067D01*
X163352124Y-60096305D01*
X163161648Y-60143924D01*
X162828314Y-60143924D01*
X162637838Y-60096305D01*
X162542600Y-60001067D01*
X162494981Y-59905829D01*
X162494981Y-59715352D01*
X162542600Y-59620114D01*
X162637838Y-59524876D01*
X162828314Y-59477257D01*
X163161648Y-59477257D01*
X163352124Y-59524876D01*
X163447362Y-59620114D01*
X163494981Y-59715352D01*
X163494981Y-59905829D01*
X163494981Y-58524876D02*
X163494981Y-59096305D01*
X163494981Y-58810591D02*
X162494981Y-58810591D01*
X162637838Y-58905829D01*
X162733076Y-59001067D01*
X162780695Y-59096305D01*
X152826981Y-72251866D02*
X152350790Y-72585200D01*
X152826981Y-72823295D02*
X151826981Y-72823295D01*
X151826981Y-72442342D01*
X151874600Y-72347104D01*
X151922219Y-72299485D01*
X152017457Y-72251866D01*
X152160314Y-72251866D01*
X152255552Y-72299485D01*
X152303171Y-72347104D01*
X152350790Y-72442342D01*
X152350790Y-72823295D01*
X151922219Y-71870914D02*
X151874600Y-71823295D01*
X151826981Y-71728057D01*
X151826981Y-71489961D01*
X151874600Y-71394723D01*
X151922219Y-71347104D01*
X152017457Y-71299485D01*
X152112695Y-71299485D01*
X152255552Y-71347104D01*
X152826981Y-71918533D01*
X152826981Y-71299485D01*
X152801581Y-65749466D02*
X152325390Y-66082800D01*
X152801581Y-66320895D02*
X151801581Y-66320895D01*
X151801581Y-65939942D01*
X151849200Y-65844704D01*
X151896819Y-65797085D01*
X151992057Y-65749466D01*
X152134914Y-65749466D01*
X152230152Y-65797085D01*
X152277771Y-65844704D01*
X152325390Y-65939942D01*
X152325390Y-66320895D01*
X151801581Y-65416133D02*
X151801581Y-64797085D01*
X152182533Y-65130419D01*
X152182533Y-64987561D01*
X152230152Y-64892323D01*
X152277771Y-64844704D01*
X152373010Y-64797085D01*
X152611105Y-64797085D01*
X152706343Y-64844704D01*
X152753962Y-64892323D01*
X152801581Y-64987561D01*
X152801581Y-65273276D01*
X152753962Y-65368514D01*
X152706343Y-65416133D01*
X147416781Y-65749466D02*
X146940590Y-66082800D01*
X147416781Y-66320895D02*
X146416781Y-66320895D01*
X146416781Y-65939942D01*
X146464400Y-65844704D01*
X146512019Y-65797085D01*
X146607257Y-65749466D01*
X146750114Y-65749466D01*
X146845352Y-65797085D01*
X146892971Y-65844704D01*
X146940590Y-65939942D01*
X146940590Y-66320895D01*
X146416781Y-64844704D02*
X146416781Y-65320895D01*
X146892971Y-65368514D01*
X146845352Y-65320895D01*
X146797733Y-65225657D01*
X146797733Y-64987561D01*
X146845352Y-64892323D01*
X146892971Y-64844704D01*
X146988210Y-64797085D01*
X147226305Y-64797085D01*
X147321543Y-64844704D01*
X147369162Y-64892323D01*
X147416781Y-64987561D01*
X147416781Y-65225657D01*
X147369162Y-65320895D01*
X147321543Y-65368514D01*
X137523481Y-88164966D02*
X137047290Y-88498300D01*
X137523481Y-88736395D02*
X136523481Y-88736395D01*
X136523481Y-88355442D01*
X136571100Y-88260204D01*
X136618719Y-88212585D01*
X136713957Y-88164966D01*
X136856814Y-88164966D01*
X136952052Y-88212585D01*
X136999671Y-88260204D01*
X137047290Y-88355442D01*
X137047290Y-88736395D01*
X136523481Y-87307823D02*
X136523481Y-87498300D01*
X136571100Y-87593538D01*
X136618719Y-87641157D01*
X136761576Y-87736395D01*
X136952052Y-87784014D01*
X137333005Y-87784014D01*
X137428243Y-87736395D01*
X137475862Y-87688776D01*
X137523481Y-87593538D01*
X137523481Y-87403061D01*
X137475862Y-87307823D01*
X137428243Y-87260204D01*
X137333005Y-87212585D01*
X137094910Y-87212585D01*
X136999671Y-87260204D01*
X136952052Y-87307823D01*
X136904433Y-87403061D01*
X136904433Y-87593538D01*
X136952052Y-87688776D01*
X136999671Y-87736395D01*
X137094910Y-87784014D01*
X143111481Y-88164966D02*
X142635290Y-88498300D01*
X143111481Y-88736395D02*
X142111481Y-88736395D01*
X142111481Y-88355442D01*
X142159100Y-88260204D01*
X142206719Y-88212585D01*
X142301957Y-88164966D01*
X142444814Y-88164966D01*
X142540052Y-88212585D01*
X142587671Y-88260204D01*
X142635290Y-88355442D01*
X142635290Y-88736395D01*
X142540052Y-87593538D02*
X142492433Y-87688776D01*
X142444814Y-87736395D01*
X142349576Y-87784014D01*
X142301957Y-87784014D01*
X142206719Y-87736395D01*
X142159100Y-87688776D01*
X142111481Y-87593538D01*
X142111481Y-87403061D01*
X142159100Y-87307823D01*
X142206719Y-87260204D01*
X142301957Y-87212585D01*
X142349576Y-87212585D01*
X142444814Y-87260204D01*
X142492433Y-87307823D01*
X142540052Y-87403061D01*
X142540052Y-87593538D01*
X142587671Y-87688776D01*
X142635290Y-87736395D01*
X142730529Y-87784014D01*
X142921005Y-87784014D01*
X143016243Y-87736395D01*
X143063862Y-87688776D01*
X143111481Y-87593538D01*
X143111481Y-87403061D01*
X143063862Y-87307823D01*
X143016243Y-87260204D01*
X142921005Y-87212585D01*
X142730529Y-87212585D01*
X142635290Y-87260204D01*
X142587671Y-87307823D01*
X142540052Y-87403061D01*
X144270434Y-54033681D02*
X143937100Y-53557490D01*
X143699005Y-54033681D02*
X143699005Y-53033681D01*
X144079958Y-53033681D01*
X144175196Y-53081300D01*
X144222815Y-53128919D01*
X144270434Y-53224157D01*
X144270434Y-53367014D01*
X144222815Y-53462252D01*
X144175196Y-53509871D01*
X144079958Y-53557490D01*
X143699005Y-53557490D01*
X144746624Y-54033681D02*
X144937100Y-54033681D01*
X145032339Y-53986062D01*
X145079958Y-53938443D01*
X145175196Y-53795586D01*
X145222815Y-53605110D01*
X145222815Y-53224157D01*
X145175196Y-53128919D01*
X145127577Y-53081300D01*
X145032339Y-53033681D01*
X144841862Y-53033681D01*
X144746624Y-53081300D01*
X144699005Y-53128919D01*
X144651386Y-53224157D01*
X144651386Y-53462252D01*
X144699005Y-53557490D01*
X144746624Y-53605110D01*
X144841862Y-53652729D01*
X145032339Y-53652729D01*
X145127577Y-53605110D01*
X145175196Y-53557490D01*
X145222815Y-53462252D01*
X169359343Y-102128581D02*
X169026009Y-101652390D01*
X168787914Y-102128581D02*
X168787914Y-101128581D01*
X169168867Y-101128581D01*
X169264105Y-101176200D01*
X169311724Y-101223819D01*
X169359343Y-101319057D01*
X169359343Y-101461914D01*
X169311724Y-101557152D01*
X169264105Y-101604771D01*
X169168867Y-101652390D01*
X168787914Y-101652390D01*
X170311724Y-102128581D02*
X169740295Y-102128581D01*
X170026009Y-102128581D02*
X170026009Y-101128581D01*
X169930771Y-101271438D01*
X169835533Y-101366676D01*
X169740295Y-101414295D01*
X170930771Y-101128581D02*
X171026010Y-101128581D01*
X171121248Y-101176200D01*
X171168867Y-101223819D01*
X171216486Y-101319057D01*
X171264105Y-101509533D01*
X171264105Y-101747629D01*
X171216486Y-101938105D01*
X171168867Y-102033343D01*
X171121248Y-102080962D01*
X171026010Y-102128581D01*
X170930771Y-102128581D01*
X170835533Y-102080962D01*
X170787914Y-102033343D01*
X170740295Y-101938105D01*
X170692676Y-101747629D01*
X170692676Y-101509533D01*
X170740295Y-101319057D01*
X170787914Y-101223819D01*
X170835533Y-101176200D01*
X170930771Y-101128581D01*
X175229781Y-96985057D02*
X174753590Y-97318391D01*
X175229781Y-97556486D02*
X174229781Y-97556486D01*
X174229781Y-97175533D01*
X174277400Y-97080295D01*
X174325019Y-97032676D01*
X174420257Y-96985057D01*
X174563114Y-96985057D01*
X174658352Y-97032676D01*
X174705971Y-97080295D01*
X174753590Y-97175533D01*
X174753590Y-97556486D01*
X175229781Y-96032676D02*
X175229781Y-96604105D01*
X175229781Y-96318391D02*
X174229781Y-96318391D01*
X174372638Y-96413629D01*
X174467876Y-96508867D01*
X174515495Y-96604105D01*
X175229781Y-95080295D02*
X175229781Y-95651724D01*
X175229781Y-95366010D02*
X174229781Y-95366010D01*
X174372638Y-95461248D01*
X174467876Y-95556486D01*
X174515495Y-95651724D01*
X177007781Y-90762057D02*
X176531590Y-91095391D01*
X177007781Y-91333486D02*
X176007781Y-91333486D01*
X176007781Y-90952533D01*
X176055400Y-90857295D01*
X176103019Y-90809676D01*
X176198257Y-90762057D01*
X176341114Y-90762057D01*
X176436352Y-90809676D01*
X176483971Y-90857295D01*
X176531590Y-90952533D01*
X176531590Y-91333486D01*
X177007781Y-89809676D02*
X177007781Y-90381105D01*
X177007781Y-90095391D02*
X176007781Y-90095391D01*
X176150638Y-90190629D01*
X176245876Y-90285867D01*
X176293495Y-90381105D01*
X176103019Y-89428724D02*
X176055400Y-89381105D01*
X176007781Y-89285867D01*
X176007781Y-89047771D01*
X176055400Y-88952533D01*
X176103019Y-88904914D01*
X176198257Y-88857295D01*
X176293495Y-88857295D01*
X176436352Y-88904914D01*
X177007781Y-89476343D01*
X177007781Y-88857295D01*
X161891743Y-113152181D02*
X161558409Y-112675990D01*
X161320314Y-113152181D02*
X161320314Y-112152181D01*
X161701267Y-112152181D01*
X161796505Y-112199800D01*
X161844124Y-112247419D01*
X161891743Y-112342657D01*
X161891743Y-112485514D01*
X161844124Y-112580752D01*
X161796505Y-112628371D01*
X161701267Y-112675990D01*
X161320314Y-112675990D01*
X162844124Y-113152181D02*
X162272695Y-113152181D01*
X162558409Y-113152181D02*
X162558409Y-112152181D01*
X162463171Y-112295038D01*
X162367933Y-112390276D01*
X162272695Y-112437895D01*
X163177457Y-112152181D02*
X163796505Y-112152181D01*
X163463171Y-112533133D01*
X163606029Y-112533133D01*
X163701267Y-112580752D01*
X163748886Y-112628371D01*
X163796505Y-112723610D01*
X163796505Y-112961705D01*
X163748886Y-113056943D01*
X163701267Y-113104562D01*
X163606029Y-113152181D01*
X163320314Y-113152181D01*
X163225076Y-113104562D01*
X163177457Y-113056943D01*
X180052743Y-108376981D02*
X179719409Y-107900790D01*
X179481314Y-108376981D02*
X179481314Y-107376981D01*
X179862267Y-107376981D01*
X179957505Y-107424600D01*
X180005124Y-107472219D01*
X180052743Y-107567457D01*
X180052743Y-107710314D01*
X180005124Y-107805552D01*
X179957505Y-107853171D01*
X179862267Y-107900790D01*
X179481314Y-107900790D01*
X181005124Y-108376981D02*
X180433695Y-108376981D01*
X180719409Y-108376981D02*
X180719409Y-107376981D01*
X180624171Y-107519838D01*
X180528933Y-107615076D01*
X180433695Y-107662695D01*
X181862267Y-107710314D02*
X181862267Y-108376981D01*
X181624171Y-107329362D02*
X181386076Y-108043648D01*
X182005124Y-108043648D01*
X170352981Y-112580657D02*
X169876790Y-112913991D01*
X170352981Y-113152086D02*
X169352981Y-113152086D01*
X169352981Y-112771133D01*
X169400600Y-112675895D01*
X169448219Y-112628276D01*
X169543457Y-112580657D01*
X169686314Y-112580657D01*
X169781552Y-112628276D01*
X169829171Y-112675895D01*
X169876790Y-112771133D01*
X169876790Y-113152086D01*
X170352981Y-111628276D02*
X170352981Y-112199705D01*
X170352981Y-111913991D02*
X169352981Y-111913991D01*
X169495838Y-112009229D01*
X169591076Y-112104467D01*
X169638695Y-112199705D01*
X169352981Y-110723514D02*
X169352981Y-111199705D01*
X169829171Y-111247324D01*
X169781552Y-111199705D01*
X169733933Y-111104467D01*
X169733933Y-110866371D01*
X169781552Y-110771133D01*
X169829171Y-110723514D01*
X169924410Y-110675895D01*
X170162505Y-110675895D01*
X170257743Y-110723514D01*
X170305362Y-110771133D01*
X170352981Y-110866371D01*
X170352981Y-111104467D01*
X170305362Y-111199705D01*
X170257743Y-111247324D01*
X175531543Y-113355381D02*
X175198209Y-112879190D01*
X174960114Y-113355381D02*
X174960114Y-112355381D01*
X175341067Y-112355381D01*
X175436305Y-112403000D01*
X175483924Y-112450619D01*
X175531543Y-112545857D01*
X175531543Y-112688714D01*
X175483924Y-112783952D01*
X175436305Y-112831571D01*
X175341067Y-112879190D01*
X174960114Y-112879190D01*
X176483924Y-113355381D02*
X175912495Y-113355381D01*
X176198209Y-113355381D02*
X176198209Y-112355381D01*
X176102971Y-112498238D01*
X176007733Y-112593476D01*
X175912495Y-112641095D01*
X177341067Y-112355381D02*
X177150590Y-112355381D01*
X177055352Y-112403000D01*
X177007733Y-112450619D01*
X176912495Y-112593476D01*
X176864876Y-112783952D01*
X176864876Y-113164905D01*
X176912495Y-113260143D01*
X176960114Y-113307762D01*
X177055352Y-113355381D01*
X177245829Y-113355381D01*
X177341067Y-113307762D01*
X177388686Y-113260143D01*
X177436305Y-113164905D01*
X177436305Y-112926810D01*
X177388686Y-112831571D01*
X177341067Y-112783952D01*
X177245829Y-112736333D01*
X177055352Y-112736333D01*
X176960114Y-112783952D01*
X176912495Y-112831571D01*
X176864876Y-112926810D01*
X184653181Y-118676657D02*
X184176990Y-119009991D01*
X184653181Y-119248086D02*
X183653181Y-119248086D01*
X183653181Y-118867133D01*
X183700800Y-118771895D01*
X183748419Y-118724276D01*
X183843657Y-118676657D01*
X183986514Y-118676657D01*
X184081752Y-118724276D01*
X184129371Y-118771895D01*
X184176990Y-118867133D01*
X184176990Y-119248086D01*
X184653181Y-117724276D02*
X184653181Y-118295705D01*
X184653181Y-118009991D02*
X183653181Y-118009991D01*
X183796038Y-118105229D01*
X183891276Y-118200467D01*
X183938895Y-118295705D01*
X183653181Y-117390943D02*
X183653181Y-116724276D01*
X184653181Y-117152848D01*
X171797743Y-112898181D02*
X171464409Y-112421990D01*
X171226314Y-112898181D02*
X171226314Y-111898181D01*
X171607267Y-111898181D01*
X171702505Y-111945800D01*
X171750124Y-111993419D01*
X171797743Y-112088657D01*
X171797743Y-112231514D01*
X171750124Y-112326752D01*
X171702505Y-112374371D01*
X171607267Y-112421990D01*
X171226314Y-112421990D01*
X172750124Y-112898181D02*
X172178695Y-112898181D01*
X172464409Y-112898181D02*
X172464409Y-111898181D01*
X172369171Y-112041038D01*
X172273933Y-112136276D01*
X172178695Y-112183895D01*
X173321552Y-112326752D02*
X173226314Y-112279133D01*
X173178695Y-112231514D01*
X173131076Y-112136276D01*
X173131076Y-112088657D01*
X173178695Y-111993419D01*
X173226314Y-111945800D01*
X173321552Y-111898181D01*
X173512029Y-111898181D01*
X173607267Y-111945800D01*
X173654886Y-111993419D01*
X173702505Y-112088657D01*
X173702505Y-112136276D01*
X173654886Y-112231514D01*
X173607267Y-112279133D01*
X173512029Y-112326752D01*
X173321552Y-112326752D01*
X173226314Y-112374371D01*
X173178695Y-112421990D01*
X173131076Y-112517229D01*
X173131076Y-112707705D01*
X173178695Y-112802943D01*
X173226314Y-112850562D01*
X173321552Y-112898181D01*
X173512029Y-112898181D01*
X173607267Y-112850562D01*
X173654886Y-112802943D01*
X173702505Y-112707705D01*
X173702505Y-112517229D01*
X173654886Y-112421990D01*
X173607267Y-112374371D01*
X173512029Y-112326752D01*
X186405781Y-118676657D02*
X185929590Y-119009991D01*
X186405781Y-119248086D02*
X185405781Y-119248086D01*
X185405781Y-118867133D01*
X185453400Y-118771895D01*
X185501019Y-118724276D01*
X185596257Y-118676657D01*
X185739114Y-118676657D01*
X185834352Y-118724276D01*
X185881971Y-118771895D01*
X185929590Y-118867133D01*
X185929590Y-119248086D01*
X186405781Y-117724276D02*
X186405781Y-118295705D01*
X186405781Y-118009991D02*
X185405781Y-118009991D01*
X185548638Y-118105229D01*
X185643876Y-118200467D01*
X185691495Y-118295705D01*
X186405781Y-117248086D02*
X186405781Y-117057610D01*
X186358162Y-116962371D01*
X186310543Y-116914752D01*
X186167686Y-116819514D01*
X185977210Y-116771895D01*
X185596257Y-116771895D01*
X185501019Y-116819514D01*
X185453400Y-116867133D01*
X185405781Y-116962371D01*
X185405781Y-117152848D01*
X185453400Y-117248086D01*
X185501019Y-117295705D01*
X185596257Y-117343324D01*
X185834352Y-117343324D01*
X185929590Y-117295705D01*
X185977210Y-117248086D01*
X186024829Y-117152848D01*
X186024829Y-116962371D01*
X185977210Y-116867133D01*
X185929590Y-116819514D01*
X185834352Y-116771895D01*
X159097743Y-120518181D02*
X158764409Y-120041990D01*
X158526314Y-120518181D02*
X158526314Y-119518181D01*
X158907267Y-119518181D01*
X159002505Y-119565800D01*
X159050124Y-119613419D01*
X159097743Y-119708657D01*
X159097743Y-119851514D01*
X159050124Y-119946752D01*
X159002505Y-119994371D01*
X158907267Y-120041990D01*
X158526314Y-120041990D01*
X159478695Y-119613419D02*
X159526314Y-119565800D01*
X159621552Y-119518181D01*
X159859648Y-119518181D01*
X159954886Y-119565800D01*
X160002505Y-119613419D01*
X160050124Y-119708657D01*
X160050124Y-119803895D01*
X160002505Y-119946752D01*
X159431076Y-120518181D01*
X160050124Y-120518181D01*
X160669171Y-119518181D02*
X160764410Y-119518181D01*
X160859648Y-119565800D01*
X160907267Y-119613419D01*
X160954886Y-119708657D01*
X161002505Y-119899133D01*
X161002505Y-120137229D01*
X160954886Y-120327705D01*
X160907267Y-120422943D01*
X160859648Y-120470562D01*
X160764410Y-120518181D01*
X160669171Y-120518181D01*
X160573933Y-120470562D01*
X160526314Y-120422943D01*
X160478695Y-120327705D01*
X160431076Y-120137229D01*
X160431076Y-119899133D01*
X160478695Y-119708657D01*
X160526314Y-119613419D01*
X160573933Y-119565800D01*
X160669171Y-119518181D01*
X139133343Y-120137181D02*
X138800009Y-119660990D01*
X138561914Y-120137181D02*
X138561914Y-119137181D01*
X138942867Y-119137181D01*
X139038105Y-119184800D01*
X139085724Y-119232419D01*
X139133343Y-119327657D01*
X139133343Y-119470514D01*
X139085724Y-119565752D01*
X139038105Y-119613371D01*
X138942867Y-119660990D01*
X138561914Y-119660990D01*
X139514295Y-119232419D02*
X139561914Y-119184800D01*
X139657152Y-119137181D01*
X139895248Y-119137181D01*
X139990486Y-119184800D01*
X140038105Y-119232419D01*
X140085724Y-119327657D01*
X140085724Y-119422895D01*
X140038105Y-119565752D01*
X139466676Y-120137181D01*
X140085724Y-120137181D01*
X141038105Y-120137181D02*
X140466676Y-120137181D01*
X140752390Y-120137181D02*
X140752390Y-119137181D01*
X140657152Y-119280038D01*
X140561914Y-119375276D01*
X140466676Y-119422895D01*
X184061267Y-101928562D02*
X184204124Y-101976181D01*
X184442220Y-101976181D01*
X184537458Y-101928562D01*
X184585077Y-101880943D01*
X184632696Y-101785705D01*
X184632696Y-101690467D01*
X184585077Y-101595229D01*
X184537458Y-101547610D01*
X184442220Y-101499990D01*
X184251743Y-101452371D01*
X184156505Y-101404752D01*
X184108886Y-101357133D01*
X184061267Y-101261895D01*
X184061267Y-101166657D01*
X184108886Y-101071419D01*
X184156505Y-101023800D01*
X184251743Y-100976181D01*
X184489839Y-100976181D01*
X184632696Y-101023800D01*
X184966029Y-100976181D02*
X185204124Y-101976181D01*
X185394601Y-101261895D01*
X185585077Y-101976181D01*
X185823172Y-100976181D01*
X186156505Y-101071419D02*
X186204124Y-101023800D01*
X186299362Y-100976181D01*
X186537458Y-100976181D01*
X186632696Y-101023800D01*
X186680315Y-101071419D01*
X186727934Y-101166657D01*
X186727934Y-101261895D01*
X186680315Y-101404752D01*
X186108886Y-101976181D01*
X186727934Y-101976181D01*
X155829095Y-69099181D02*
X155829095Y-69908705D01*
X155876714Y-70003943D01*
X155924333Y-70051562D01*
X156019571Y-70099181D01*
X156210048Y-70099181D01*
X156305286Y-70051562D01*
X156352905Y-70003943D01*
X156400524Y-69908705D01*
X156400524Y-69099181D01*
X157400524Y-70099181D02*
X156829095Y-70099181D01*
X157114809Y-70099181D02*
X157114809Y-69099181D01*
X157019571Y-69242038D01*
X156924333Y-69337276D01*
X156829095Y-69384895D01*
X155854495Y-67549781D02*
X155854495Y-68359305D01*
X155902114Y-68454543D01*
X155949733Y-68502162D01*
X156044971Y-68549781D01*
X156235448Y-68549781D01*
X156330686Y-68502162D01*
X156378305Y-68454543D01*
X156425924Y-68359305D01*
X156425924Y-67549781D01*
X156854495Y-67645019D02*
X156902114Y-67597400D01*
X156997352Y-67549781D01*
X157235448Y-67549781D01*
X157330686Y-67597400D01*
X157378305Y-67645019D01*
X157425924Y-67740257D01*
X157425924Y-67835495D01*
X157378305Y-67978352D01*
X156806876Y-68549781D01*
X157425924Y-68549781D01*
X141859095Y-69251581D02*
X141859095Y-70061105D01*
X141906714Y-70156343D01*
X141954333Y-70203962D01*
X142049571Y-70251581D01*
X142240048Y-70251581D01*
X142335286Y-70203962D01*
X142382905Y-70156343D01*
X142430524Y-70061105D01*
X142430524Y-69251581D01*
X142811476Y-69251581D02*
X143430524Y-69251581D01*
X143097190Y-69632533D01*
X143240048Y-69632533D01*
X143335286Y-69680152D01*
X143382905Y-69727771D01*
X143430524Y-69823010D01*
X143430524Y-70061105D01*
X143382905Y-70156343D01*
X143335286Y-70203962D01*
X143240048Y-70251581D01*
X142954333Y-70251581D01*
X142859095Y-70203962D01*
X142811476Y-70156343D01*
X141859095Y-67549781D02*
X141859095Y-68359305D01*
X141906714Y-68454543D01*
X141954333Y-68502162D01*
X142049571Y-68549781D01*
X142240048Y-68549781D01*
X142335286Y-68502162D01*
X142382905Y-68454543D01*
X142430524Y-68359305D01*
X142430524Y-67549781D01*
X143335286Y-67883114D02*
X143335286Y-68549781D01*
X143097190Y-67502162D02*
X142859095Y-68216448D01*
X143478143Y-68216448D01*
X152057195Y-59383681D02*
X152057195Y-60193205D01*
X152104814Y-60288443D01*
X152152433Y-60336062D01*
X152247671Y-60383681D01*
X152438148Y-60383681D01*
X152533386Y-60336062D01*
X152581005Y-60288443D01*
X152628624Y-60193205D01*
X152628624Y-59383681D01*
X153581005Y-59383681D02*
X153104814Y-59383681D01*
X153057195Y-59859871D01*
X153104814Y-59812252D01*
X153200052Y-59764633D01*
X153438148Y-59764633D01*
X153533386Y-59812252D01*
X153581005Y-59859871D01*
X153628624Y-59955110D01*
X153628624Y-60193205D01*
X153581005Y-60288443D01*
X153533386Y-60336062D01*
X153438148Y-60383681D01*
X153200052Y-60383681D01*
X153104814Y-60336062D01*
X153057195Y-60288443D01*
X147447095Y-76007981D02*
X147447095Y-76817505D01*
X147494714Y-76912743D01*
X147542333Y-76960362D01*
X147637571Y-77007981D01*
X147828048Y-77007981D01*
X147923286Y-76960362D01*
X147970905Y-76912743D01*
X148018524Y-76817505D01*
X148018524Y-76007981D01*
X148923286Y-76007981D02*
X148732809Y-76007981D01*
X148637571Y-76055600D01*
X148589952Y-76103219D01*
X148494714Y-76246076D01*
X148447095Y-76436552D01*
X148447095Y-76817505D01*
X148494714Y-76912743D01*
X148542333Y-76960362D01*
X148637571Y-77007981D01*
X148828048Y-77007981D01*
X148923286Y-76960362D01*
X148970905Y-76912743D01*
X149018524Y-76817505D01*
X149018524Y-76579410D01*
X148970905Y-76484171D01*
X148923286Y-76436552D01*
X148828048Y-76388933D01*
X148637571Y-76388933D01*
X148542333Y-76436552D01*
X148494714Y-76484171D01*
X148447095Y-76579410D01*
X110711181Y-113817305D02*
X111520705Y-113817305D01*
X111615943Y-113769686D01*
X111663562Y-113722067D01*
X111711181Y-113626829D01*
X111711181Y-113436352D01*
X111663562Y-113341114D01*
X111615943Y-113293495D01*
X111520705Y-113245876D01*
X110711181Y-113245876D01*
X111139752Y-112626829D02*
X111092133Y-112722067D01*
X111044514Y-112769686D01*
X110949276Y-112817305D01*
X110901657Y-112817305D01*
X110806419Y-112769686D01*
X110758800Y-112722067D01*
X110711181Y-112626829D01*
X110711181Y-112436352D01*
X110758800Y-112341114D01*
X110806419Y-112293495D01*
X110901657Y-112245876D01*
X110949276Y-112245876D01*
X111044514Y-112293495D01*
X111092133Y-112341114D01*
X111139752Y-112436352D01*
X111139752Y-112626829D01*
X111187371Y-112722067D01*
X111234990Y-112769686D01*
X111330229Y-112817305D01*
X111520705Y-112817305D01*
X111615943Y-112769686D01*
X111663562Y-112722067D01*
X111711181Y-112626829D01*
X111711181Y-112436352D01*
X111663562Y-112341114D01*
X111615943Y-112293495D01*
X111520705Y-112245876D01*
X111330229Y-112245876D01*
X111234990Y-112293495D01*
X111187371Y-112341114D01*
X111139752Y-112436352D01*
X168986295Y-92136981D02*
X168986295Y-92946505D01*
X169033914Y-93041743D01*
X169081533Y-93089362D01*
X169176771Y-93136981D01*
X169367248Y-93136981D01*
X169462486Y-93089362D01*
X169510105Y-93041743D01*
X169557724Y-92946505D01*
X169557724Y-92136981D01*
X170081533Y-93136981D02*
X170272009Y-93136981D01*
X170367248Y-93089362D01*
X170414867Y-93041743D01*
X170510105Y-92898886D01*
X170557724Y-92708410D01*
X170557724Y-92327457D01*
X170510105Y-92232219D01*
X170462486Y-92184600D01*
X170367248Y-92136981D01*
X170176771Y-92136981D01*
X170081533Y-92184600D01*
X170033914Y-92232219D01*
X169986295Y-92327457D01*
X169986295Y-92565552D01*
X170033914Y-92660790D01*
X170081533Y-92708410D01*
X170176771Y-92756029D01*
X170367248Y-92756029D01*
X170462486Y-92708410D01*
X170510105Y-92660790D01*
X170557724Y-92565552D01*
X110711181Y-99053495D02*
X111520705Y-99053495D01*
X111615943Y-99005876D01*
X111663562Y-98958257D01*
X111711181Y-98863019D01*
X111711181Y-98672542D01*
X111663562Y-98577304D01*
X111615943Y-98529685D01*
X111520705Y-98482066D01*
X110711181Y-98482066D01*
X111711181Y-97482066D02*
X111711181Y-98053495D01*
X111711181Y-97767781D02*
X110711181Y-97767781D01*
X110854038Y-97863019D01*
X110949276Y-97958257D01*
X110996895Y-98053495D01*
X110711181Y-96863019D02*
X110711181Y-96767780D01*
X110758800Y-96672542D01*
X110806419Y-96624923D01*
X110901657Y-96577304D01*
X111092133Y-96529685D01*
X111330229Y-96529685D01*
X111520705Y-96577304D01*
X111615943Y-96624923D01*
X111663562Y-96672542D01*
X111711181Y-96767780D01*
X111711181Y-96863019D01*
X111663562Y-96958257D01*
X111615943Y-97005876D01*
X111520705Y-97053495D01*
X111330229Y-97101114D01*
X111092133Y-97101114D01*
X110901657Y-97053495D01*
X110806419Y-97005876D01*
X110758800Y-96958257D01*
X110711181Y-96863019D01*
X157994505Y-117486181D02*
X157994505Y-118295705D01*
X158042124Y-118390943D01*
X158089743Y-118438562D01*
X158184981Y-118486181D01*
X158375458Y-118486181D01*
X158470696Y-118438562D01*
X158518315Y-118390943D01*
X158565934Y-118295705D01*
X158565934Y-117486181D01*
X159565934Y-118486181D02*
X158994505Y-118486181D01*
X159280219Y-118486181D02*
X159280219Y-117486181D01*
X159184981Y-117629038D01*
X159089743Y-117724276D01*
X158994505Y-117771895D01*
X160518315Y-118486181D02*
X159946886Y-118486181D01*
X160232600Y-118486181D02*
X160232600Y-117486181D01*
X160137362Y-117629038D01*
X160042124Y-117724276D01*
X159946886Y-117771895D01*
X165106505Y-112152181D02*
X165106505Y-112961705D01*
X165154124Y-113056943D01*
X165201743Y-113104562D01*
X165296981Y-113152181D01*
X165487458Y-113152181D01*
X165582696Y-113104562D01*
X165630315Y-113056943D01*
X165677934Y-112961705D01*
X165677934Y-112152181D01*
X166677934Y-113152181D02*
X166106505Y-113152181D01*
X166392219Y-113152181D02*
X166392219Y-112152181D01*
X166296981Y-112295038D01*
X166201743Y-112390276D01*
X166106505Y-112437895D01*
X167058886Y-112247419D02*
X167106505Y-112199800D01*
X167201743Y-112152181D01*
X167439839Y-112152181D01*
X167535077Y-112199800D01*
X167582696Y-112247419D01*
X167630315Y-112342657D01*
X167630315Y-112437895D01*
X167582696Y-112580752D01*
X167011267Y-113152181D01*
X167630315Y-113152181D01*
X177552505Y-116216181D02*
X177552505Y-117025705D01*
X177600124Y-117120943D01*
X177647743Y-117168562D01*
X177742981Y-117216181D01*
X177933458Y-117216181D01*
X178028696Y-117168562D01*
X178076315Y-117120943D01*
X178123934Y-117025705D01*
X178123934Y-116216181D01*
X179123934Y-117216181D02*
X178552505Y-117216181D01*
X178838219Y-117216181D02*
X178838219Y-116216181D01*
X178742981Y-116359038D01*
X178647743Y-116454276D01*
X178552505Y-116501895D01*
X179457267Y-116216181D02*
X180076315Y-116216181D01*
X179742981Y-116597133D01*
X179885839Y-116597133D01*
X179981077Y-116644752D01*
X180028696Y-116692371D01*
X180076315Y-116787610D01*
X180076315Y-117025705D01*
X180028696Y-117120943D01*
X179981077Y-117168562D01*
X179885839Y-117216181D01*
X179600124Y-117216181D01*
X179504886Y-117168562D01*
X179457267Y-117120943D01*
X171202505Y-117740181D02*
X171202505Y-118549705D01*
X171250124Y-118644943D01*
X171297743Y-118692562D01*
X171392981Y-118740181D01*
X171583458Y-118740181D01*
X171678696Y-118692562D01*
X171726315Y-118644943D01*
X171773934Y-118549705D01*
X171773934Y-117740181D01*
X172773934Y-118740181D02*
X172202505Y-118740181D01*
X172488219Y-118740181D02*
X172488219Y-117740181D01*
X172392981Y-117883038D01*
X172297743Y-117978276D01*
X172202505Y-118025895D01*
X173631077Y-118073514D02*
X173631077Y-118740181D01*
X173392981Y-117692562D02*
X173154886Y-118406848D01*
X173773934Y-118406848D01*
X108313381Y-120635295D02*
X109122905Y-120635295D01*
X109218143Y-120587676D01*
X109265762Y-120540057D01*
X109313381Y-120444819D01*
X109313381Y-120254342D01*
X109265762Y-120159104D01*
X109218143Y-120111485D01*
X109122905Y-120063866D01*
X108313381Y-120063866D01*
X109313381Y-119063866D02*
X109313381Y-119635295D01*
X109313381Y-119349581D02*
X108313381Y-119349581D01*
X108456238Y-119444819D01*
X108551476Y-119540057D01*
X108599095Y-119635295D01*
X109313381Y-118587676D02*
X109313381Y-118397200D01*
X109265762Y-118301961D01*
X109218143Y-118254342D01*
X109075286Y-118159104D01*
X108884810Y-118111485D01*
X108503857Y-118111485D01*
X108408619Y-118159104D01*
X108361000Y-118206723D01*
X108313381Y-118301961D01*
X108313381Y-118492438D01*
X108361000Y-118587676D01*
X108408619Y-118635295D01*
X108503857Y-118682914D01*
X108741952Y-118682914D01*
X108837190Y-118635295D01*
X108884810Y-118587676D01*
X108932429Y-118492438D01*
X108932429Y-118301961D01*
X108884810Y-118206723D01*
X108837190Y-118159104D01*
X108741952Y-118111485D01*
X148562905Y-126049381D02*
X148562905Y-126858905D01*
X148610524Y-126954143D01*
X148658143Y-127001762D01*
X148753381Y-127049381D01*
X148943858Y-127049381D01*
X149039096Y-127001762D01*
X149086715Y-126954143D01*
X149134334Y-126858905D01*
X149134334Y-126049381D01*
X149562905Y-126144619D02*
X149610524Y-126097000D01*
X149705762Y-126049381D01*
X149943858Y-126049381D01*
X150039096Y-126097000D01*
X150086715Y-126144619D01*
X150134334Y-126239857D01*
X150134334Y-126335095D01*
X150086715Y-126477952D01*
X149515286Y-127049381D01*
X150134334Y-127049381D01*
X150753381Y-126049381D02*
X150848620Y-126049381D01*
X150943858Y-126097000D01*
X150991477Y-126144619D01*
X151039096Y-126239857D01*
X151086715Y-126430333D01*
X151086715Y-126668429D01*
X151039096Y-126858905D01*
X150991477Y-126954143D01*
X150943858Y-127001762D01*
X150848620Y-127049381D01*
X150753381Y-127049381D01*
X150658143Y-127001762D01*
X150610524Y-126954143D01*
X150562905Y-126858905D01*
X150515286Y-126668429D01*
X150515286Y-126430333D01*
X150562905Y-126239857D01*
X150610524Y-126144619D01*
X150658143Y-126097000D01*
X150753381Y-126049381D01*
X189803381Y-120245295D02*
X190612905Y-120245295D01*
X190708143Y-120197676D01*
X190755762Y-120150057D01*
X190803381Y-120054819D01*
X190803381Y-119864342D01*
X190755762Y-119769104D01*
X190708143Y-119721485D01*
X190612905Y-119673866D01*
X189803381Y-119673866D01*
X189898619Y-119245295D02*
X189851000Y-119197676D01*
X189803381Y-119102438D01*
X189803381Y-118864342D01*
X189851000Y-118769104D01*
X189898619Y-118721485D01*
X189993857Y-118673866D01*
X190089095Y-118673866D01*
X190231952Y-118721485D01*
X190803381Y-119292914D01*
X190803381Y-118673866D01*
X190803381Y-117721485D02*
X190803381Y-118292914D01*
X190803381Y-118007200D02*
X189803381Y-118007200D01*
X189946238Y-118102438D01*
X190041476Y-118197676D01*
X190089095Y-118292914D01*
X154620934Y-89663543D02*
X154573315Y-89711162D01*
X154430458Y-89758781D01*
X154335220Y-89758781D01*
X154192362Y-89711162D01*
X154097124Y-89615924D01*
X154049505Y-89520686D01*
X154001886Y-89330210D01*
X154001886Y-89187352D01*
X154049505Y-88996876D01*
X154097124Y-88901638D01*
X154192362Y-88806400D01*
X154335220Y-88758781D01*
X154430458Y-88758781D01*
X154573315Y-88806400D01*
X154620934Y-88854019D01*
X155001886Y-88854019D02*
X155049505Y-88806400D01*
X155144743Y-88758781D01*
X155382839Y-88758781D01*
X155478077Y-88806400D01*
X155525696Y-88854019D01*
X155573315Y-88949257D01*
X155573315Y-89044495D01*
X155525696Y-89187352D01*
X154954267Y-89758781D01*
X155573315Y-89758781D01*
X163233248Y-84232629D02*
X163995153Y-84232629D01*
X163614201Y-84613581D02*
X163614201Y-83851676D01*
X184251767Y-115073062D02*
X184394624Y-115120681D01*
X184632720Y-115120681D01*
X184727958Y-115073062D01*
X184775577Y-115025443D01*
X184823196Y-114930205D01*
X184823196Y-114834967D01*
X184775577Y-114739729D01*
X184727958Y-114692110D01*
X184632720Y-114644490D01*
X184442243Y-114596871D01*
X184347005Y-114549252D01*
X184299386Y-114501633D01*
X184251767Y-114406395D01*
X184251767Y-114311157D01*
X184299386Y-114215919D01*
X184347005Y-114168300D01*
X184442243Y-114120681D01*
X184680339Y-114120681D01*
X184823196Y-114168300D01*
X185156529Y-114120681D02*
X185394624Y-115120681D01*
X185585101Y-114406395D01*
X185775577Y-115120681D01*
X186013672Y-114120681D01*
X186299386Y-114120681D02*
X186918434Y-114120681D01*
X186585100Y-114501633D01*
X186727958Y-114501633D01*
X186823196Y-114549252D01*
X186870815Y-114596871D01*
X186918434Y-114692110D01*
X186918434Y-114930205D01*
X186870815Y-115025443D01*
X186823196Y-115073062D01*
X186727958Y-115120681D01*
X186442243Y-115120681D01*
X186347005Y-115073062D01*
X186299386Y-115025443D01*
X174647267Y-122312181D02*
X174647267Y-123026467D01*
X174599647Y-123169324D01*
X174504409Y-123264562D01*
X174361552Y-123312181D01*
X174266314Y-123312181D01*
X175028219Y-122312181D02*
X175694886Y-122312181D01*
X175266314Y-123312181D01*
X164376267Y-55446562D02*
X164519124Y-55494181D01*
X164757220Y-55494181D01*
X164852458Y-55446562D01*
X164900077Y-55398943D01*
X164947696Y-55303705D01*
X164947696Y-55208467D01*
X164900077Y-55113229D01*
X164852458Y-55065610D01*
X164757220Y-55017990D01*
X164566743Y-54970371D01*
X164471505Y-54922752D01*
X164423886Y-54875133D01*
X164376267Y-54779895D01*
X164376267Y-54684657D01*
X164423886Y-54589419D01*
X164471505Y-54541800D01*
X164566743Y-54494181D01*
X164804839Y-54494181D01*
X164947696Y-54541800D01*
X165281029Y-54494181D02*
X165519124Y-55494181D01*
X165709601Y-54779895D01*
X165900077Y-55494181D01*
X166138172Y-54494181D01*
X167042934Y-55494181D02*
X166471505Y-55494181D01*
X166757219Y-55494181D02*
X166757219Y-54494181D01*
X166661981Y-54637038D01*
X166566743Y-54732276D01*
X166471505Y-54779895D01*
X135650243Y-89276157D02*
X135697862Y-89323776D01*
X135745481Y-89466633D01*
X135745481Y-89561871D01*
X135697862Y-89704729D01*
X135602624Y-89799967D01*
X135507386Y-89847586D01*
X135316910Y-89895205D01*
X135174052Y-89895205D01*
X134983576Y-89847586D01*
X134888338Y-89799967D01*
X134793100Y-89704729D01*
X134745481Y-89561871D01*
X134745481Y-89466633D01*
X134793100Y-89323776D01*
X134840719Y-89276157D01*
X134840719Y-88895205D02*
X134793100Y-88847586D01*
X134745481Y-88752348D01*
X134745481Y-88514252D01*
X134793100Y-88419014D01*
X134840719Y-88371395D01*
X134935957Y-88323776D01*
X135031195Y-88323776D01*
X135174052Y-88371395D01*
X135745481Y-88942824D01*
X135745481Y-88323776D01*
X134840719Y-87942824D02*
X134793100Y-87895205D01*
X134745481Y-87799967D01*
X134745481Y-87561871D01*
X134793100Y-87466633D01*
X134840719Y-87419014D01*
X134935957Y-87371395D01*
X135031195Y-87371395D01*
X135174052Y-87419014D01*
X135745481Y-87990443D01*
X135745481Y-87371395D01*
X139103195Y-87450681D02*
X139103195Y-88260205D01*
X139150814Y-88355443D01*
X139198433Y-88403062D01*
X139293671Y-88450681D01*
X139484148Y-88450681D01*
X139579386Y-88403062D01*
X139627005Y-88355443D01*
X139674624Y-88260205D01*
X139674624Y-87450681D01*
X140055576Y-87450681D02*
X140722243Y-87450681D01*
X140293671Y-88450681D01*
X111028243Y-120392181D02*
X110694909Y-119915990D01*
X110456814Y-120392181D02*
X110456814Y-119392181D01*
X110837767Y-119392181D01*
X110933005Y-119439800D01*
X110980624Y-119487419D01*
X111028243Y-119582657D01*
X111028243Y-119725514D01*
X110980624Y-119820752D01*
X110933005Y-119868371D01*
X110837767Y-119915990D01*
X110456814Y-119915990D01*
X111409195Y-119487419D02*
X111456814Y-119439800D01*
X111552052Y-119392181D01*
X111790148Y-119392181D01*
X111885386Y-119439800D01*
X111933005Y-119487419D01*
X111980624Y-119582657D01*
X111980624Y-119677895D01*
X111933005Y-119820752D01*
X111361576Y-120392181D01*
X111980624Y-120392181D01*
X112361576Y-119487419D02*
X112409195Y-119439800D01*
X112504433Y-119392181D01*
X112742529Y-119392181D01*
X112837767Y-119439800D01*
X112885386Y-119487419D01*
X112933005Y-119582657D01*
X112933005Y-119677895D01*
X112885386Y-119820752D01*
X112313957Y-120392181D01*
X112933005Y-120392181D01*
M02*
