G04 #@! TF.FileFunction,Soldermask,Bot*
%FSLAX46Y46*%
G04 Gerber Fmt 4.6, Leading zero omitted, Abs format (unit mm)*
G04 Created by KiCad (PCBNEW 4.0.7-e2-6376~58~ubuntu16.04.1) date Mon Nov 13 19:48:04 2017*
%MOMM*%
%LPD*%
G01*
G04 APERTURE LIST*
%ADD10C,0.100000*%
%ADD11R,1.190000X2.060000*%
%ADD12C,2.400000*%
%ADD13R,2.150000X2.150000*%
%ADD14C,2.150000*%
%ADD15R,2.100000X2.100000*%
%ADD16O,2.100000X2.100000*%
%ADD17C,1.300000*%
%ADD18C,2.900000*%
%ADD19C,5.400000*%
G04 APERTURE END LIST*
D10*
D11*
X190754000Y-134543800D03*
X190754000Y-130543800D03*
X192554000Y-130543800D03*
X192554000Y-134543800D03*
D12*
X160020000Y-72593200D03*
X160020000Y-65074800D03*
X139192000Y-72593200D03*
X139192000Y-65074800D03*
D13*
X140690600Y-56997600D03*
D14*
X138190600Y-56997600D03*
D15*
X154686000Y-118110000D03*
D16*
X154686000Y-120650000D03*
X152146000Y-118110000D03*
X152146000Y-120650000D03*
X149606000Y-118110000D03*
X149606000Y-120650000D03*
X147066000Y-118110000D03*
X147066000Y-120650000D03*
X144526000Y-118110000D03*
X144526000Y-120650000D03*
D15*
X113588800Y-113055400D03*
D16*
X116128800Y-113055400D03*
X118668800Y-113055400D03*
X121208800Y-113055400D03*
X123748800Y-113055400D03*
X126288800Y-113055400D03*
X128828800Y-113055400D03*
X131368800Y-113055400D03*
X133908800Y-113055400D03*
X136448800Y-113055400D03*
X138988800Y-113055400D03*
X141528800Y-113055400D03*
X144068800Y-113055400D03*
X146608800Y-113055400D03*
X149148800Y-113055400D03*
D15*
X113588800Y-97815400D03*
D16*
X116128800Y-97815400D03*
X118668800Y-97815400D03*
X121208800Y-97815400D03*
X123748800Y-97815400D03*
X126288800Y-97815400D03*
X128828800Y-97815400D03*
X131368800Y-97815400D03*
X133908800Y-97815400D03*
X136448800Y-97815400D03*
X138988800Y-97815400D03*
X141528800Y-97815400D03*
X144068800Y-97815400D03*
X146608800Y-97815400D03*
X149148800Y-97815400D03*
D11*
X160528000Y-130556000D03*
X160528000Y-134556000D03*
X158728000Y-134556000D03*
X158728000Y-130556000D03*
X138811000Y-134543800D03*
X138811000Y-130543800D03*
X140611000Y-130543800D03*
X140611000Y-134543800D03*
X108458000Y-130556000D03*
X108458000Y-134556000D03*
X106658000Y-134556000D03*
X106658000Y-130556000D03*
D15*
X177546000Y-120624600D03*
D16*
X175006000Y-120624600D03*
X172466000Y-120624600D03*
D17*
X161304100Y-54915000D03*
X158304100Y-54915000D03*
D18*
X107596940Y-126809500D03*
X191597280Y-126809500D03*
X169095420Y-58811160D03*
X130096260Y-58811160D03*
X130096260Y-78811120D03*
X169095420Y-78811120D03*
D19*
X107596940Y-91810840D03*
X191597280Y-91810840D03*
M02*
