G04 #@! TF.FileFunction,Copper,L2,Bot,Signal*
%FSLAX46Y46*%
G04 Gerber Fmt 4.6, Leading zero omitted, Abs format (unit mm)*
G04 Created by KiCad (PCBNEW 4.0.7) date 03/05/18 16:21:59*
%MOMM*%
%LPD*%
G01*
G04 APERTURE LIST*
%ADD10C,0.020000*%
%ADD11C,4.064000*%
%ADD12R,1.700000X1.700000*%
%ADD13O,1.700000X1.700000*%
%ADD14C,0.600000*%
%ADD15C,0.508000*%
%ADD16C,0.254000*%
G04 APERTURE END LIST*
D10*
D11*
X203682600Y-68884800D03*
X203682600Y-90474800D03*
X175107600Y-90474800D03*
D12*
X197332600Y-70789800D03*
D13*
X197332600Y-73329800D03*
X197332600Y-75869800D03*
X197332600Y-78409800D03*
X197332600Y-80949800D03*
X197332600Y-83489800D03*
D12*
X189712600Y-88569800D03*
X189712600Y-69519800D03*
D11*
X175107600Y-68884800D03*
D14*
X192252600Y-75869800D03*
D15*
X192252600Y-75869800D02*
X197332600Y-75869800D01*
D16*
G36*
X208635600Y-96062800D02*
X168249600Y-96062800D01*
X168249600Y-87719800D01*
X188215160Y-87719800D01*
X188215160Y-89419800D01*
X188259438Y-89655117D01*
X188398510Y-89871241D01*
X188610710Y-90016231D01*
X188862600Y-90067240D01*
X190562600Y-90067240D01*
X190797917Y-90022962D01*
X191014041Y-89883890D01*
X191159031Y-89671690D01*
X191210040Y-89419800D01*
X191210040Y-87719800D01*
X191165762Y-87484483D01*
X191026690Y-87268359D01*
X190814490Y-87123369D01*
X190562600Y-87072360D01*
X188862600Y-87072360D01*
X188627283Y-87116638D01*
X188411159Y-87255710D01*
X188266169Y-87467910D01*
X188215160Y-87719800D01*
X168249600Y-87719800D01*
X168249600Y-80949800D01*
X195818507Y-80949800D01*
X195931546Y-81518085D01*
X196253453Y-81999854D01*
X196582626Y-82219800D01*
X196253453Y-82439746D01*
X195931546Y-82921515D01*
X195818507Y-83489800D01*
X195931546Y-84058085D01*
X196253453Y-84539854D01*
X196735222Y-84861761D01*
X197303507Y-84974800D01*
X197361693Y-84974800D01*
X197929978Y-84861761D01*
X198411747Y-84539854D01*
X198733654Y-84058085D01*
X198846693Y-83489800D01*
X198733654Y-82921515D01*
X198411747Y-82439746D01*
X198082574Y-82219800D01*
X198411747Y-81999854D01*
X198733654Y-81518085D01*
X198846693Y-80949800D01*
X198733654Y-80381515D01*
X198411747Y-79899746D01*
X198071047Y-79672098D01*
X198213958Y-79604983D01*
X198604245Y-79176724D01*
X198774076Y-78766690D01*
X198652755Y-78536800D01*
X197459600Y-78536800D01*
X197459600Y-78556800D01*
X197205600Y-78556800D01*
X197205600Y-78536800D01*
X196012445Y-78536800D01*
X195891124Y-78766690D01*
X196060955Y-79176724D01*
X196451242Y-79604983D01*
X196594153Y-79672098D01*
X196253453Y-79899746D01*
X195931546Y-80381515D01*
X195818507Y-80949800D01*
X168249600Y-80949800D01*
X168249600Y-76054967D01*
X191317438Y-76054967D01*
X191459483Y-76398743D01*
X191722273Y-76661992D01*
X192065801Y-76804638D01*
X192437767Y-76804962D01*
X192549488Y-76758800D01*
X196145840Y-76758800D01*
X196253453Y-76919854D01*
X196594153Y-77147502D01*
X196451242Y-77214617D01*
X196060955Y-77642876D01*
X195891124Y-78052910D01*
X196012445Y-78282800D01*
X197205600Y-78282800D01*
X197205600Y-78262800D01*
X197459600Y-78262800D01*
X197459600Y-78282800D01*
X198652755Y-78282800D01*
X198774076Y-78052910D01*
X198604245Y-77642876D01*
X198213958Y-77214617D01*
X198071047Y-77147502D01*
X198411747Y-76919854D01*
X198733654Y-76438085D01*
X198846693Y-75869800D01*
X198733654Y-75301515D01*
X198411747Y-74819746D01*
X198082574Y-74599800D01*
X198411747Y-74379854D01*
X198733654Y-73898085D01*
X198846693Y-73329800D01*
X198733654Y-72761515D01*
X198411747Y-72279746D01*
X198370148Y-72251950D01*
X198417917Y-72242962D01*
X198634041Y-72103890D01*
X198779031Y-71891690D01*
X198830040Y-71639800D01*
X198830040Y-69939800D01*
X198785762Y-69704483D01*
X198646690Y-69488359D01*
X198434490Y-69343369D01*
X198182600Y-69292360D01*
X196482600Y-69292360D01*
X196247283Y-69336638D01*
X196031159Y-69475710D01*
X195886169Y-69687910D01*
X195835160Y-69939800D01*
X195835160Y-71639800D01*
X195879438Y-71875117D01*
X196018510Y-72091241D01*
X196230710Y-72236231D01*
X196298141Y-72249886D01*
X196253453Y-72279746D01*
X195931546Y-72761515D01*
X195818507Y-73329800D01*
X195931546Y-73898085D01*
X196253453Y-74379854D01*
X196582626Y-74599800D01*
X196253453Y-74819746D01*
X196145840Y-74980800D01*
X192549789Y-74980800D01*
X192439399Y-74934962D01*
X192067433Y-74934638D01*
X191723657Y-75076683D01*
X191460408Y-75339473D01*
X191317762Y-75683001D01*
X191317438Y-76054967D01*
X168249600Y-76054967D01*
X168249600Y-68669800D01*
X188215160Y-68669800D01*
X188215160Y-70369800D01*
X188259438Y-70605117D01*
X188398510Y-70821241D01*
X188610710Y-70966231D01*
X188862600Y-71017240D01*
X190562600Y-71017240D01*
X190797917Y-70972962D01*
X191014041Y-70833890D01*
X191159031Y-70621690D01*
X191210040Y-70369800D01*
X191210040Y-68669800D01*
X191165762Y-68434483D01*
X191026690Y-68218359D01*
X190814490Y-68073369D01*
X190562600Y-68022360D01*
X188862600Y-68022360D01*
X188627283Y-68066638D01*
X188411159Y-68205710D01*
X188266169Y-68417910D01*
X188215160Y-68669800D01*
X168249600Y-68669800D01*
X168249600Y-63296800D01*
X208635600Y-63296800D01*
X208635600Y-96062800D01*
X208635600Y-96062800D01*
G37*
X208635600Y-96062800D02*
X168249600Y-96062800D01*
X168249600Y-87719800D01*
X188215160Y-87719800D01*
X188215160Y-89419800D01*
X188259438Y-89655117D01*
X188398510Y-89871241D01*
X188610710Y-90016231D01*
X188862600Y-90067240D01*
X190562600Y-90067240D01*
X190797917Y-90022962D01*
X191014041Y-89883890D01*
X191159031Y-89671690D01*
X191210040Y-89419800D01*
X191210040Y-87719800D01*
X191165762Y-87484483D01*
X191026690Y-87268359D01*
X190814490Y-87123369D01*
X190562600Y-87072360D01*
X188862600Y-87072360D01*
X188627283Y-87116638D01*
X188411159Y-87255710D01*
X188266169Y-87467910D01*
X188215160Y-87719800D01*
X168249600Y-87719800D01*
X168249600Y-80949800D01*
X195818507Y-80949800D01*
X195931546Y-81518085D01*
X196253453Y-81999854D01*
X196582626Y-82219800D01*
X196253453Y-82439746D01*
X195931546Y-82921515D01*
X195818507Y-83489800D01*
X195931546Y-84058085D01*
X196253453Y-84539854D01*
X196735222Y-84861761D01*
X197303507Y-84974800D01*
X197361693Y-84974800D01*
X197929978Y-84861761D01*
X198411747Y-84539854D01*
X198733654Y-84058085D01*
X198846693Y-83489800D01*
X198733654Y-82921515D01*
X198411747Y-82439746D01*
X198082574Y-82219800D01*
X198411747Y-81999854D01*
X198733654Y-81518085D01*
X198846693Y-80949800D01*
X198733654Y-80381515D01*
X198411747Y-79899746D01*
X198071047Y-79672098D01*
X198213958Y-79604983D01*
X198604245Y-79176724D01*
X198774076Y-78766690D01*
X198652755Y-78536800D01*
X197459600Y-78536800D01*
X197459600Y-78556800D01*
X197205600Y-78556800D01*
X197205600Y-78536800D01*
X196012445Y-78536800D01*
X195891124Y-78766690D01*
X196060955Y-79176724D01*
X196451242Y-79604983D01*
X196594153Y-79672098D01*
X196253453Y-79899746D01*
X195931546Y-80381515D01*
X195818507Y-80949800D01*
X168249600Y-80949800D01*
X168249600Y-76054967D01*
X191317438Y-76054967D01*
X191459483Y-76398743D01*
X191722273Y-76661992D01*
X192065801Y-76804638D01*
X192437767Y-76804962D01*
X192549488Y-76758800D01*
X196145840Y-76758800D01*
X196253453Y-76919854D01*
X196594153Y-77147502D01*
X196451242Y-77214617D01*
X196060955Y-77642876D01*
X195891124Y-78052910D01*
X196012445Y-78282800D01*
X197205600Y-78282800D01*
X197205600Y-78262800D01*
X197459600Y-78262800D01*
X197459600Y-78282800D01*
X198652755Y-78282800D01*
X198774076Y-78052910D01*
X198604245Y-77642876D01*
X198213958Y-77214617D01*
X198071047Y-77147502D01*
X198411747Y-76919854D01*
X198733654Y-76438085D01*
X198846693Y-75869800D01*
X198733654Y-75301515D01*
X198411747Y-74819746D01*
X198082574Y-74599800D01*
X198411747Y-74379854D01*
X198733654Y-73898085D01*
X198846693Y-73329800D01*
X198733654Y-72761515D01*
X198411747Y-72279746D01*
X198370148Y-72251950D01*
X198417917Y-72242962D01*
X198634041Y-72103890D01*
X198779031Y-71891690D01*
X198830040Y-71639800D01*
X198830040Y-69939800D01*
X198785762Y-69704483D01*
X198646690Y-69488359D01*
X198434490Y-69343369D01*
X198182600Y-69292360D01*
X196482600Y-69292360D01*
X196247283Y-69336638D01*
X196031159Y-69475710D01*
X195886169Y-69687910D01*
X195835160Y-69939800D01*
X195835160Y-71639800D01*
X195879438Y-71875117D01*
X196018510Y-72091241D01*
X196230710Y-72236231D01*
X196298141Y-72249886D01*
X196253453Y-72279746D01*
X195931546Y-72761515D01*
X195818507Y-73329800D01*
X195931546Y-73898085D01*
X196253453Y-74379854D01*
X196582626Y-74599800D01*
X196253453Y-74819746D01*
X196145840Y-74980800D01*
X192549789Y-74980800D01*
X192439399Y-74934962D01*
X192067433Y-74934638D01*
X191723657Y-75076683D01*
X191460408Y-75339473D01*
X191317762Y-75683001D01*
X191317438Y-76054967D01*
X168249600Y-76054967D01*
X168249600Y-68669800D01*
X188215160Y-68669800D01*
X188215160Y-70369800D01*
X188259438Y-70605117D01*
X188398510Y-70821241D01*
X188610710Y-70966231D01*
X188862600Y-71017240D01*
X190562600Y-71017240D01*
X190797917Y-70972962D01*
X191014041Y-70833890D01*
X191159031Y-70621690D01*
X191210040Y-70369800D01*
X191210040Y-68669800D01*
X191165762Y-68434483D01*
X191026690Y-68218359D01*
X190814490Y-68073369D01*
X190562600Y-68022360D01*
X188862600Y-68022360D01*
X188627283Y-68066638D01*
X188411159Y-68205710D01*
X188266169Y-68417910D01*
X188215160Y-68669800D01*
X168249600Y-68669800D01*
X168249600Y-63296800D01*
X208635600Y-63296800D01*
X208635600Y-96062800D01*
M02*
